<!-- Generated by readme-aura https://github.com/collectioneur/readme-aura -->
<svg width="860" height="200" viewBox="0 0 860 200" xmlns="http://www.w3.org/2000/svg"><clipPath id="satori_cp-id"><path x="0" y="0" width="860" height="200" d="M20,0 h820 a20,20 0 0 1 20,20 v160 a20,20 0 0 1 -20,20 h-820 a20,20 0 0 1 -20,-20 v-160 a20,20 0 0 1 20,-20"/></clipPath><mask id="satori_om-id"><rect x="0" y="0" width="860" height="200" fill="#fff"/></mask><path x="0" y="0" width="860" height="200" fill="#000000" d="M20,0 h820 a20,20 0 0 1 20,20 v160 a20,20 0 0 1 -20,20 h-820 a20,20 0 0 1 -20,-20 v-160 a20,20 0 0 1 20,-20"/><clipPath id="satori_cp-id-0" clip-path="url(#satori_cp-id)"><rect x="0" y="0" width="860" height="200"/></clipPath><mask id="satori_om-id-0"><rect x="0" y="0" width="860" height="200" fill="#fff" mask="url(#satori_om-id)"/></mask><svg x="0" y="0" width="860" height="200" preserveAspectRatio="none" clip-path="url(#satori_cp-id-0)" mask="url(#satori_om-id-0)"><defs><filter id="blurGlow" x="-50%" y="-50%" width="200%" height="200%"><feGaussianBlur stdDeviation="25"></feGaussianBlur></filter><radialGradient id="circGrad" cx="50%" cy="50%" r="50%"><stop offset="0%" stop-color="#FA6813" stop-opacity="1"></stop><stop offset="60%" stop-color="#FA6813" stop-opacity="0.5"></stop><stop offset="100%" stop-color="#FA6813" stop-opacity="0"></stop></radialGradient><linearGradient key="halo-0" id="haloGrad0" x1="281" y1="48" x2="281" y2="148" gradientUnits="userSpaceOnUse"><stop offset="0%" stop-color="#FA6813" stop-opacity="0"></stop><stop offset="50%" stop-color="#FA6813" stop-opacity="0.8"></stop><stop offset="100%" stop-color="#FA6813" stop-opacity="0"></stop></linearGradient><linearGradient key="core-0" id="coreGrad0" x1="281" y1="48" x2="281" y2="148" gradientUnits="userSpaceOnUse"><stop offset="0%" stop-color="#FFD9B3" stop-opacity="0"></stop><stop offset="50%" stop-color="#FFD9B3" stop-opacity="1"></stop><stop offset="100%" stop-color="#FFD9B3" stop-opacity="0"></stop></linearGradient><filter key="filter-0" id="haloBlur0" filterUnits="userSpaceOnUse" x="209" y="-12" width="144" height="220"><feGaussianBlur stdDeviation="20"></feGaussianBlur></filter><linearGradient key="halo-1" id="haloGrad1" x1="579" y1="48" x2="579" y2="148" gradientUnits="userSpaceOnUse"><stop offset="0%" stop-color="#FA6813" stop-opacity="0"></stop><stop offset="50%" stop-color="#FA6813" stop-opacity="0.8"></stop><stop offset="100%" stop-color="#FA6813" stop-opacity="0"></stop></linearGradient><linearGradient key="core-1" id="coreGrad1" x1="579" y1="48" x2="579" y2="148" gradientUnits="userSpaceOnUse"><stop offset="0%" stop-color="#FFD9B3" stop-opacity="0"></stop><stop offset="50%" stop-color="#FFD9B3" stop-opacity="1"></stop><stop offset="100%" stop-color="#FFD9B3" stop-opacity="0"></stop></linearGradient><filter key="filter-1" id="haloBlur1" filterUnits="userSpaceOnUse" x="507" y="-12" width="144" height="220"><feGaussianBlur stdDeviation="20"></feGaussianBlur></filter></defs><ellipse cx="149" cy="240" rx="120" ry="120" fill="url(#circGrad)" filter="url(#blurGlow)"></ellipse><ellipse cx="430" cy="240" rx="120" ry="120" fill="url(#circGrad)" filter="url(#blurGlow)"></ellipse><ellipse cx="711" cy="240" rx="120" ry="120" fill="url(#circGrad)" filter="url(#blurGlow)"></ellipse><line key="haloLine-0" x1="281" y1="48" x2="281" y2="148" stroke="url(#haloGrad0)" stroke-width="24" stroke-linecap="round" filter="url(#haloBlur0)"></line><line key="coreLine-0" x1="281" y1="48" x2="281" y2="148" stroke="url(#coreGrad0)" stroke-width="1.5" stroke-linecap="round"></line><line key="haloLine-1" x1="579" y1="48" x2="579" y2="148" stroke="url(#haloGrad1)" stroke-width="24" stroke-linecap="round" filter="url(#haloBlur1)"></line><line key="coreLine-1" x1="579" y1="48" x2="579" y2="148" stroke="url(#coreGrad1)" stroke-width="1.5" stroke-linecap="round"></line></svg><mask id="satori_om-id-0-0"><rect x="0" y="0" width="0" height="200" fill="#fff" mask="url(#satori_om-id)"/></mask><mask id="satori_om-id-0-0-0"><rect x="0" y="0" width="0" height="200" fill="#fff" mask="url(#satori_om-id)"/></mask><mask id="satori_om-id-0-0-0-0"><rect x="0" y="0" width="0" height="200" fill="#fff" mask="url(#satori_om-id)"/></mask><mask id="satori_om-id-0-0-1"><rect x="0" y="0" width="0" height="200" fill="#fff" mask="url(#satori_om-id)"/></mask><mask id="satori_om-id-0-0-1-0"><rect x="0" y="0" width="0" height="200" fill="#fff" mask="url(#satori_om-id)"/></mask><mask id="satori_om-id-0-0-1-1"><rect x="0" y="0" width="0" height="200" fill="#fff" mask="url(#satori_om-id)"/></mask><mask id="satori_om-id-0-0-1-2"><rect x="0" y="0" width="0" height="200" fill="#fff" mask="url(#satori_om-id)"/></mask><mask id="satori_om-id-0-0-2"><rect x="0" y="0" width="0" height="200" fill="#fff" mask="url(#satori_om-id)"/></mask><mask id="satori_om-id-0-0-2-0"><rect x="0" y="0" width="0" height="200" fill="#fff" mask="url(#satori_om-id)"/></mask><mask id="satori_om-id-0-0-2-1"><rect x="0" y="0" width="0" height="200" fill="#fff" mask="url(#satori_om-id)"/></mask><mask id="satori_om-id-0-0-2-2"><rect x="0" y="0" width="0" height="200" fill="#fff" mask="url(#satori_om-id)"/></mask><mask id="satori_om-id-0-0-3"><rect x="0" y="0" width="0" height="200" fill="#fff" mask="url(#satori_om-id)"/></mask><mask id="satori_om-id-0-0-3-0"><rect x="0" y="0" width="0" height="200" fill="#fff" mask="url(#satori_om-id)"/></mask><mask id="satori_om-id-0-0-3-1"><rect x="0" y="0" width="0" height="200" fill="#fff" mask="url(#satori_om-id)"/></mask><mask id="satori_om-id-0-0-3-2"><rect x="0" y="0" width="0" height="200" fill="#fff" mask="url(#satori_om-id)"/></mask><mask id="satori_om-id-0-0-4"><rect x="0" y="0" width="0" height="200" fill="#fff" mask="url(#satori_om-id)"/></mask><mask id="satori_om-id-0-0-4-0"><rect x="0" y="0" width="0" height="200" fill="#fff" mask="url(#satori_om-id)"/></mask><mask id="satori_om-id-0-0-5"><rect x="0" y="0" width="0" height="200" fill="#fff" mask="url(#satori_om-id)"/></mask><mask id="satori_om-id-0-0-5-0"><rect x="0" y="0" width="0" height="200" fill="#fff" mask="url(#satori_om-id)"/></mask><mask id="satori_om-id-0-0-5-1"><rect x="0" y="0" width="0" height="200" fill="#fff" mask="url(#satori_om-id)"/></mask><mask id="satori_om-id-0-0-5-2"><rect x="0" y="0" width="0" height="200" fill="#fff" mask="url(#satori_om-id)"/></mask><mask id="satori_om-id-0-0-6"><rect x="0" y="0" width="0" height="200" fill="#fff" mask="url(#satori_om-id)"/></mask><mask id="satori_om-id-0-0-6-0"><rect x="0" y="0" width="0" height="200" fill="#fff" mask="url(#satori_om-id)"/></mask><mask id="satori_om-id-0-0-6-1"><rect x="0" y="0" width="0" height="200" fill="#fff" mask="url(#satori_om-id)"/></mask><mask id="satori_om-id-0-0-6-2"><rect x="0" y="0" width="0" height="200" fill="#fff" mask="url(#satori_om-id)"/></mask><mask id="satori_om-id-0-0-7"><rect x="0" y="0" width="0" height="200" fill="#fff" mask="url(#satori_om-id)"/></mask><mask id="satori_om-id-0-0-7-0"><rect x="0" y="0" width="0" height="200" fill="#fff" mask="url(#satori_om-id)"/></mask><mask id="satori_om-id-0-1"><rect x="0" y="0" width="0" height="200" fill="#fff" mask="url(#satori_om-id)"/></mask><mask id="satori_om-id-0-2"><rect x="0" y="0" width="0" height="200" fill="#fff" mask="url(#satori_om-id)"/></mask><mask id="satori_om-id-0-3"><rect x="0" y="0" width="0" height="200" fill="#fff" mask="url(#satori_om-id)"/></mask><mask id="satori_om-id-0-4"><rect x="0" y="0" width="0" height="200" fill="#fff" mask="url(#satori_om-id)"/></mask><mask id="satori_om-id-0-5"><rect x="0" y="0" width="0" height="200" fill="#fff" mask="url(#satori_om-id)"/></mask><mask id="satori_om-id-0-6"><rect x="0" y="0" width="0" height="200" fill="#fff" mask="url(#satori_om-id)"/></mask><mask id="satori_om-id-0-7"><rect x="0" y="0" width="0" height="200" fill="#fff" mask="url(#satori_om-id)"/></mask><mask id="satori_om-id-1"><rect x="0" y="0" width="860" height="200" fill="#fff" mask="url(#satori_om-id)"/></mask><mask id="satori_om-id-1-0"><rect x="120" y="0" width="80" height="200" fill="#fff" mask="url(#satori_om-id)"/></mask><mask id="satori_om-id-1-0-0"><rect x="120" y="52" width="80" height="57" fill="#fff" mask="url(#satori_om-id)"/></mask><g mask="url(#satori_om-id)" clip-path="url(#satori_cp-id)"><path fill="#FD6801" d="M143.9 64.1L151.6 64.1L151.6 99L144.4 99L144.4 70.4L144.2 70.4L136.2 76.1L136.2 69.5L143.9 64.1ZM169.4 99.5L169.4 99.5Q165.8 99.5 163.0 98.1Q160.2 96.8 158.6 94.5Q157.0 92.2 156.9 89.2L156.9 89.2L163.9 89.2Q163.9 90.6 164.7 91.6Q165.5 92.6 166.7 93.2Q167.9 93.8 169.4 93.8L169.4 93.8Q171.2 93.8 172.5 93.0Q173.9 92.2 174.6 90.8Q175.4 89.4 175.4 87.6L175.4 87.6Q175.4 85.7 174.6 84.3Q173.8 82.8 172.5 82.0Q171.1 81.2 169.3 81.2L169.3 81.2Q167.7 81.2 166.3 81.9Q164.8 82.5 164.0 83.5L164.0 83.5L157.6 82.4L159.3 64.1L180.4 64.1L180.4 70.0L165.2 70.0L164.3 78.8L164.5 78.8Q165.5 77.6 167.3 76.7Q169.1 75.9 171.4 75.9L171.4 75.9Q173.8 75.9 175.8 76.8Q177.8 77.6 179.2 79.1Q180.7 80.7 181.5 82.8Q182.4 84.9 182.4 87.4L182.4 87.4Q182.4 90.9 180.7 93.6Q179.1 96.4 176.2 97.9Q173.3 99.5 169.4 99.5Z "/></g><mask id="satori_om-id-1-0-1"><rect x="120" y="131" width="80" height="17" fill="#fff" mask="url(#satori_om-id)"/></mask><g mask="url(#satori_om-id)" clip-path="url(#satori_cp-id)"><path fill="#B4B4B4" d="M139.0 145L136.9 145L136.9 134.8L140.9 134.8Q142.1 134.8 142.9 135.2Q143.7 135.6 144.1 136.4Q144.5 137.1 144.5 138.1Q144.5 139.1 144.1 139.9Q143.7 140.6 142.8 141.0L142.8 141.0Q142.8 141.0 142.7 141.0L142.7 141.0L144.9 145L142.6 145L140.6 141.4L139.0 141.4L139.0 145ZM139.0 136.5L139.0 139.7L140.5 139.7Q141.2 139.7 141.6 139.5Q142.0 139.3 142.2 139.0Q142.4 138.6 142.4 138.1L142.4 138.1Q142.4 137.6 142.2 137.3Q142.0 136.9 141.6 136.7Q141.1 136.5 140.5 136.5L140.5 136.5L139.0 136.5ZM152.9 145L146.1 145L146.1 134.8L152.9 134.8L152.9 136.5L148.2 136.5L148.2 139.0L152.6 139.0L152.6 140.7L148.2 140.7L148.2 143.3L152.9 143.3L152.9 145ZM156.7 145L154.6 145L154.6 134.8L158.6 134.8Q159.8 134.8 160.6 135.3Q161.4 135.7 161.8 136.5Q162.2 137.2 162.2 138.3L162.2 138.3Q162.2 139.3 161.8 140.0Q161.4 140.8 160.5 141.2Q159.7 141.7 158.5 141.7L158.5 141.7L156.7 141.7L156.7 145ZM156.7 136.5L156.7 140.0L158.2 140.0Q158.9 140.0 159.3 139.8Q159.7 139.5 159.9 139.2Q160.1 138.8 160.1 138.3Q160.1 137.7 159.9 137.4Q159.7 137.0 159.3 136.8Q158.8 136.5 158.2 136.5L158.2 136.5L156.7 136.5ZM168.2 145.1L168.2 145.1Q166.8 145.1 165.7 144.5Q164.7 143.9 164.0 142.7Q163.4 141.6 163.4 139.9L163.4 139.9Q163.4 138.3 164.0 137.1Q164.7 135.9 165.7 135.3Q166.8 134.7 168.2 134.7L168.2 134.7Q169.5 134.7 170.6 135.3Q171.7 135.9 172.3 137.1Q172.9 138.3 172.9 139.9L172.9 139.9Q172.9 141.6 172.3 142.7Q171.7 143.9 170.6 144.5Q169.5 145.1 168.2 145.1ZM168.2 143.3L168.2 143.3Q169.0 143.3 169.5 142.9Q170.1 142.5 170.5 141.8Q170.8 141.0 170.8 139.9L170.8 139.9Q170.8 138.8 170.5 138.1Q170.1 137.3 169.5 136.9Q169.0 136.5 168.2 136.5L168.2 136.5Q167.4 136.5 166.8 136.9Q166.2 137.3 165.9 138.1Q165.5 138.8 165.5 139.9L165.5 139.9Q165.5 141.0 165.9 141.8Q166.2 142.5 166.8 142.9Q167.4 143.3 168.2 143.3ZM178.2 145.2L178.2 145.2Q177.0 145.2 176.1 144.8Q175.2 144.4 174.7 143.7Q174.2 142.9 174.1 141.8L174.1 141.8L176.2 141.8Q176.2 142.4 176.5 142.7Q176.7 143.0 177.2 143.2Q177.6 143.4 178.2 143.4L178.2 143.4Q178.8 143.4 179.2 143.2Q179.6 143.1 179.8 142.8Q180.0 142.5 180.0 142.1L180.0 142.1Q180.0 141.7 179.8 141.5Q179.6 141.3 179.2 141.1Q178.8 140.9 178.3 140.8L178.3 140.8L177.2 140.5Q175.9 140.2 175.1 139.5Q174.4 138.9 174.4 137.7L174.4 137.7Q174.4 136.8 174.9 136.1Q175.4 135.4 176.3 135.1Q177.1 134.7 178.2 134.7L178.2 134.7Q179.4 134.7 180.2 135.1Q181.0 135.5 181.5 136.1Q182.0 136.8 182.0 137.7L182.0 137.7L180.0 137.7Q179.9 137.1 179.5 136.8Q179.0 136.4 178.2 136.4L178.2 136.4Q177.7 136.4 177.3 136.6Q176.9 136.7 176.7 137.0Q176.6 137.3 176.6 137.6L176.6 137.6Q176.6 138.0 176.8 138.2Q177.0 138.5 177.4 138.6Q177.8 138.8 178.2 138.9L178.2 138.9L179.1 139.1Q179.7 139.3 180.3 139.5Q180.9 139.8 181.3 140.1Q181.7 140.5 181.9 141.0Q182.1 141.5 182.1 142.1L182.1 142.1Q182.1 143.0 181.7 143.7Q181.2 144.4 180.3 144.8Q179.4 145.2 178.2 145.2Z "/></g><mask id="satori_om-id-1-1"><rect x="390" y="0" width="80" height="200" fill="#fff" mask="url(#satori_om-id)"/></mask><mask id="satori_om-id-1-1-0"><rect x="390" y="52" width="80" height="57" fill="#fff" mask="url(#satori_om-id)"/></mask><g mask="url(#satori_om-id)" clip-path="url(#satori_cp-id)"><path fill="#FD6801" d="M428.9 64.1L436.6 64.1L436.6 99L429.4 99L429.4 70.4L429.2 70.4L421.2 76.1L421.2 69.5L428.9 64.1Z "/></g><mask id="satori_om-id-1-1-1"><rect x="390" y="131" width="80" height="17" fill="#fff" mask="url(#satori_om-id)"/></mask><g mask="url(#satori_om-id)" clip-path="url(#satori_cp-id)"><path fill="#B4B4B4" d="M410.7 145.2L410.7 145.2Q409.4 145.2 408.5 144.8Q407.6 144.4 407.1 143.7Q406.6 142.9 406.6 141.8L406.6 141.8L408.6 141.8Q408.7 142.4 408.9 142.7Q409.2 143.0 409.6 143.2Q410.1 143.4 410.6 143.4L410.6 143.4Q411.2 143.4 411.6 143.2Q412.0 143.1 412.3 142.8Q412.5 142.5 412.5 142.1L412.5 142.1Q412.5 141.7 412.3 141.5Q412.1 141.3 411.7 141.1Q411.3 140.9 410.7 140.8L410.7 140.8L409.6 140.5Q408.3 140.2 407.6 139.5Q406.9 138.9 406.9 137.7L406.9 137.7Q406.9 136.8 407.4 136.1Q407.8 135.4 408.7 135.1Q409.6 134.7 410.7 134.7L410.7 134.7Q411.8 134.7 412.7 135.1Q413.5 135.5 414.0 136.1Q414.4 136.8 414.4 137.7L414.4 137.7L412.4 137.7Q412.4 137.1 411.9 136.8Q411.4 136.4 410.7 136.4L410.7 136.4Q410.1 136.4 409.8 136.6Q409.4 136.7 409.2 137.0Q409.0 137.3 409.0 137.6L409.0 137.6Q409.0 138.0 409.2 138.2Q409.4 138.5 409.8 138.6Q410.2 138.8 410.6 138.9L410.6 138.9L411.5 139.1Q412.2 139.3 412.7 139.5Q413.3 139.8 413.7 140.1Q414.1 140.5 414.4 141.0Q414.6 141.5 414.6 142.1L414.6 142.1Q414.6 143.0 414.1 143.7Q413.7 144.4 412.8 144.8Q411.9 145.2 410.7 145.2ZM418.8 136.5L415.7 136.5L415.7 134.8L424.0 134.8L424.0 136.5L420.9 136.5L420.9 145L418.8 145L418.8 136.5ZM427.2 145L424.8 145L428.3 134.8L431.1 134.8L434.6 145L432.3 145L431.5 142.6L427.9 142.6L427.2 145ZM428.4 141.0L431.0 141.0L430.7 140.1Q430.4 139.1 430.1 138L430.1 138Q429.9 137.3 429.7 136.5L429.7 136.5Q429.5 137.3 429.3 138.0L429.3 138.0Q429.0 139.2 428.7 140.1L428.7 140.1L428.4 141.0ZM438.0 145L435.9 145L435.9 134.8L439.9 134.8Q441.0 134.8 441.8 135.2Q442.6 135.6 443.1 136.4Q443.5 137.1 443.5 138.1Q443.5 139.1 443.1 139.9Q442.6 140.6 441.8 141.0L441.8 141.0Q441.8 141.0 441.7 141.0L441.7 141.0L443.9 145L441.6 145L439.6 141.4L438.0 141.4L438.0 145ZM438.0 136.5L438.0 139.7L439.5 139.7Q440.1 139.7 440.5 139.5Q440.9 139.3 441.1 139.0Q441.3 138.6 441.3 138.1L441.3 138.1Q441.3 137.6 441.1 137.3Q440.9 136.9 440.5 136.7Q440.1 136.5 439.5 136.5L439.5 136.5L438.0 136.5ZM448.8 145.2L448.8 145.2Q447.6 145.2 446.7 144.8Q445.8 144.4 445.3 143.7Q444.8 142.9 444.7 141.8L444.7 141.8L446.8 141.8Q446.8 142.4 447.1 142.7Q447.3 143.0 447.8 143.2Q448.2 143.4 448.8 143.4L448.8 143.4Q449.4 143.4 449.8 143.2Q450.2 143.1 450.4 142.8Q450.6 142.5 450.6 142.1L450.6 142.1Q450.6 141.7 450.4 141.5Q450.2 141.3 449.8 141.1Q449.4 140.9 448.9 140.8L448.9 140.8L447.8 140.5Q446.5 140.2 445.7 139.5Q445.0 138.9 445.0 137.7L445.0 137.7Q445.0 136.8 445.5 136.1Q446.0 135.4 446.9 135.1Q447.7 134.7 448.8 134.7L448.8 134.7Q450.0 134.7 450.8 135.1Q451.7 135.5 452.1 136.1Q452.6 136.8 452.6 137.7L452.6 137.7L450.6 137.7Q450.5 137.1 450.1 136.8Q449.6 136.4 448.8 136.4L448.8 136.4Q448.3 136.4 447.9 136.6Q447.5 136.7 447.3 137.0Q447.2 137.3 447.2 137.6L447.2 137.6Q447.2 138.0 447.4 138.2Q447.6 138.5 448.0 138.6Q448.4 138.8 448.8 138.9L448.8 138.9L449.7 139.1Q450.3 139.3 450.9 139.5Q451.5 139.8 451.9 140.1Q452.3 140.5 452.5 141.0Q452.7 141.5 452.7 142.1L452.7 142.1Q452.7 143.0 452.3 143.7Q451.8 144.4 450.9 144.8Q450.1 145.2 448.8 145.2Z "/></g><mask id="satori_om-id-1-2"><rect x="660" y="0" width="80" height="200" fill="#fff" mask="url(#satori_om-id)"/></mask><mask id="satori_om-id-1-2-0"><rect x="660" y="52" width="80" height="57" fill="#fff" mask="url(#satori_om-id)"/></mask><g mask="url(#satori_om-id)" clip-path="url(#satori_cp-id)"><path fill="#FD6801" d="M681.6 99L656.9 99L656.9 93.8L669.3 82.2Q670.9 80.7 672.0 79.4Q673.1 78.2 673.6 77.0Q674.2 75.8 674.2 74.4L674.2 74.4Q674.2 72.8 673.5 71.7Q672.8 70.5 671.6 69.9Q670.4 69.3 668.8 69.3L668.8 69.3Q667.2 69.3 666.0 70.0Q664.7 70.6 664.1 71.9Q663.4 73.1 663.4 74.8L663.4 74.8L656.6 74.8Q656.6 71.4 658.1 68.9Q659.7 66.4 662.5 65.0Q665.2 63.6 668.8 63.6L668.8 63.6Q672.5 63.6 675.3 64.9Q678.1 66.3 679.6 68.6Q681.1 70.9 681.1 73.9L681.1 73.9Q681.1 75.9 680.4 77.8Q679.6 79.7 677.7 82.0Q675.7 84.4 672.1 87.7L672.1 87.7L666.8 92.9L666.8 93.1L681.6 93.1L681.6 99ZM699.0 99.5L699.0 99.5Q695.4 99.5 692.6 98.1Q689.8 96.8 688.1 94.5Q686.5 92.2 686.4 89.2L686.4 89.2L693.4 89.2Q693.5 90.6 694.2 91.6Q695.0 92.6 696.2 93.2Q697.5 93.8 699.0 93.8L699.0 93.8Q700.7 93.8 702.1 93.0Q703.4 92.2 704.2 90.8Q705.0 89.4 705.0 87.6L705.0 87.6Q705.0 85.7 704.2 84.3Q703.4 82.8 702.0 82.0Q700.6 81.2 698.8 81.2L698.8 81.2Q697.3 81.2 695.8 81.9Q694.4 82.5 693.6 83.5L693.6 83.5L687.2 82.4L688.8 64.1L710.0 64.1L710.0 70.0L694.8 70.0L693.9 78.8L694.1 78.8Q695.0 77.6 696.8 76.7Q698.7 75.9 700.9 75.9L700.9 75.9Q703.3 75.9 705.3 76.8Q707.3 77.6 708.8 79.1Q710.3 80.7 711.1 82.8Q711.9 84.9 711.9 87.4L711.9 87.4Q711.9 90.9 710.3 93.6Q708.6 96.4 705.7 97.9Q702.8 99.5 699.0 99.5ZM729.5 99.5L729.5 99.5Q725.7 99.5 722.8 98.2Q719.9 96.9 718.2 94.5Q716.5 92.2 716.4 89.2L716.4 89.2L723.6 89.2Q723.7 90.5 724.5 91.5Q725.3 92.5 726.6 93Q727.9 93.5 729.6 93.5L729.6 93.5Q731.3 93.5 732.6 92.9Q733.9 92.3 734.7 91.3Q735.4 90.2 735.4 88.8L735.4 88.8Q735.4 87.3 734.6 86.2Q733.9 85.1 732.4 84.5Q730.9 83.9 728.9 83.9L728.9 83.9L725.7 83.9L725.7 78.5L728.9 78.5Q730.6 78.5 731.9 77.9Q733.2 77.3 733.9 76.3Q734.7 75.3 734.7 73.9L734.7 73.9Q734.7 72.5 734.0 71.5Q733.4 70.5 732.3 69.9Q731.1 69.3 729.6 69.3L729.6 69.3Q728.1 69.3 726.8 69.9Q725.6 70.4 724.8 71.4Q724.0 72.4 724.0 73.8L724.0 73.8L717.1 73.8Q717.1 70.8 718.8 68.5Q720.4 66.2 723.3 64.9Q726.1 63.6 729.7 63.6L729.7 63.6Q733.2 63.6 735.9 64.9Q738.6 66.2 740.1 68.5Q741.6 70.7 741.6 73.4L741.6 73.4Q741.6 76.3 739.8 78.3Q738.0 80.3 735.1 80.8L735.1 80.8L735.1 81.1Q737.6 81.4 739.3 82.5Q741.1 83.6 742.0 85.3Q742.9 87.0 742.9 89.2L742.9 89.2Q742.9 92.2 741.2 94.5Q739.5 96.8 736.4 98.1Q733.4 99.5 729.5 99.5Z "/></g><mask id="satori_om-id-1-2-1"><rect x="660" y="131" width="80" height="17" fill="#fff" mask="url(#satori_om-id)"/></mask><g mask="url(#satori_om-id)" clip-path="url(#satori_cp-id)"><path fill="#B4B4B4" d="M670.4 145.1L670.4 145.1Q669.0 145.1 667.9 144.5Q666.9 143.9 666.3 142.7Q665.6 141.6 665.6 139.9L665.6 139.9Q665.6 138.3 666.3 137.1Q666.9 135.9 668.0 135.3Q669.0 134.7 670.4 134.7L670.4 134.7Q671.2 134.7 672.0 134.9Q672.7 135.2 673.3 135.6Q673.9 136.1 674.3 136.8Q674.6 137.4 674.8 138.3L674.8 138.3L672.6 138.3Q672.6 137.9 672.4 137.6Q672.2 137.2 671.9 137.0Q671.6 136.8 671.2 136.6Q670.9 136.5 670.4 136.5L670.4 136.5Q669.6 136.5 669.0 136.9Q668.4 137.3 668.1 138.1Q667.8 138.8 667.8 139.9L667.8 139.9Q667.8 141.0 668.1 141.8Q668.4 142.5 669.0 142.9Q669.6 143.3 670.4 143.3L670.4 143.3Q670.8 143.3 671.2 143.2Q671.6 143.0 671.9 142.8Q672.2 142.6 672.4 142.3Q672.6 141.9 672.6 141.5L672.6 141.5L674.8 141.5Q674.7 142.2 674.3 142.9Q674.0 143.5 673.4 144.0Q672.9 144.5 672.1 144.8Q671.3 145.1 670.4 145.1ZM680.8 145.1L680.8 145.1Q679.4 145.1 678.3 144.5Q677.3 143.9 676.6 142.7Q676.0 141.6 676.0 139.9L676.0 139.9Q676.0 138.3 676.6 137.1Q677.3 135.9 678.3 135.3Q679.4 134.7 680.8 134.7L680.8 134.7Q682.1 134.7 683.2 135.3Q684.3 135.9 684.9 137.1Q685.5 138.3 685.5 139.9L685.5 139.9Q685.5 141.6 684.9 142.7Q684.3 143.9 683.2 144.5Q682.1 145.1 680.8 145.1ZM680.8 143.3L680.8 143.3Q681.5 143.3 682.1 142.9Q682.7 142.5 683.1 141.8Q683.4 141.0 683.4 139.9L683.4 139.9Q683.4 138.8 683.1 138.1Q682.7 137.3 682.1 136.9Q681.5 136.5 680.8 136.5L680.8 136.5Q680.0 136.5 679.4 136.9Q678.8 137.3 678.4 138.1Q678.1 138.8 678.1 139.9L678.1 139.9Q678.1 141.0 678.4 141.8Q678.8 142.5 679.4 142.9Q680.0 143.3 680.8 143.3ZM689.1 145L687.1 145L687.1 134.8L690.3 134.8L691.9 139.5Q692.0 139.8 692.2 140.3Q692.3 140.9 692.4 141.5L692.4 141.5Q692.6 142.0 692.7 142.6L692.7 142.6Q692.8 142.1 692.9 141.5L692.9 141.5Q693.1 140.9 693.2 140.3Q693.3 139.8 693.4 139.5L693.4 139.5L695.1 134.8L698.3 134.8L698.3 145L696.2 145L696.2 140.2Q696.2 139.9 696.2 139.4Q696.2 138.9 696.2 138.3Q696.2 137.7 696.2 137.1L696.2 137.1Q696.2 136.9 696.3 136.6L696.3 136.6Q696.2 136.9 696.1 137.2L696.1 137.2Q695.9 137.8 695.8 138.4Q695.6 138.9 695.5 139.4Q695.3 139.9 695.2 140.2L695.2 140.2L693.5 145L691.8 145L690.1 140.2Q690.0 139.9 689.8 139.4Q689.7 139.0 689.5 138.4Q689.4 137.8 689.2 137.2L689.2 137.2Q689.1 136.9 689.1 136.7L689.1 136.7Q689.1 136.9 689.1 137.1L689.1 137.1Q689.1 137.7 689.1 138.3Q689.1 138.8 689.1 139.4Q689.1 139.9 689.1 140.2L689.1 140.2L689.1 145ZM702.2 145L700.1 145L700.1 134.8L703.3 134.8L705.0 139.5Q705.1 139.8 705.2 140.3Q705.3 140.9 705.5 141.5L705.5 141.5Q705.6 142.0 705.7 142.6L705.7 142.6Q705.8 142.1 706.0 141.5L706.0 141.5Q706.1 140.9 706.2 140.3Q706.4 139.8 706.5 139.5L706.5 139.5L708.1 134.8L711.3 134.8L711.3 145L709.2 145L709.2 140.2Q709.2 139.9 709.2 139.4Q709.2 138.9 709.3 138.3Q709.3 137.7 709.3 137.1L709.3 137.1Q709.3 136.9 709.3 136.6L709.3 136.6Q709.2 136.9 709.1 137.2L709.1 137.2Q709.0 137.8 708.8 138.4Q708.7 138.9 708.5 139.4Q708.4 139.9 708.3 140.2L708.3 140.2L706.6 145L704.8 145L703.1 140.2Q703.0 139.9 702.9 139.4Q702.7 139.0 702.6 138.4Q702.4 137.8 702.2 137.2L702.2 137.2Q702.2 136.9 702.1 136.7L702.1 136.7Q702.1 136.9 702.1 137.1L702.1 137.1Q702.1 137.7 702.1 138.3Q702.2 138.8 702.2 139.4Q702.2 139.9 702.2 140.2L702.2 140.2L702.2 145ZM713.2 134.8L715.2 134.8L715.2 145L713.2 145L713.2 134.8ZM719.8 136.5L716.7 136.5L716.7 134.8L725.0 134.8L725.0 136.5L721.9 136.5L721.9 145L719.8 145L719.8 136.5ZM730.2 145.2L730.2 145.2Q728.9 145.2 728.0 144.8Q727.1 144.4 726.6 143.7Q726.1 142.9 726.1 141.8L726.1 141.8L728.1 141.8Q728.2 142.4 728.4 142.7Q728.7 143.0 729.1 143.2Q729.6 143.4 730.1 143.4L730.1 143.4Q730.7 143.4 731.1 143.2Q731.5 143.1 731.8 142.8Q732.0 142.5 732.0 142.1L732.0 142.1Q732.0 141.7 731.8 141.5Q731.6 141.3 731.2 141.1Q730.8 140.9 730.2 140.8L730.2 140.8L729.1 140.5Q727.8 140.2 727.1 139.5Q726.4 138.9 726.4 137.7L726.4 137.7Q726.4 136.8 726.9 136.1Q727.4 135.4 728.2 135.1Q729.1 134.7 730.2 134.7L730.2 134.7Q731.3 134.7 732.2 135.1Q733.0 135.5 733.5 136.1Q733.9 136.8 734.0 137.7L734.0 137.7L731.9 137.7Q731.9 137.1 731.4 136.8Q730.9 136.4 730.2 136.4L730.2 136.4Q729.6 136.4 729.3 136.6Q728.9 136.7 728.7 137.0Q728.5 137.3 728.5 137.6L728.5 137.6Q728.5 138.0 728.7 138.2Q729.0 138.5 729.3 138.6Q729.7 138.8 730.1 138.9L730.1 138.9L731.0 139.1Q731.7 139.3 732.2 139.5Q732.8 139.8 733.2 140.1Q733.6 140.5 733.9 141.0Q734.1 141.5 734.1 142.1L734.1 142.1Q734.1 143.0 733.6 143.7Q733.2 144.4 732.3 144.8Q731.4 145.2 730.2 145.2Z "/></g></svg>