<!-- Generated by readme-aura https://github.com/collectioneur/readme-aura -->
<svg width="860" height="200" viewBox="0 0 860 200" xmlns="http://www.w3.org/2000/svg"><clipPath id="satori_cp-id"><path x="0" y="0" width="860" height="200" d="M20,0 h820 a20,20 0 0 1 20,20 v160 a20,20 0 0 1 -20,20 h-820 a20,20 0 0 1 -20,-20 v-160 a20,20 0 0 1 20,-20"/></clipPath><mask id="satori_om-id"><rect x="0" y="0" width="860" height="200" fill="#fff"/></mask><path x="0" y="0" width="860" height="200" fill="#000000" d="M20,0 h820 a20,20 0 0 1 20,20 v160 a20,20 0 0 1 -20,20 h-820 a20,20 0 0 1 -20,-20 v-160 a20,20 0 0 1 20,-20"/><clipPath id="satori_cp-id-0" clip-path="url(#satori_cp-id)"><rect x="0" y="0" width="860" height="200"/></clipPath><mask id="satori_om-id-0"><rect x="0" y="0" width="860" height="200" fill="#fff" mask="url(#satori_om-id)"/></mask><svg x="0" y="0" width="860" height="200" preserveAspectRatio="none" clip-path="url(#satori_cp-id-0)" mask="url(#satori_om-id-0)"><defs><filter id="blurGlow" x="-50%" y="-50%" width="200%" height="200%"><feGaussianBlur stdDeviation="25"></feGaussianBlur></filter><radialGradient id="circGrad" cx="50%" cy="50%" r="50%"><stop offset="0%" stop-color="#FA6813" stop-opacity="1"></stop><stop offset="60%" stop-color="#FA6813" stop-opacity="0.5"></stop><stop offset="100%" stop-color="#FA6813" stop-opacity="0"></stop></radialGradient><linearGradient key="halo-0" id="haloGrad0" x1="281" y1="48" x2="281" y2="148" gradientUnits="userSpaceOnUse"><stop offset="0%" stop-color="#FA6813" stop-opacity="0"></stop><stop offset="50%" stop-color="#FA6813" stop-opacity="0.8"></stop><stop offset="100%" stop-color="#FA6813" stop-opacity="0"></stop></linearGradient><linearGradient key="core-0" id="coreGrad0" x1="281" y1="48" x2="281" y2="148" gradientUnits="userSpaceOnUse"><stop offset="0%" stop-color="#FFD9B3" stop-opacity="0"></stop><stop offset="50%" stop-color="#FFD9B3" stop-opacity="1"></stop><stop offset="100%" stop-color="#FFD9B3" stop-opacity="0"></stop></linearGradient><filter key="filter-0" id="haloBlur0" filterUnits="userSpaceOnUse" x="209" y="-12" width="144" height="220"><feGaussianBlur stdDeviation="20"></feGaussianBlur></filter><linearGradient key="halo-1" id="haloGrad1" x1="579" y1="48" x2="579" y2="148" gradientUnits="userSpaceOnUse"><stop offset="0%" stop-color="#FA6813" stop-opacity="0"></stop><stop offset="50%" stop-color="#FA6813" stop-opacity="0.8"></stop><stop offset="100%" stop-color="#FA6813" stop-opacity="0"></stop></linearGradient><linearGradient key="core-1" id="coreGrad1" x1="579" y1="48" x2="579" y2="148" gradientUnits="userSpaceOnUse"><stop offset="0%" stop-color="#FFD9B3" stop-opacity="0"></stop><stop offset="50%" stop-color="#FFD9B3" stop-opacity="1"></stop><stop offset="100%" stop-color="#FFD9B3" stop-opacity="0"></stop></linearGradient><filter key="filter-1" id="haloBlur1" filterUnits="userSpaceOnUse" x="507" y="-12" width="144" height="220"><feGaussianBlur stdDeviation="20"></feGaussianBlur></filter></defs><ellipse cx="149" cy="240" rx="120" ry="120" fill="url(#circGrad)" filter="url(#blurGlow)"></ellipse><ellipse cx="430" cy="240" rx="120" ry="120" fill="url(#circGrad)" filter="url(#blurGlow)"></ellipse><ellipse cx="711" cy="240" rx="120" ry="120" fill="url(#circGrad)" filter="url(#blurGlow)"></ellipse><line key="haloLine-0" x1="281" y1="48" x2="281" y2="148" stroke="url(#haloGrad0)" stroke-width="24" stroke-linecap="round" filter="url(#haloBlur0)"></line><line key="coreLine-0" x1="281" y1="48" x2="281" y2="148" stroke="url(#coreGrad0)" stroke-width="1.5" stroke-linecap="round"></line><line key="haloLine-1" x1="579" y1="48" x2="579" y2="148" stroke="url(#haloGrad1)" stroke-width="24" stroke-linecap="round" filter="url(#haloBlur1)"></line><line key="coreLine-1" x1="579" y1="48" x2="579" y2="148" stroke="url(#coreGrad1)" stroke-width="1.5" stroke-linecap="round"></line></svg><mask id="satori_om-id-0-0"><rect x="0" y="0" width="0" height="200" fill="#fff" mask="url(#satori_om-id)"/></mask><mask id="satori_om-id-0-0-0"><rect x="0" y="0" width="0" height="200" fill="#fff" mask="url(#satori_om-id)"/></mask><mask id="satori_om-id-0-0-0-0"><rect x="0" y="0" width="0" height="200" fill="#fff" mask="url(#satori_om-id)"/></mask><mask id="satori_om-id-0-0-1"><rect x="0" y="0" width="0" height="200" fill="#fff" mask="url(#satori_om-id)"/></mask><mask id="satori_om-id-0-0-1-0"><rect x="0" y="0" width="0" height="200" fill="#fff" mask="url(#satori_om-id)"/></mask><mask id="satori_om-id-0-0-1-1"><rect x="0" y="0" width="0" height="200" fill="#fff" mask="url(#satori_om-id)"/></mask><mask id="satori_om-id-0-0-1-2"><rect x="0" y="0" width="0" height="200" fill="#fff" mask="url(#satori_om-id)"/></mask><mask id="satori_om-id-0-0-2"><rect x="0" y="0" width="0" height="200" fill="#fff" mask="url(#satori_om-id)"/></mask><mask id="satori_om-id-0-0-2-0"><rect x="0" y="0" width="0" height="200" fill="#fff" mask="url(#satori_om-id)"/></mask><mask id="satori_om-id-0-0-2-1"><rect x="0" y="0" width="0" height="200" fill="#fff" mask="url(#satori_om-id)"/></mask><mask id="satori_om-id-0-0-2-2"><rect x="0" y="0" width="0" height="200" fill="#fff" mask="url(#satori_om-id)"/></mask><mask id="satori_om-id-0-0-3"><rect x="0" y="0" width="0" height="200" fill="#fff" mask="url(#satori_om-id)"/></mask><mask id="satori_om-id-0-0-3-0"><rect x="0" y="0" width="0" height="200" fill="#fff" mask="url(#satori_om-id)"/></mask><mask id="satori_om-id-0-0-3-1"><rect x="0" y="0" width="0" height="200" fill="#fff" mask="url(#satori_om-id)"/></mask><mask id="satori_om-id-0-0-3-2"><rect x="0" y="0" width="0" height="200" fill="#fff" mask="url(#satori_om-id)"/></mask><mask id="satori_om-id-0-0-4"><rect x="0" y="0" width="0" height="200" fill="#fff" mask="url(#satori_om-id)"/></mask><mask id="satori_om-id-0-0-4-0"><rect x="0" y="0" width="0" height="200" fill="#fff" mask="url(#satori_om-id)"/></mask><mask id="satori_om-id-0-0-5"><rect x="0" y="0" width="0" height="200" fill="#fff" mask="url(#satori_om-id)"/></mask><mask id="satori_om-id-0-0-5-0"><rect x="0" y="0" width="0" height="200" fill="#fff" mask="url(#satori_om-id)"/></mask><mask id="satori_om-id-0-0-5-1"><rect x="0" y="0" width="0" height="200" fill="#fff" mask="url(#satori_om-id)"/></mask><mask id="satori_om-id-0-0-5-2"><rect x="0" y="0" width="0" height="200" fill="#fff" mask="url(#satori_om-id)"/></mask><mask id="satori_om-id-0-0-6"><rect x="0" y="0" width="0" height="200" fill="#fff" mask="url(#satori_om-id)"/></mask><mask id="satori_om-id-0-0-6-0"><rect x="0" y="0" width="0" height="200" fill="#fff" mask="url(#satori_om-id)"/></mask><mask id="satori_om-id-0-0-6-1"><rect x="0" y="0" width="0" height="200" fill="#fff" mask="url(#satori_om-id)"/></mask><mask id="satori_om-id-0-0-6-2"><rect x="0" y="0" width="0" height="200" fill="#fff" mask="url(#satori_om-id)"/></mask><mask id="satori_om-id-0-0-7"><rect x="0" y="0" width="0" height="200" fill="#fff" mask="url(#satori_om-id)"/></mask><mask id="satori_om-id-0-0-7-0"><rect x="0" y="0" width="0" height="200" fill="#fff" mask="url(#satori_om-id)"/></mask><mask id="satori_om-id-0-1"><rect x="0" y="0" width="0" height="200" fill="#fff" mask="url(#satori_om-id)"/></mask><mask id="satori_om-id-0-2"><rect x="0" y="0" width="0" height="200" fill="#fff" mask="url(#satori_om-id)"/></mask><mask id="satori_om-id-0-3"><rect x="0" y="0" width="0" height="200" fill="#fff" mask="url(#satori_om-id)"/></mask><mask id="satori_om-id-0-4"><rect x="0" y="0" width="0" height="200" fill="#fff" mask="url(#satori_om-id)"/></mask><mask id="satori_om-id-0-5"><rect x="0" y="0" width="0" height="200" fill="#fff" mask="url(#satori_om-id)"/></mask><mask id="satori_om-id-0-6"><rect x="0" y="0" width="0" height="200" fill="#fff" mask="url(#satori_om-id)"/></mask><mask id="satori_om-id-0-7"><rect x="0" y="0" width="0" height="200" fill="#fff" mask="url(#satori_om-id)"/></mask><mask id="satori_om-id-1"><rect x="0" y="0" width="860" height="200" fill="#fff" mask="url(#satori_om-id)"/></mask><mask id="satori_om-id-1-0"><rect x="120" y="0" width="61" height="200" fill="#fff" mask="url(#satori_om-id)"/></mask><mask id="satori_om-id-1-0-0"><rect x="120" y="52" width="61" height="57" fill="#fff" mask="url(#satori_om-id)"/></mask><g mask="url(#satori_om-id)" clip-path="url(#satori_cp-id)"><path fill="#FD6801" d="M147.6 99L122.9 99L122.9 93.8L135.3 82.2Q136.9 80.7 138.0 79.4Q139.1 78.2 139.6 77.0Q140.2 75.8 140.2 74.4L140.2 74.4Q140.2 72.8 139.5 71.7Q138.8 70.5 137.6 69.9Q136.4 69.3 134.8 69.3L134.8 69.3Q133.2 69.3 132.0 70.0Q130.7 70.6 130.1 71.9Q129.4 73.1 129.4 74.8L129.4 74.8L122.6 74.8Q122.6 71.4 124.1 68.9Q125.7 66.4 128.5 65.0Q131.2 63.6 134.8 63.6L134.8 63.6Q138.5 63.6 141.3 64.9Q144.1 66.3 145.6 68.6Q147.1 70.9 147.1 73.9L147.1 73.9Q147.1 75.9 146.4 77.8Q145.6 79.7 143.7 82.0Q141.7 84.4 138.1 87.7L138.1 87.7L132.8 92.9L132.8 93.1L147.6 93.1L147.6 99ZM165.0 99.5L165.0 99.5Q161.4 99.5 158.6 98.1Q155.8 96.8 154.1 94.5Q152.5 92.2 152.4 89.2L152.4 89.2L159.4 89.2Q159.5 90.6 160.2 91.6Q161.0 92.6 162.2 93.2Q163.5 93.8 165.0 93.8L165.0 93.8Q166.7 93.8 168.1 93.0Q169.4 92.2 170.2 90.8Q171.0 89.4 171.0 87.6L171.0 87.6Q171.0 85.7 170.2 84.3Q169.4 82.8 168.0 82.0Q166.6 81.2 164.8 81.2L164.8 81.2Q163.3 81.2 161.8 81.9Q160.4 82.5 159.6 83.5L159.6 83.5L153.2 82.4L154.8 64.1L176.0 64.1L176.0 70.0L160.8 70.0L159.9 78.8L160.1 78.8Q161.0 77.6 162.8 76.7Q164.7 75.9 166.9 75.9L166.9 75.9Q169.3 75.9 171.3 76.8Q173.3 77.6 174.8 79.1Q176.3 80.7 177.1 82.8Q177.9 84.9 177.9 87.4L177.9 87.4Q177.9 90.9 176.3 93.6Q174.6 96.4 171.7 97.9Q168.8 99.5 165.0 99.5Z "/></g><mask id="satori_om-id-1-0-1"><rect x="127" y="131" width="47" height="17" fill="#fff" mask="url(#satori_om-id)"/></mask><g mask="url(#satori_om-id)" clip-path="url(#satori_cp-id)"><path fill="#B4B4B4" d="M130.0 145L127.9 145L127.9 134.8L131.9 134.8Q133.1 134.8 133.9 135.2Q134.7 135.6 135.1 136.4Q135.5 137.1 135.5 138.1Q135.5 139.1 135.1 139.9Q134.7 140.6 133.8 141.0L133.8 141.0Q133.8 141.0 133.7 141.0L133.7 141.0L135.9 145L133.6 145L131.6 141.4L130.0 141.4L130.0 145ZM130.0 136.5L130.0 139.7L131.5 139.7Q132.2 139.7 132.6 139.5Q133.0 139.3 133.2 139.0Q133.4 138.6 133.4 138.1L133.4 138.1Q133.4 137.6 133.2 137.3Q133.0 136.9 132.6 136.7Q132.1 136.5 131.5 136.5L131.5 136.5L130.0 136.5ZM143.9 145L137.1 145L137.1 134.8L143.9 134.8L143.9 136.5L139.2 136.5L139.2 139.0L143.6 139.0L143.6 140.7L139.2 140.7L139.2 143.3L143.9 143.3L143.9 145ZM147.7 145L145.6 145L145.6 134.8L149.6 134.8Q150.8 134.8 151.6 135.3Q152.4 135.7 152.8 136.5Q153.2 137.2 153.2 138.3L153.2 138.3Q153.2 139.3 152.8 140.0Q152.4 140.8 151.5 141.2Q150.7 141.7 149.5 141.7L149.5 141.7L147.7 141.7L147.7 145ZM147.7 136.5L147.7 140.0L149.2 140.0Q149.9 140.0 150.3 139.8Q150.7 139.5 150.9 139.2Q151.1 138.8 151.1 138.3Q151.1 137.7 150.9 137.4Q150.7 137.0 150.3 136.8Q149.8 136.5 149.2 136.5L149.2 136.5L147.7 136.5ZM159.2 145.1L159.2 145.1Q157.8 145.1 156.7 144.5Q155.7 143.9 155.0 142.7Q154.4 141.6 154.4 139.9L154.4 139.9Q154.4 138.3 155.0 137.1Q155.7 135.9 156.7 135.3Q157.8 134.7 159.2 134.7L159.2 134.7Q160.5 134.7 161.6 135.3Q162.7 135.9 163.3 137.1Q163.9 138.3 163.9 139.9L163.9 139.9Q163.9 141.6 163.3 142.7Q162.7 143.9 161.6 144.5Q160.5 145.1 159.2 145.1ZM159.2 143.3L159.2 143.3Q160.0 143.3 160.5 142.9Q161.1 142.5 161.5 141.8Q161.8 141.0 161.8 139.9L161.8 139.9Q161.8 138.8 161.5 138.1Q161.1 137.3 160.5 136.9Q160.0 136.5 159.2 136.5L159.2 136.5Q158.4 136.5 157.8 136.9Q157.2 137.3 156.9 138.1Q156.5 138.8 156.5 139.9L156.5 139.9Q156.5 141.0 156.9 141.8Q157.2 142.5 157.8 142.9Q158.4 143.3 159.2 143.3ZM169.2 145.2L169.2 145.2Q168.0 145.2 167.1 144.8Q166.2 144.4 165.7 143.7Q165.2 142.9 165.1 141.8L165.1 141.8L167.2 141.8Q167.2 142.4 167.5 142.7Q167.7 143.0 168.2 143.2Q168.6 143.4 169.2 143.4L169.2 143.4Q169.8 143.4 170.2 143.2Q170.6 143.1 170.8 142.8Q171.0 142.5 171.0 142.1L171.0 142.1Q171.0 141.7 170.8 141.5Q170.6 141.3 170.2 141.1Q169.8 140.9 169.3 140.8L169.3 140.8L168.2 140.5Q166.9 140.2 166.1 139.5Q165.4 138.9 165.4 137.7L165.4 137.7Q165.4 136.8 165.9 136.1Q166.4 135.4 167.3 135.1Q168.1 134.7 169.2 134.7L169.2 134.7Q170.4 134.7 171.2 135.1Q172.0 135.5 172.5 136.1Q173.0 136.8 173.0 137.7L173.0 137.7L171.0 137.7Q170.9 137.1 170.5 136.8Q170.0 136.4 169.2 136.4L169.2 136.4Q168.7 136.4 168.3 136.6Q167.9 136.7 167.7 137.0Q167.6 137.3 167.6 137.6L167.6 137.6Q167.6 138.0 167.8 138.2Q168.0 138.5 168.4 138.6Q168.8 138.8 169.2 138.9L169.2 138.9L170.1 139.1Q170.7 139.3 171.3 139.5Q171.9 139.8 172.3 140.1Q172.7 140.5 172.9 141.0Q173.1 141.5 173.1 142.1L173.1 142.1Q173.1 143.0 172.7 143.7Q172.2 144.4 171.3 144.8Q170.4 145.2 169.2 145.2Z "/></g><mask id="satori_om-id-1-1"><rect x="371" y="0" width="83" height="200" fill="#fff" mask="url(#satori_om-id)"/></mask><mask id="satori_om-id-1-1-0"><rect x="371" y="52" width="83" height="57" fill="#fff" mask="url(#satori_om-id)"/></mask><g mask="url(#satori_om-id)" clip-path="url(#satori_cp-id)"><path fill="#FD6801" d="M380.9 64.1L388.6 64.1L388.6 99L381.4 99L381.4 70.4L381.2 70.4L373.2 76.1L373.2 69.5L380.9 64.1ZM419.3 99L394.6 99L394.6 93.8L407.0 82.2Q408.6 80.7 409.7 79.4Q410.8 78.2 411.3 77.0Q411.9 75.8 411.9 74.4L411.9 74.4Q411.9 72.8 411.2 71.7Q410.5 70.5 409.3 69.9Q408.1 69.3 406.5 69.3L406.5 69.3Q404.9 69.3 403.6 70.0Q402.4 70.6 401.8 71.9Q401.1 73.1 401.1 74.8L401.1 74.8L394.3 74.8Q394.3 71.4 395.8 68.9Q397.4 66.4 400.2 65.0Q402.9 63.6 406.5 63.6L406.5 63.6Q410.2 63.6 413 64.9Q415.8 66.3 417.3 68.6Q418.8 70.9 418.8 73.9L418.8 73.9Q418.8 75.9 418.1 77.8Q417.3 79.7 415.4 82.0Q413.4 84.4 409.8 87.7L409.8 87.7L404.5 92.9L404.5 93.1L419.3 93.1L419.3 99ZM437.5 99.5L437.5 99.5Q433.6 99.5 430.6 98.2Q427.6 96.9 425.9 94.7Q424.1 92.4 424.1 89.6L424.1 89.6Q424.1 87.4 425.1 85.6Q426.1 83.8 427.8 82.5Q429.5 81.3 431.7 81.0L431.7 81.0L431.7 80.7Q428.9 80.2 427.1 78Q425.4 75.8 425.4 73.0L425.4 73.0Q425.4 70.3 427.0 68.2Q428.5 66.0 431.3 64.8Q434.0 63.6 437.5 63.6L437.5 63.6Q441.0 63.6 443.8 64.8Q446.5 66.0 448.1 68.2Q449.7 70.3 449.7 73.0L449.7 73.0Q449.7 75.8 447.9 78Q446.2 80.2 443.5 80.7L443.5 80.7L443.5 81.0Q445.6 81.3 447.3 82.5Q449.0 83.8 450.0 85.6Q451.0 87.4 451.0 89.6L451.0 89.6Q451.0 92.4 449.3 94.7Q447.5 96.9 444.5 98.2Q441.5 99.5 437.5 99.5ZM437.5 94.2L437.5 94.2Q439.3 94.2 440.7 93.5Q442.0 92.9 442.8 91.7Q443.5 90.6 443.5 89.1L443.5 89.1Q443.5 87.5 442.7 86.3Q442.0 85.1 440.6 84.5Q439.3 83.8 437.5 83.8L437.5 83.8Q435.8 83.8 434.5 84.4Q433.1 85.1 432.3 86.3Q431.6 87.5 431.6 89.1L431.6 89.1Q431.6 90.6 432.3 91.7Q433.0 92.9 434.4 93.5Q435.8 94.2 437.5 94.2ZM437.5 78.5L437.5 78.5Q439.0 78.5 440.2 77.9Q441.4 77.3 442.0 76.2Q442.7 75.1 442.7 73.8L442.7 73.8Q442.7 72.4 442.0 71.3Q441.4 70.2 440.2 69.7Q439.1 69.1 437.5 69.1L437.5 69.1Q436.0 69.1 434.9 69.7Q433.7 70.2 433.0 71.3Q432.4 72.4 432.4 73.8L432.4 73.8Q432.4 75.1 433.0 76.2Q433.7 77.3 434.9 77.9Q436.0 78.5 437.5 78.5Z "/></g><mask id="satori_om-id-1-1-1"><rect x="389" y="131" width="48" height="17" fill="#fff" mask="url(#satori_om-id)"/></mask><g mask="url(#satori_om-id)" clip-path="url(#satori_cp-id)"><path fill="#B4B4B4" d="M393.7 145.2L393.7 145.2Q392.4 145.2 391.5 144.8Q390.6 144.4 390.1 143.7Q389.6 142.9 389.6 141.8L389.6 141.8L391.6 141.8Q391.7 142.4 391.9 142.7Q392.2 143.0 392.6 143.2Q393.1 143.4 393.6 143.4L393.6 143.4Q394.2 143.4 394.6 143.2Q395.0 143.1 395.3 142.8Q395.5 142.5 395.5 142.1L395.5 142.1Q395.5 141.7 395.3 141.5Q395.1 141.3 394.7 141.1Q394.3 140.9 393.7 140.8L393.7 140.8L392.6 140.5Q391.3 140.2 390.6 139.5Q389.9 138.9 389.9 137.7L389.9 137.7Q389.9 136.8 390.4 136.1Q390.8 135.4 391.7 135.1Q392.6 134.7 393.7 134.7L393.7 134.7Q394.8 134.7 395.7 135.1Q396.5 135.5 397.0 136.1Q397.4 136.8 397.4 137.7L397.4 137.7L395.4 137.7Q395.4 137.1 394.9 136.8Q394.4 136.4 393.7 136.4L393.7 136.4Q393.1 136.4 392.8 136.6Q392.4 136.7 392.2 137.0Q392.0 137.3 392.0 137.6L392.0 137.6Q392.0 138.0 392.2 138.2Q392.4 138.5 392.8 138.6Q393.2 138.8 393.6 138.9L393.6 138.9L394.5 139.1Q395.2 139.3 395.7 139.5Q396.3 139.8 396.7 140.1Q397.1 140.5 397.4 141.0Q397.6 141.5 397.6 142.1L397.6 142.1Q397.6 143.0 397.1 143.7Q396.7 144.4 395.8 144.8Q394.9 145.2 393.7 145.2ZM401.8 136.5L398.7 136.5L398.7 134.8L407.0 134.8L407.0 136.5L403.9 136.5L403.9 145L401.8 145L401.8 136.5ZM410.2 145L407.8 145L411.3 134.8L414.1 134.8L417.6 145L415.3 145L414.5 142.6L410.9 142.6L410.2 145ZM411.4 141.0L414.0 141.0L413.7 140.1Q413.4 139.1 413.1 138L413.1 138Q412.9 137.3 412.7 136.5L412.7 136.5Q412.5 137.3 412.3 138.0L412.3 138.0Q412.0 139.2 411.7 140.1L411.7 140.1L411.4 141.0ZM421.0 145L418.9 145L418.9 134.8L422.9 134.8Q424.0 134.8 424.8 135.2Q425.6 135.6 426.1 136.4Q426.5 137.1 426.5 138.1Q426.5 139.1 426.1 139.9Q425.6 140.6 424.8 141.0L424.8 141.0Q424.8 141.0 424.7 141.0L424.7 141.0L426.9 145L424.6 145L422.6 141.4L421.0 141.4L421.0 145ZM421.0 136.5L421.0 139.7L422.5 139.7Q423.1 139.7 423.5 139.5Q423.9 139.3 424.1 139.0Q424.3 138.6 424.3 138.1L424.3 138.1Q424.3 137.6 424.1 137.3Q423.9 136.9 423.5 136.7Q423.1 136.5 422.5 136.5L422.5 136.5L421.0 136.5ZM431.8 145.2L431.8 145.2Q430.6 145.2 429.7 144.8Q428.8 144.4 428.3 143.7Q427.8 142.9 427.7 141.8L427.7 141.8L429.8 141.8Q429.8 142.4 430.1 142.7Q430.3 143.0 430.8 143.2Q431.2 143.4 431.8 143.4L431.8 143.4Q432.4 143.4 432.8 143.2Q433.2 143.1 433.4 142.8Q433.6 142.5 433.6 142.1L433.6 142.1Q433.6 141.7 433.4 141.5Q433.2 141.3 432.8 141.1Q432.4 140.9 431.9 140.8L431.9 140.8L430.8 140.5Q429.5 140.2 428.7 139.5Q428.0 138.9 428.0 137.7L428.0 137.7Q428.0 136.8 428.5 136.1Q429.0 135.4 429.9 135.1Q430.7 134.7 431.8 134.7L431.8 134.7Q433.0 134.7 433.8 135.1Q434.7 135.5 435.1 136.1Q435.6 136.8 435.6 137.7L435.6 137.7L433.6 137.7Q433.5 137.1 433.1 136.8Q432.6 136.4 431.8 136.4L431.8 136.4Q431.3 136.4 430.9 136.6Q430.5 136.7 430.3 137.0Q430.2 137.3 430.2 137.6L430.2 137.6Q430.2 138.0 430.4 138.2Q430.6 138.5 431.0 138.6Q431.4 138.8 431.8 138.9L431.8 138.9L432.7 139.1Q433.3 139.3 433.9 139.5Q434.5 139.8 434.9 140.1Q435.3 140.5 435.5 141.0Q435.7 141.5 435.7 142.1L435.7 142.1Q435.7 143.0 435.3 143.7Q434.8 144.4 433.9 144.8Q433.1 145.2 431.8 145.2Z "/></g><mask id="satori_om-id-1-2"><rect x="644" y="0" width="111" height="200" fill="#fff" mask="url(#satori_om-id)"/></mask><mask id="satori_om-id-1-2-0"><rect x="644" y="52" width="111" height="57" fill="#fff" mask="url(#satori_om-id)"/></mask><g mask="url(#satori_om-id)" clip-path="url(#satori_cp-id)"><path fill="#FD6801" d="M653.9 64.1L661.6 64.1L661.6 99L654.4 99L654.4 70.4L654.2 70.4L646.2 76.1L646.2 69.5L653.9 64.1ZM679.4 99.5L679.4 99.5Q675.8 99.5 673.0 98.1Q670.2 96.8 668.6 94.5Q667.0 92.2 666.9 89.2L666.9 89.2L673.9 89.2Q673.9 90.6 674.7 91.6Q675.5 92.6 676.7 93.2Q677.9 93.8 679.4 93.8L679.4 93.8Q681.2 93.8 682.5 93.0Q683.9 92.2 684.6 90.8Q685.4 89.4 685.4 87.6L685.4 87.6Q685.4 85.7 684.6 84.3Q683.8 82.8 682.5 82.0Q681.1 81.2 679.3 81.2L679.3 81.2Q677.7 81.2 676.3 81.9Q674.8 82.5 674.0 83.5L674.0 83.5L667.6 82.4L669.3 64.1L690.4 64.1L690.4 70.0L675.2 70.0L674.3 78.8L674.5 78.8Q675.5 77.6 677.3 76.7Q679.1 75.9 681.4 75.9L681.4 75.9Q683.8 75.9 685.8 76.8Q687.8 77.6 689.2 79.1Q690.7 80.7 691.5 82.8Q692.4 84.9 692.4 87.4L692.4 87.4Q692.4 90.9 690.7 93.6Q689.1 96.4 686.2 97.9Q683.3 99.5 679.4 99.5ZM713.6 92.8L696.9 92.8L696.9 87.1L711.5 64.1L720.5 64.1L720.5 87.0L724.9 87.0L724.9 92.8L720.5 92.8L720.5 99L713.6 99L713.6 92.8ZM704.1 87.0L713.8 87.0L713.8 72.0L713.5 72.0L704.1 86.7L704.1 87.0ZM738.6 99L731.2 99L745.7 70.2L745.7 70.0L728.8 70.0L728.8 64.1L753.2 64.1L753.2 70.1L738.6 99Z "/></g><mask id="satori_om-id-1-2-1"><rect x="665" y="131" width="70" height="17" fill="#fff" mask="url(#satori_om-id)"/></mask><g mask="url(#satori_om-id)" clip-path="url(#satori_cp-id)"><path fill="#B4B4B4" d="M670.4 145.1L670.4 145.1Q669.0 145.1 667.9 144.5Q666.9 143.9 666.3 142.7Q665.6 141.6 665.6 139.9L665.6 139.9Q665.6 138.3 666.3 137.1Q666.9 135.9 668.0 135.3Q669.0 134.7 670.4 134.7L670.4 134.7Q671.2 134.7 672.0 134.9Q672.7 135.2 673.3 135.6Q673.9 136.1 674.3 136.8Q674.6 137.4 674.8 138.3L674.8 138.3L672.6 138.3Q672.6 137.9 672.4 137.6Q672.2 137.2 671.9 137.0Q671.6 136.8 671.2 136.6Q670.9 136.5 670.4 136.5L670.4 136.5Q669.6 136.5 669.0 136.9Q668.4 137.3 668.1 138.1Q667.8 138.8 667.8 139.9L667.8 139.9Q667.8 141.0 668.1 141.8Q668.4 142.5 669.0 142.9Q669.6 143.3 670.4 143.3L670.4 143.3Q670.8 143.3 671.2 143.2Q671.6 143.0 671.9 142.8Q672.2 142.6 672.4 142.3Q672.6 141.9 672.6 141.5L672.6 141.5L674.8 141.5Q674.7 142.2 674.3 142.9Q674.0 143.5 673.4 144.0Q672.9 144.5 672.1 144.8Q671.3 145.1 670.4 145.1ZM680.8 145.1L680.8 145.1Q679.4 145.1 678.3 144.5Q677.3 143.9 676.6 142.7Q676.0 141.6 676.0 139.9L676.0 139.9Q676.0 138.3 676.6 137.1Q677.3 135.9 678.3 135.3Q679.4 134.7 680.8 134.7L680.8 134.7Q682.1 134.7 683.2 135.3Q684.3 135.9 684.9 137.1Q685.5 138.3 685.5 139.9L685.5 139.9Q685.5 141.6 684.9 142.7Q684.3 143.9 683.2 144.5Q682.1 145.1 680.8 145.1ZM680.8 143.3L680.8 143.3Q681.5 143.3 682.1 142.9Q682.7 142.5 683.1 141.8Q683.4 141.0 683.4 139.9L683.4 139.9Q683.4 138.8 683.1 138.1Q682.7 137.3 682.1 136.9Q681.5 136.5 680.8 136.5L680.8 136.5Q680.0 136.5 679.4 136.9Q678.8 137.3 678.4 138.1Q678.1 138.8 678.1 139.9L678.1 139.9Q678.1 141.0 678.4 141.8Q678.8 142.5 679.4 142.9Q680.0 143.3 680.8 143.3ZM689.1 145L687.1 145L687.1 134.8L690.3 134.8L691.9 139.5Q692.0 139.8 692.2 140.3Q692.3 140.9 692.4 141.5L692.4 141.5Q692.6 142.0 692.7 142.6L692.7 142.6Q692.8 142.1 692.9 141.5L692.9 141.5Q693.1 140.9 693.2 140.3Q693.3 139.8 693.4 139.5L693.4 139.5L695.1 134.8L698.3 134.8L698.3 145L696.2 145L696.2 140.2Q696.2 139.9 696.2 139.4Q696.2 138.9 696.2 138.3Q696.2 137.7 696.2 137.1L696.2 137.1Q696.2 136.9 696.3 136.6L696.3 136.6Q696.2 136.9 696.1 137.2L696.1 137.2Q695.9 137.8 695.8 138.4Q695.6 138.9 695.5 139.4Q695.3 139.9 695.2 140.2L695.2 140.2L693.5 145L691.8 145L690.1 140.2Q690.0 139.9 689.8 139.4Q689.7 139.0 689.5 138.4Q689.4 137.8 689.2 137.2L689.2 137.2Q689.1 136.9 689.1 136.7L689.1 136.7Q689.1 136.9 689.1 137.1L689.1 137.1Q689.1 137.7 689.1 138.3Q689.1 138.8 689.1 139.4Q689.1 139.9 689.1 140.2L689.1 140.2L689.1 145ZM702.2 145L700.1 145L700.1 134.8L703.3 134.8L705.0 139.5Q705.1 139.8 705.2 140.3Q705.3 140.9 705.5 141.5L705.5 141.5Q705.6 142.0 705.7 142.6L705.7 142.6Q705.8 142.1 706.0 141.5L706.0 141.5Q706.1 140.9 706.2 140.3Q706.4 139.8 706.5 139.5L706.5 139.5L708.1 134.8L711.3 134.8L711.3 145L709.2 145L709.2 140.2Q709.2 139.9 709.2 139.4Q709.2 138.9 709.3 138.3Q709.3 137.7 709.3 137.1L709.3 137.1Q709.3 136.9 709.3 136.6L709.3 136.6Q709.2 136.9 709.1 137.2L709.1 137.2Q709.0 137.8 708.8 138.4Q708.7 138.9 708.5 139.4Q708.4 139.9 708.3 140.2L708.3 140.2L706.6 145L704.8 145L703.1 140.2Q703.0 139.9 702.9 139.4Q702.7 139.0 702.6 138.4Q702.4 137.8 702.2 137.2L702.2 137.2Q702.2 136.9 702.1 136.7L702.1 136.7Q702.1 136.9 702.1 137.1L702.1 137.1Q702.1 137.7 702.1 138.3Q702.2 138.8 702.2 139.4Q702.2 139.9 702.2 140.2L702.2 140.2L702.2 145ZM713.2 134.8L715.2 134.8L715.2 145L713.2 145L713.2 134.8ZM719.8 136.5L716.7 136.5L716.7 134.8L725.0 134.8L725.0 136.5L721.9 136.5L721.9 145L719.8 145L719.8 136.5ZM730.2 145.2L730.2 145.2Q728.9 145.2 728.0 144.8Q727.1 144.4 726.6 143.7Q726.1 142.9 726.1 141.8L726.1 141.8L728.1 141.8Q728.2 142.4 728.4 142.7Q728.7 143.0 729.1 143.2Q729.6 143.4 730.1 143.4L730.1 143.4Q730.7 143.4 731.1 143.2Q731.5 143.1 731.8 142.8Q732.0 142.5 732.0 142.1L732.0 142.1Q732.0 141.7 731.8 141.5Q731.6 141.3 731.2 141.1Q730.8 140.9 730.2 140.8L730.2 140.8L729.1 140.5Q727.8 140.2 727.1 139.5Q726.4 138.9 726.4 137.7L726.4 137.7Q726.4 136.8 726.9 136.1Q727.4 135.4 728.2 135.1Q729.1 134.7 730.2 134.7L730.2 134.7Q731.3 134.7 732.2 135.1Q733.0 135.5 733.5 136.1Q733.9 136.8 734.0 137.7L734.0 137.7L731.9 137.7Q731.9 137.1 731.4 136.8Q730.9 136.4 730.2 136.4L730.2 136.4Q729.6 136.4 729.3 136.6Q728.9 136.7 728.7 137.0Q728.5 137.3 728.5 137.6L728.5 137.6Q728.5 138.0 728.7 138.2Q729.0 138.5 729.3 138.6Q729.7 138.8 730.1 138.9L730.1 138.9L731.0 139.1Q731.7 139.3 732.2 139.5Q732.8 139.8 733.2 140.1Q733.6 140.5 733.9 141.0Q734.1 141.5 734.1 142.1L734.1 142.1Q734.1 143.0 733.6 143.7Q733.2 144.4 732.3 144.8Q731.4 145.2 730.2 145.2Z "/></g></svg>