<!-- Generated by readme-aura https://github.com/collectioneur/readme-aura -->
<svg width="860" height="200" viewBox="0 0 860 200" xmlns="http://www.w3.org/2000/svg"><defs><pattern id="satori_pattern_id_0" x="0" y="0" width="1" height="1" patternUnits="objectBoundingBox"><linearGradient id="satori_biid_0" x1="0" y1="0" x2="1" y2="0" spreadMethod="pad"><stop offset="0%" stop-color="rgba(255,255,255,0.25)"/><stop offset="100%" stop-color="rgba(255,255,255,0.05)"/></linearGradient><rect x="0" y="0" width="860" height="200" fill="url(#satori_biid_0)"/></pattern></defs><mask id="satori_om-id"><rect x="0" y="0" width="860" height="200" fill="#fff"/></mask><path x="0" y="0" width="860" height="200" fill="url(#satori_pattern_id_0)" d="M20,0 h820 a20,20 0 0 1 20,20 v160 a20,20 0 0 1 -20,20 h-820 a20,20 0 0 1 -20,-20 v-160 a20,20 0 0 1 20,-20"/><mask id="satori_om-id-0"><rect x="2" y="2" width="856" height="196" fill="#fff"/></mask><rect x="2" y="2" width="856" height="196" fill="#161616"/><mask id="satori_om-id-0-0"><rect x="17" y="17" width="160" height="160" fill="#fff"/></mask><path x="17" y="17" width="160" height="160" fill="#FD6801" d="M27,17 h140 a10,10 0 0 1 10,10 v140 a10,10 0 0 1 -10,10 h-140 a10,10 0 0 1 -10,-10 v-140 a10,10 0 0 1 10,-10"/><mask id="satori_om-id-0-1"><rect x="207" y="17" width="640" height="160" fill="#fff"/></mask><path x="207" y="17" width="640" height="160" fill="#000000" d="M217,17 h620 a10,10 0 0 1 10,10 v140 a10,10 0 0 1 -10,10 h-620 a10,10 0 0 1 -10,-10 v-140 a10,10 0 0 1 10,-10"/><mask id="satori_om-id-0-1-0"><rect x="207" y="17" width="355" height="160" fill="#fff"/></mask><mask id="satori_om-id-0-1-0-0"><rect x="241" y="42" width="287" height="39" fill="#fff"/></mask><g  ><path fill="#FFFFFF" d="M253.4 73.3L253.4 73.3Q250.2 73.3 247.7 71.9Q245.2 70.4 243.9 67.7Q242.5 65.1 242.5 61.4L242.5 61.4Q242.5 57.6 243.9 54.9Q245.3 52.3 247.8 50.8Q250.3 49.4 253.3 49.4L253.3 49.4Q255.3 49.4 257.0 50.0Q258.7 50.5 260.0 51.6Q261.3 52.6 262.1 54.1Q263.0 55.5 263.2 57.2L263.2 57.2L258.4 57.2Q258.1 56.4 257.7 55.7Q257.3 55.1 256.6 54.6Q256.0 54.1 255.2 53.9Q254.4 53.6 253.4 53.6L253.4 53.6Q251.6 53.6 250.2 54.5Q248.8 55.4 248.1 57.2Q247.3 58.9 247.3 61.3Q247.3 63.8 248.1 65.5Q248.8 67.3 250.2 68.2Q251.6 69.1 253.5 69.1L253.5 69.1Q255.1 69.1 256.3 68.5Q257.5 67.9 258.2 66.7L258.2 66.7Q258.8 65.6 258.8 64.2L258.8 64.2L253.8 64.2L253.8 60.6L263.5 60.6L263.5 63.5Q263.5 66.6 262.2 68.8Q260.9 71.0 258.6 72.1Q256.3 73.3 253.4 73.3ZM271.9 73.3L271.9 73.3Q270.2 73.3 268.9 72.8Q267.6 72.2 266.8 71.0Q266.1 69.8 266.1 68.1L266.1 68.1Q266.1 66.7 266.6 65.7Q267.2 64.7 268.1 64.1Q269.0 63.5 270.2 63.2Q271.4 62.9 272.7 62.8L272.7 62.8Q274.2 62.6 275.1 62.5Q276.0 62.3 276.5 62.0Q276.9 61.8 276.9 61.2L276.9 61.2L276.9 61.1Q276.9 60.4 276.6 59.8Q276.3 59.3 275.7 59.1Q275.0 58.8 274.2 58.8L274.2 58.8Q273.3 58.8 272.6 59.1Q271.9 59.3 271.5 59.8Q271.1 60.2 270.9 60.8L270.9 60.8L266.6 60.1Q267.0 58.6 268.1 57.5Q269.1 56.4 270.7 55.9Q272.2 55.3 274.2 55.3L274.2 55.3Q275.6 55.3 276.9 55.6Q278.3 56.0 279.3 56.7Q280.4 57.4 281.0 58.5Q281.6 59.7 281.6 61.2L281.6 61.2L281.6 73L277.2 73L277.2 70.6L277 70.6Q276.6 71.4 275.9 72.0Q275.2 72.6 274.2 73.0Q273.2 73.3 271.9 73.3ZM273.2 70.0L273.2 70.0Q274.3 70.0 275.2 69.6Q276 69.2 276.5 68.4Q276.9 67.7 276.9 66.8L276.9 66.8L276.9 64.9Q276.7 65.0 276.3 65.1Q275.9 65.3 275.4 65.4Q274.9 65.5 274.4 65.5Q273.9 65.6 273.5 65.7L273.5 65.7Q272.6 65.8 272.0 66.1Q271.3 66.3 270.9 66.8Q270.6 67.3 270.6 68.0L270.6 68.0Q270.6 68.7 270.9 69.1Q271.3 69.6 271.9 69.8Q272.5 70.0 273.2 70.0ZM295.4 73.3L295.4 73.3Q294.0 73.3 293.0 72.8Q292.0 72.3 291.4 71.6Q290.8 70.9 290.4 70.2L290.4 70.2L290.2 70.2L290.2 73L285.6 73L285.6 49.7L290.3 49.7L290.3 58.5L290.4 58.5Q290.8 57.8 291.4 57.0Q292.0 56.3 292.9 55.8Q293.9 55.3 295.4 55.3L295.4 55.3Q297.3 55.3 299.0 56.3Q300.6 57.3 301.5 59.3Q302.5 61.3 302.5 64.3L302.5 64.3Q302.5 67.2 301.5 69.2Q300.6 71.2 299 72.3Q297.4 73.3 295.4 73.3ZM293.9 69.5L293.9 69.5Q295.2 69.5 296.0 68.9Q296.8 68.2 297.3 67Q297.7 65.8 297.7 64.3L297.7 64.3Q297.7 62.8 297.3 61.6Q296.8 60.4 296 59.7Q295.2 59.1 293.9 59.1L293.9 59.1Q292.7 59.1 291.9 59.7Q291.0 60.4 290.6 61.5Q290.2 62.7 290.2 64.3L290.2 64.3Q290.2 65.9 290.6 67.0Q291.1 68.2 291.9 68.9Q292.8 69.5 293.9 69.5ZM310.5 73L305.8 73L305.8 55.5L310.3 55.5L310.3 58.6L310.5 58.6Q311.0 57.0 312.1 56.1Q313.2 55.3 314.7 55.3L314.7 55.3Q315.1 55.3 315.5 55.3Q315.9 55.4 316.2 55.5L316.2 55.5L316.2 59.6Q315.9 59.5 315.3 59.5Q314.7 59.4 314.2 59.4L314.2 59.4Q313.1 59.4 312.3 59.9Q311.4 60.3 310.9 61.1Q310.5 62.0 310.5 63.1L310.5 63.1L310.5 73ZM323.5 73L318.8 73L318.8 55.5L323.5 55.5L323.5 73ZM321.1 53.3L321.1 53.3Q320.1 53.3 319.3 52.5Q318.6 51.8 318.6 50.8L318.6 50.8Q318.6 49.8 319.3 49.1Q320.1 48.4 321.1 48.4L321.1 48.4Q322.2 48.4 323.0 49.1Q323.7 49.8 323.7 50.8L323.7 50.8Q323.7 51.8 323.0 52.5Q322.2 53.3 321.1 53.3ZM335.4 73.3L335.4 73.3Q332.7 73.3 330.8 72.3Q328.8 71.2 327.8 69.1Q326.7 67.1 326.7 64.4L326.7 64.4Q326.7 61.7 327.8 59.6Q328.8 57.6 330.7 56.5Q332.6 55.3 335.1 55.3L335.1 55.3Q336.8 55.3 338.3 55.9Q339.8 56.4 340.9 57.5Q342.1 58.6 342.7 60.3Q343.3 61.9 343.3 64.2L343.3 64.2L343.3 65.5L331.4 65.5Q331.4 66.8 331.9 67.8L331.9 67.8Q332.4 68.8 333.3 69.3Q334.2 69.8 335.4 69.8L335.4 69.8Q336.3 69.8 336.9 69.6Q337.6 69.3 338.1 68.9Q338.6 68.4 338.8 67.8L338.8 67.8L343.1 68.5Q342.6 70.0 341.6 71.1Q340.5 72.2 339.0 72.8Q337.4 73.3 335.4 73.3ZM331.4 62.5L331.4 62.5L338.8 62.5Q338.7 61.7 338.4 61.0L338.4 61.0Q338.0 60.0 337.2 59.4Q336.4 58.8 335.2 58.8L335.2 58.8Q334.0 58.8 333.1 59.4Q332.3 60.0 331.8 60.9L331.8 60.9Q331.5 61.7 331.4 62.5ZM346.5 49.7L351.2 49.7L351.2 73L346.5 73L346.5 49.7Z M373.1 73.3L373.1 73.3Q370.0 73.3 367.5 71.9Q365.1 70.5 363.7 67.8Q362.3 65.2 362.3 61.4L362.3 61.4Q362.3 57.6 363.7 54.9Q365.1 52.2 367.5 50.8Q370 49.4 373.1 49.4L373.1 49.4Q375.0 49.4 376.8 50.0Q378.5 50.5 379.8 51.6Q381.1 52.6 382.0 54.2Q382.8 55.7 383.1 57.7L383.1 57.7L378.3 57.7Q378.1 56.7 377.6 56.0Q377.2 55.2 376.5 54.7Q375.9 54.2 375.0 53.9Q374.2 53.6 373.2 53.6L373.2 53.6Q371.3 53.6 370.0 54.5Q368.6 55.5 367.9 57.2Q367.1 58.9 367.1 61.4L367.1 61.4Q367.1 63.9 367.9 65.6Q368.6 67.3 370.0 68.2Q371.3 69.1 373.1 69.1L373.1 69.1Q374.1 69.1 375.0 68.8Q375.8 68.5 376.5 68.0Q377.2 67.5 377.6 66.7Q378.1 66.0 378.3 65.0L378.3 65.0L383.1 65.0Q382.9 66.7 382.1 68.1Q381.4 69.6 380.1 70.8Q378.8 72.0 377.0 72.6Q375.3 73.3 373.1 73.3ZM391.3 73.3L391.3 73.3Q389.7 73.3 388.4 72.8Q387.0 72.2 386.3 71.0Q385.5 69.8 385.5 68.1L385.5 68.1Q385.5 66.7 386.1 65.7Q386.6 64.7 387.5 64.1Q388.5 63.5 389.6 63.2Q390.8 62.9 392.1 62.8L392.1 62.8Q393.6 62.6 394.6 62.5Q395.5 62.3 395.9 62.0Q396.3 61.8 396.3 61.2L396.3 61.2L396.3 61.1Q396.3 60.4 396.0 59.8Q395.7 59.3 395.1 59.1Q394.5 58.8 393.6 58.8L393.6 58.8Q392.7 58.8 392.0 59.1Q391.4 59.3 390.9 59.8Q390.5 60.2 390.3 60.8L390.3 60.8L386.0 60.1Q386.5 58.6 387.5 57.5Q388.6 56.4 390.1 55.9Q391.7 55.3 393.6 55.3L393.6 55.3Q395.0 55.3 396.4 55.6Q397.7 56.0 398.7 56.7Q399.8 57.4 400.4 58.5Q401.0 59.7 401.0 61.2L401.0 61.2L401.0 73L396.6 73L396.6 70.6L396.4 70.6Q396.0 71.4 395.3 72.0Q394.6 72.6 393.6 73.0Q392.6 73.3 391.3 73.3ZM392.7 70.0L392.7 70.0Q393.8 70.0 394.6 69.6Q395.4 69.2 395.9 68.4Q396.4 67.7 396.4 66.8L396.4 66.8L396.4 64.9Q396.2 65.0 395.8 65.1Q395.3 65.3 394.8 65.4Q394.3 65.5 393.8 65.5Q393.3 65.6 392.9 65.7L392.9 65.7Q392.0 65.8 391.4 66.1Q390.7 66.3 390.4 66.8Q390.0 67.3 390.0 68.0L390.0 68.0Q390.0 68.7 390.4 69.1Q390.7 69.6 391.3 69.8Q391.9 70.0 392.7 70.0ZM412.0 73.3L412.0 73.3Q409.9 73.3 408.2 72.7Q406.6 72.1 405.6 71.0Q404.5 69.8 404.3 68.2L404.3 68.2L408.6 67.5Q409.0 68.7 409.8 69.3Q410.7 69.9 412.1 69.9L412.1 69.9Q413.5 69.9 414.2 69.4Q415 68.9 415 68.1L415 68.1Q415 67.4 414.4 67.0Q413.9 66.5 412.8 66.3L412.8 66.3L409.7 65.7Q407.2 65.2 406.0 63.9Q404.7 62.7 404.7 60.7L404.7 60.7Q404.7 59.0 405.6 57.8Q406.5 56.6 408.2 56.0Q409.8 55.3 412.0 55.3L412.0 55.3Q414.1 55.3 415.6 55.9Q417.1 56.5 418.1 57.5Q419.0 58.5 419.3 60.0L419.3 60.0L415.2 60.7Q414.9 59.8 414.1 59.2Q413.4 58.7 412.1 58.7L412.1 58.7Q411.0 58.7 410.2 59.2Q409.4 59.6 409.4 60.5L409.4 60.5Q409.4 61.1 409.9 61.6Q410.4 62.0 411.6 62.3L411.6 62.3L414.8 62.9Q417.3 63.4 418.5 64.6Q419.8 65.7 419.8 67.6L419.8 67.6Q419.8 69.3 418.8 70.6Q417.8 71.9 416.0 72.6Q414.3 73.3 412.0 73.3ZM429.9 73.3L429.9 73.3Q427.8 73.3 426.2 72.7Q424.5 72.1 423.5 71.0Q422.5 69.8 422.2 68.2L422.2 68.2L426.5 67.5Q426.9 68.7 427.7 69.3Q428.6 69.9 430.0 69.9L430.0 69.9Q431.4 69.9 432.1 69.4Q432.9 68.9 432.9 68.1L432.9 68.1Q432.9 67.4 432.4 67.0Q431.8 66.5 430.7 66.3L430.7 66.3L427.7 65.7Q425.1 65.2 423.9 63.9Q422.6 62.7 422.6 60.7L422.6 60.7Q422.6 59.0 423.5 57.8Q424.5 56.6 426.1 56.0Q427.8 55.3 430.0 55.3L430.0 55.3Q432.0 55.3 433.5 55.9Q435.1 56.5 436 57.5Q436.9 58.5 437.3 60.0L437.3 60.0L433.1 60.7Q432.8 59.8 432.1 59.2Q431.3 58.7 430.0 58.7L430.0 58.7Q428.9 58.7 428.1 59.2Q427.3 59.6 427.3 60.5L427.3 60.5Q427.3 61.1 427.8 61.6Q428.3 62.0 429.6 62.3L429.6 62.3L432.7 62.9Q435.2 63.4 436.5 64.6Q437.7 65.7 437.7 67.6L437.7 67.6Q437.7 69.3 436.7 70.6Q435.7 71.9 433.9 72.6Q432.2 73.3 429.9 73.3ZM445.6 73L440.9 73L440.9 55.5L445.6 55.5L445.6 73ZM443.2 53.3L443.2 53.3Q442.2 53.3 441.4 52.5Q440.7 51.8 440.7 50.8L440.7 50.8Q440.7 49.8 441.4 49.1Q442.2 48.4 443.2 48.4L443.2 48.4Q444.3 48.4 445.0 49.1Q445.8 49.8 445.8 50.8L445.8 50.8Q445.8 51.8 445.0 52.5Q444.3 53.3 443.2 53.3ZM457.4 73.3L457.4 73.3Q454.7 73.3 452.8 72.2Q450.9 71.1 449.9 69.1Q448.8 67.0 448.8 64.3L448.8 64.3Q448.8 61.6 449.9 59.6Q450.9 57.6 452.8 56.4Q454.7 55.3 457.4 55.3L457.4 55.3Q460 55.3 461.9 56.4Q463.8 57.6 464.9 59.6Q465.9 61.6 465.9 64.3L465.9 64.3Q465.9 67.0 464.9 69.1Q463.8 71.1 461.9 72.2Q460 73.3 457.4 73.3ZM457.4 69.7L457.4 69.7Q458.6 69.7 459.5 69.0Q460.3 68.3 460.7 67.1Q461.1 65.8 461.1 64.3L461.1 64.3Q461.1 62.8 460.7 61.6Q460.3 60.4 459.5 59.7Q458.6 59 457.4 59L457.4 59Q456.1 59 455.3 59.7Q454.4 60.4 454.0 61.6Q453.6 62.8 453.6 64.3L453.6 64.3Q453.6 65.8 454.0 67.1Q454.4 68.3 455.3 69.0Q456.1 69.7 457.4 69.7Z "/></g><mask id="satori_om-id-0-1-0-1"><rect x="241" y="91" width="287" height="19" fill="#fff"/></mask><g  ><path fill="#FFFFFF" d="M246.3 107.2L246.3 107.2Q244.9 107.2 243.9 106.7Q242.9 106.3 242.3 105.5Q241.7 104.6 241.7 103.4L241.7 103.4L244.0 103.4Q244.0 104.0 244.3 104.4Q244.6 104.8 245.1 105.0Q245.7 105.2 246.3 105.2L246.3 105.2Q246.9 105.2 247.4 105.0Q247.9 104.8 248.1 104.5Q248.4 104.1 248.4 103.7L248.4 103.7Q248.4 103.3 248.2 103.0Q247.9 102.7 247.5 102.5Q247.0 102.3 246.4 102.2L246.4 102.2L245.1 101.9Q243.6 101.5 242.8 100.7Q242.0 100.0 242.0 98.7L242.0 98.7Q242.0 97.7 242.5 96.9Q243.1 96.1 244.1 95.6Q245.1 95.2 246.4 95.2L246.4 95.2Q247.6 95.2 248.6 95.6Q249.6 96.1 250.1 96.9Q250.6 97.7 250.7 98.7L250.7 98.7L248.4 98.7Q248.3 98.0 247.8 97.6Q247.2 97.2 246.3 97.2L246.3 97.2Q245.7 97.2 245.3 97.4Q244.9 97.6 244.6 97.9Q244.4 98.2 244.4 98.6L244.4 98.6Q244.4 99.0 244.7 99.3Q244.9 99.6 245.4 99.7Q245.8 99.9 246.3 100.0L246.3 100.0L247.3 100.3Q248.1 100.4 248.7 100.7Q249.3 101.0 249.8 101.4Q250.3 101.8 250.6 102.4Q250.8 103.0 250.8 103.7L250.8 103.7Q250.8 104.7 250.3 105.5Q249.8 106.3 248.7 106.7Q247.7 107.2 246.3 107.2ZM256.4 107.2L256.4 107.2Q255.1 107.2 254.1 106.6Q253.1 106.0 252.6 105.0Q252.1 104.0 252.1 102.7L252.1 102.7Q252.1 101.3 252.6 100.3Q253.1 99.3 254.1 98.7Q255.1 98.2 256.4 98.2L256.4 98.2Q257.7 98.2 258.7 98.7Q259.6 99.3 260.1 100.3Q260.7 101.3 260.7 102.7L260.7 102.7Q260.7 104.0 260.1 105.0Q259.6 106.0 258.7 106.6Q257.7 107.2 256.4 107.2ZM256.4 105.3L256.4 105.3Q257.0 105.3 257.4 105.0Q257.9 104.6 258.1 104.0Q258.3 103.4 258.3 102.7L258.3 102.7Q258.3 101.9 258.1 101.3Q257.9 100.7 257.4 100.3Q257.0 100 256.4 100L256.4 100Q255.8 100 255.3 100.3Q254.9 100.7 254.7 101.3Q254.5 101.9 254.5 102.7L254.5 102.7Q254.5 103.4 254.7 104.0Q254.9 104.6 255.3 105.0Q255.8 105.3 256.4 105.3ZM265.3 98.3L267.1 98.3L267.1 100.1L265.3 100.1L265.3 107L263.0 107L263.0 100.1L261.4 100.1L261.4 98.3L263.0 98.3L263.0 97.6Q263.0 96.7 263.4 96.0Q263.7 95.4 264.4 95.1Q265.0 94.8 265.8 94.8L265.8 94.8Q266.4 94.8 266.8 94.9Q267.3 95.0 267.5 95.1L267.5 95.1L267.1 96.8Q266.9 96.8 266.7 96.7Q266.5 96.7 266.3 96.7L266.3 96.7Q265.8 96.7 265.5 97.0Q265.3 97.2 265.3 97.7L265.3 97.7L265.3 98.3ZM271.4 98.3L273.0 98.3L273.0 100.1L271.4 100.1L271.4 104.4Q271.4 104.9 271.5 105.1Q271.7 105.3 272.2 105.3L272.2 105.3Q272.3 105.3 272.5 105.2Q272.8 105.2 272.9 105.2L272.9 105.2L273.2 106.9Q272.8 107.0 272.5 107.1Q272.1 107.1 271.7 107.1L271.7 107.1Q270.4 107.1 269.7 106.5Q269.0 105.8 269.0 104.6L269.0 104.6L269.0 100.1L267.8 100.1L267.8 98.3L269.0 98.3L269.0 96.2L271.4 96.2L271.4 98.3ZM278.7 107L276.3 107L273.8 98.3L276.2 98.3L277.0 101.5Q277.2 102.4 277.4 103.4L277.4 103.4Q277.6 104.1 277.7 104.9L277.7 104.9Q277.8 104.1 278.0 103.4L278.0 103.4Q278.2 102.4 278.4 101.5L278.4 101.5L279.2 98.3L281.4 98.3L282.2 101.5Q282.4 102.4 282.6 103.4L282.6 103.4Q282.8 104.1 282.9 104.9L282.9 104.9Q283.1 104.1 283.2 103.4L283.2 103.4Q283.4 102.4 283.6 101.5L283.6 101.5L284.4 98.3L286.9 98.3L284.3 107L281.9 107L280.9 103.6Q280.8 103.1 280.6 102.5Q280.5 101.9 280.4 101.3L280.4 101.3Q280.3 101.1 280.3 101.0L280.3 101.0Q280.3 101.1 280.3 101.3L280.3 101.3Q280.1 101.9 280.0 102.5Q279.8 103.1 279.7 103.6L279.7 103.6L278.7 107ZM290.6 107.2L290.6 107.2Q289.7 107.2 289.1 106.9Q288.4 106.6 288.0 106.0Q287.6 105.4 287.6 104.6L287.6 104.6Q287.6 103.8 287.9 103.3Q288.2 102.8 288.7 102.5Q289.1 102.3 289.7 102.1Q290.3 101.9 290.9 101.9L290.9 101.9Q291.7 101.8 292.2 101.7Q292.6 101.7 292.8 101.5Q293.1 101.4 293.1 101.1L293.1 101.1L293.1 101.1Q293.1 100.7 292.9 100.4Q292.8 100.2 292.4 100.0Q292.1 99.9 291.7 99.9L291.7 99.9Q291.2 99.9 290.9 100.0Q290.6 100.2 290.4 100.4Q290.1 100.6 290.0 100.9L290.0 100.9L287.9 100.5Q288.1 99.8 288.6 99.3Q289.2 98.7 289.9 98.4Q290.7 98.2 291.7 98.2L291.7 98.2Q292.4 98.2 293.1 98.3Q293.7 98.5 294.3 98.8Q294.8 99.2 295.1 99.8Q295.4 100.3 295.4 101.1L295.4 101.1L295.4 107L293.2 107L293.2 105.8L293.1 105.8Q292.9 106.2 292.5 106.5Q292.2 106.8 291.7 107.0Q291.2 107.2 290.6 107.2ZM291.2 105.5L291.2 105.5Q291.8 105.5 292.2 105.3Q292.6 105.1 292.8 104.7Q293.1 104.3 293.1 103.9L293.1 103.9L293.1 102.9Q293.0 103.0 292.8 103.1Q292.6 103.1 292.3 103.2Q292.0 103.2 291.8 103.3Q291.5 103.3 291.3 103.3L291.3 103.3Q290.9 103.4 290.6 103.5Q290.3 103.7 290.1 103.9Q289.9 104.1 289.9 104.5L289.9 104.5Q289.9 104.8 290.1 105.1Q290.2 105.3 290.5 105.4Q290.8 105.5 291.2 105.5ZM299.8 107L297.4 107L297.4 98.3L299.7 98.3L299.7 99.8L299.8 99.8Q300.0 99.0 300.6 98.6Q301.1 98.1 301.9 98.1L301.9 98.1Q302.1 98.1 302.3 98.2Q302.5 98.2 302.6 98.2L302.6 98.2L302.6 100.3Q302.5 100.3 302.2 100.2Q301.9 100.2 301.6 100.2L301.6 100.2Q301.1 100.2 300.7 100.4Q300.2 100.7 300.0 101.1Q299.8 101.5 299.8 102.0L299.8 102.0L299.8 107ZM307.9 107.2L307.9 107.2Q306.5 107.2 305.6 106.6Q304.6 106.1 304.1 105.1Q303.6 104.1 303.6 102.7L303.6 102.7Q303.6 101.3 304.1 100.3Q304.6 99.3 305.5 98.7Q306.5 98.2 307.8 98.2L307.8 98.2Q308.6 98.2 309.4 98.4Q310.1 98.7 310.7 99.3Q311.2 99.8 311.5 100.6Q311.9 101.5 311.9 102.6L311.9 102.6L311.9 103.2L305.9 103.2Q305.9 103.9 306.1 104.4L306.1 104.4Q306.4 104.9 306.8 105.1Q307.3 105.4 307.9 105.4L307.9 105.4Q308.3 105.4 308.7 105.3Q309.0 105.2 309.2 104.9Q309.5 104.7 309.6 104.4L309.6 104.4L311.7 104.8Q311.5 105.5 311.0 106.0Q310.5 106.6 309.7 106.9Q308.9 107.2 307.9 107.2ZM305.9 101.8L305.9 101.8L309.6 101.8Q309.5 101.3 309.4 101.0L309.4 101.0Q309.2 100.5 308.8 100.2Q308.4 99.9 307.8 99.9L307.8 99.9Q307.2 99.9 306.7 100.2Q306.3 100.5 306.1 101.0L306.1 101.0Q305.9 101.3 305.9 101.8Z M325.1 107L317.3 107L317.3 95.4L325.1 95.4L325.1 97.3L319.7 97.3L319.7 100.1L324.7 100.1L324.7 102.1L319.7 102.1L319.7 105.0L325.1 105.0L325.1 107ZM329.3 101.9L329.3 101.9L329.3 107L327.0 107L327.0 98.3L329.2 98.3L329.2 100.1Q329.5 99.2 330.1 98.8L330.1 98.8Q330.8 98.2 331.9 98.2L331.9 98.2Q332.8 98.2 333.5 98.6Q334.2 98.9 334.6 99.7Q334.9 100.4 334.9 101.4L334.9 101.4L334.9 107L332.6 107L332.6 101.9Q332.6 101.0 332.2 100.6Q331.7 100.1 331 100.1L331 100.1Q330.5 100.1 330.1 100.3Q329.7 100.5 329.5 101.0Q329.3 101.4 329.3 101.9ZM340.8 110.5L340.8 110.5Q339.7 110.5 338.9 110.2Q338.1 109.9 337.6 109.4Q337.1 108.9 336.9 108.3L336.9 108.3L338.9 107.8Q339 108.0 339.2 108.2Q339.5 108.5 339.8 108.6Q340.2 108.8 340.8 108.8L340.8 108.8Q341.7 108.8 342.2 108.3Q342.7 107.9 342.7 107.1L342.7 107.1L342.7 105.5L342.5 105.5Q342.4 105.8 342.1 106.1Q341.8 106.5 341.3 106.7Q340.8 106.9 340.1 106.9L340.1 106.9Q339.1 106.9 338.3 106.4Q337.5 106.0 337.0 105.0Q336.6 104.1 336.6 102.6L336.6 102.6Q336.6 101.1 337.0 100.1Q337.5 99.2 338.3 98.7Q339.1 98.2 340.1 98.2L340.1 98.2Q340.9 98.2 341.4 98.4Q341.9 98.6 342.2 99.0Q342.5 99.4 342.6 99.7L342.6 99.7L342.7 99.7L342.7 98.3L345.0 98.3L345.0 106.9Q345.0 108.1 344.5 108.9Q343.9 109.7 343.0 110.1Q342.0 110.5 340.8 110.5ZM340.8 105.1L340.8 105.1Q341.4 105.1 341.9 104.8Q342.3 104.5 342.5 103.9Q342.7 103.4 342.7 102.6L342.7 102.6Q342.7 101.8 342.5 101.3Q342.3 100.7 341.9 100.4Q341.4 100.0 340.8 100.0L340.8 100.0Q340.2 100.0 339.8 100.4Q339.4 100.7 339.2 101.3Q339.0 101.9 339.0 102.6L339.0 102.6Q339.0 103.4 339.2 103.9Q339.4 104.5 339.8 104.8Q340.2 105.1 340.8 105.1ZM349.4 107L347.0 107L347.0 98.3L349.4 98.3L349.4 107ZM348.2 97.1L348.2 97.1Q347.7 97.1 347.3 96.8Q346.9 96.4 346.9 95.9L346.9 95.9Q346.9 95.4 347.3 95.1Q347.7 94.7 348.2 94.7L348.2 94.7Q348.7 94.7 349.1 95.1Q349.5 95.4 349.5 95.9L349.5 95.9Q349.5 96.4 349.1 96.8Q348.7 97.1 348.2 97.1ZM353.7 101.9L353.7 101.9L353.7 107L351.4 107L351.4 98.3L353.6 98.3L353.6 100.1Q353.9 99.2 354.5 98.8L354.5 98.8Q355.2 98.2 356.3 98.2L356.3 98.2Q357.2 98.2 357.9 98.6Q358.6 98.9 359.0 99.7Q359.3 100.4 359.3 101.4L359.3 101.4L359.3 107L357.0 107L357.0 101.9Q357.0 101.0 356.6 100.6Q356.1 100.1 355.4 100.1L355.4 100.1Q354.9 100.1 354.5 100.3Q354.1 100.5 353.9 101.0Q353.7 101.4 353.7 101.9ZM365.3 107.2L365.3 107.2Q363.9 107.2 363.0 106.6Q362 106.1 361.5 105.1Q361.0 104.1 361.0 102.7L361.0 102.7Q361.0 101.3 361.5 100.3Q362.0 99.3 362.9 98.7Q363.9 98.2 365.2 98.2L365.2 98.2Q366.0 98.2 366.8 98.4Q367.5 98.7 368.1 99.3Q368.6 99.8 368.9 100.6Q369.3 101.5 369.3 102.6L369.3 102.6L369.3 103.2L363.3 103.2Q363.3 103.9 363.5 104.4L363.5 104.4Q363.8 104.9 364.2 105.1Q364.7 105.4 365.3 105.4L365.3 105.4Q365.7 105.4 366.1 105.3Q366.4 105.2 366.6 104.9Q366.9 104.7 367 104.4L367 104.4L369.1 104.8Q368.9 105.5 368.4 106.0Q367.9 106.6 367.1 106.9Q366.3 107.2 365.3 107.2ZM363.3 101.8L363.3 101.8L367 101.8Q367.0 101.3 366.8 101.0L366.8 101.0Q366.6 100.5 366.2 100.2Q365.8 99.9 365.2 99.9L365.2 99.9Q364.6 99.9 364.1 100.2Q363.7 100.5 363.5 101.0L363.5 101.0Q363.3 101.3 363.3 101.8ZM374.8 107.2L374.8 107.2Q373.5 107.2 372.5 106.6Q371.5 106.1 371.0 105.1Q370.5 104.1 370.5 102.7L370.5 102.7Q370.5 101.3 371.0 100.3Q371.5 99.3 372.5 98.7Q373.4 98.2 374.7 98.2L374.7 98.2Q375.5 98.2 376.3 98.4Q377.0 98.7 377.6 99.3Q378.2 99.8 378.5 100.6Q378.8 101.5 378.8 102.6L378.8 102.6L378.8 103.2L372.8 103.2Q372.8 103.9 373.1 104.4L373.1 104.4Q373.3 104.9 373.8 105.1Q374.2 105.4 374.8 105.4L374.8 105.4Q375.3 105.4 375.6 105.3Q375.9 105.2 376.2 104.9Q376.4 104.7 376.5 104.4L376.5 104.4L378.7 104.8Q378.4 105.5 377.9 106.0Q377.4 106.6 376.6 106.9Q375.8 107.2 374.8 107.2ZM372.8 101.8L372.8 101.8L376.5 101.8Q376.5 101.3 376.3 101.0L376.3 101.0Q376.1 100.5 375.7 100.2Q375.3 99.9 374.7 99.9L374.7 99.9Q374.1 99.9 373.7 100.2Q373.3 100.5 373.0 101.0L373.0 101.0Q372.9 101.3 372.8 101.8ZM382.7 107L380.4 107L380.4 98.3L382.7 98.3L382.7 99.8L382.8 99.8Q383.0 99.0 383.6 98.6Q384.1 98.1 384.9 98.1L384.9 98.1Q385.0 98.1 385.3 98.2Q385.5 98.2 385.6 98.2L385.6 98.2L385.6 100.3Q385.5 100.3 385.2 100.2Q384.9 100.2 384.6 100.2L384.6 100.2Q384.1 100.2 383.6 100.4Q383.2 100.7 383.0 101.1Q382.7 101.5 382.7 102.0L382.7 102.0L382.7 107ZM389.3 107L386.9 107L386.9 98.3L389.3 98.3L389.3 107ZM388.1 97.1L388.1 97.1Q387.5 97.1 387.2 96.8Q386.8 96.4 386.8 95.9L386.8 95.9Q386.8 95.4 387.2 95.1Q387.5 94.7 388.1 94.7L388.1 94.7Q388.6 94.7 389.0 95.1Q389.4 95.4 389.4 95.9L389.4 95.9Q389.4 96.4 389.0 96.8Q388.6 97.1 388.1 97.1ZM393.6 101.9L393.6 101.9L393.6 107L391.2 107L391.2 98.3L393.5 98.3L393.5 100.1Q393.8 99.2 394.4 98.8L394.4 98.8Q395.1 98.2 396.2 98.2L396.2 98.2Q397.1 98.2 397.8 98.6Q398.5 98.9 398.8 99.7Q399.2 100.4 399.2 101.4L399.2 101.4L399.2 107L396.9 107L396.9 101.9Q396.9 101.0 396.4 100.6Q396.0 100.1 395.3 100.1L395.3 100.1Q394.8 100.1 394.4 100.3Q394.0 100.5 393.8 101.0Q393.6 101.4 393.6 101.9ZM405.1 110.5L405.1 110.5Q404.0 110.5 403.2 110.2Q402.4 109.9 401.9 109.4Q401.4 108.9 401.2 108.3L401.2 108.3L403.2 107.8Q403.3 108.0 403.5 108.2Q403.7 108.5 404.1 108.6Q404.5 108.8 405.1 108.8L405.1 108.8Q406.0 108.8 406.5 108.3Q407.0 107.9 407.0 107.1L407.0 107.1L407.0 105.5L406.8 105.5Q406.7 105.8 406.4 106.1Q406.1 106.5 405.6 106.7Q405.1 106.9 404.4 106.9L404.4 106.9Q403.4 106.9 402.6 106.4Q401.8 106.0 401.3 105.0Q400.8 104.1 400.8 102.6L400.8 102.6Q400.8 101.1 401.3 100.1Q401.8 99.2 402.6 98.7Q403.4 98.2 404.4 98.2L404.4 98.2Q405.1 98.2 405.6 98.4Q406.1 98.6 406.4 99.0Q406.8 99.4 406.9 99.7L406.9 99.7L407.0 99.7L407.0 98.3L409.3 98.3L409.3 106.9Q409.3 108.1 408.8 108.9Q408.2 109.7 407.3 110.1Q406.3 110.5 405.1 110.5ZM405.1 105.1L405.1 105.1Q405.7 105.1 406.1 104.8Q406.6 104.5 406.8 103.9Q407 103.4 407 102.6L407 102.6Q407 101.8 406.8 101.3Q406.6 100.7 406.1 100.4Q405.7 100.0 405.1 100.0L405.1 100.0Q404.5 100.0 404.1 100.4Q403.7 100.7 403.5 101.3Q403.2 101.9 403.2 102.6L403.2 102.6Q403.2 103.4 403.5 103.9Q403.7 104.5 404.1 104.8Q404.5 105.1 405.1 105.1Z M418.6 107.2L418.6 107.2Q417.4 107.2 416.5 106.7Q415.7 106.3 415.2 105.6Q414.7 104.8 414.7 103.9L414.7 103.9Q414.7 103.2 415.0 102.7Q415.3 102.2 415.8 101.7L415.8 101.7Q416.3 101.3 416.9 100.9L416.9 100.9Q416.8 100.8 416.8 100.8L416.8 100.8Q416.3 100.2 416.0 99.6Q415.8 98.9 415.8 98.2L415.8 98.2Q415.8 97.3 416.1 96.7Q416.5 96.0 417.3 95.6Q418.0 95.2 418.9 95.2L418.9 95.2Q419.8 95.2 420.5 95.6Q421.2 96.0 421.5 96.6Q421.9 97.2 421.9 98.0L421.9 98.0Q421.9 98.5 421.7 99.0Q421.5 99.5 421.2 99.9Q420.8 100.3 420.4 100.6L420.4 100.6L419.7 101.1L421.6 103.4Q421.7 103.2 421.8 103.0L421.8 103.0Q422.1 102.2 422.1 101.4L422.1 101.4L424.1 101.4Q424.1 102.4 423.9 103.3Q423.6 104.1 423.2 104.8L423.2 104.8Q423.1 104.9 423.0 105.0L423.0 105.0L424.8 107L422.3 107L421.6 106.2Q421 106.7 420.2 106.9L420.2 106.9Q419.4 107.2 418.6 107.2ZM420.3 104.8L418.1 102.3L418.0 102.3Q417.5 102.7 417.3 103.0Q417.0 103.4 417.0 103.8L417.0 103.8Q417.0 104.3 417.2 104.6Q417.4 104.9 417.8 105.1Q418.2 105.3 418.7 105.3L418.7 105.3Q419.3 105.3 419.9 105L419.9 105Q420.1 104.9 420.3 104.8L420.3 104.8ZM418.5 99.8L418.5 99.8L419.1 99.4Q419.4 99.2 419.6 99.0Q419.8 98.8 419.9 98.6Q420.0 98.3 420.0 98.1L420.0 98.1Q420.0 97.7 419.7 97.4Q419.4 97.1 418.9 97.1L418.9 97.1Q418.6 97.1 418.3 97.2Q418.1 97.4 417.9 97.6Q417.8 97.9 417.8 98.2L417.8 98.2Q417.8 98.6 418.0 98.9Q418.2 99.3 418.5 99.7L418.5 99.7Q418.5 99.8 418.5 99.8Z M431.7 107L429.0 107L433 95.4L436.1 95.4L440.2 107L437.6 107L436.7 104.3L432.5 104.3L431.7 107ZM433.1 102.4L436.0 102.4L435.7 101.4Q435.4 100.3 435.0 99L435.0 99Q434.8 98.2 434.5 97.2L434.5 97.2Q434.3 98.2 434.1 99.0L434.1 99.0Q433.8 100.3 433.5 101.4L433.5 101.4L433.1 102.4ZM443.9 107L441.6 107L441.6 98.3L443.9 98.3L443.9 99.8L443.9 99.8Q444.2 99.0 444.8 98.6Q445.3 98.1 446.1 98.1L446.1 98.1Q446.2 98.1 446.4 98.2Q446.7 98.2 446.8 98.2L446.8 98.2L446.8 100.3Q446.7 100.3 446.4 100.2Q446.1 100.2 445.8 100.2L445.8 100.2Q445.3 100.2 444.8 100.4Q444.4 100.7 444.2 101.1Q443.9 101.5 443.9 102.0L443.9 102.0L443.9 107ZM452.0 107.2L452.0 107.2Q450.7 107.2 449.7 106.6Q448.8 106.0 448.3 105.0Q447.7 104.0 447.7 102.7L447.7 102.7Q447.7 101.3 448.3 100.3Q448.8 99.3 449.7 98.7Q450.7 98.2 452.0 98.2L452.0 98.2Q452.8 98.2 453.4 98.4Q454.1 98.6 454.6 98.9Q455.1 99.3 455.4 99.9Q455.8 100.4 455.9 101.1L455.9 101.1L453.7 101.5Q453.6 101.1 453.5 100.9Q453.3 100.6 453.1 100.4Q452.9 100.2 452.6 100.1Q452.4 100 452.0 100L452.0 100Q451.4 100 451.0 100.3Q450.6 100.7 450.3 101.3Q450.1 101.9 450.1 102.7L450.1 102.7Q450.1 103.4 450.3 104.0Q450.6 104.6 451.0 105.0Q451.4 105.3 452.0 105.3L452.0 105.3Q452.4 105.3 452.6 105.2Q452.9 105.1 453.1 104.9Q453.4 104.7 453.5 104.4Q453.7 104.2 453.7 103.8L453.7 103.8L455.9 104.2Q455.8 104.9 455.5 105.4Q455.1 106.0 454.6 106.4Q454.1 106.8 453.4 107.0Q452.8 107.2 452.0 107.2ZM459.9 101.9L459.9 101.9L459.9 107L457.5 107L457.5 95.4L459.8 95.4L459.8 99.9Q460.1 99.2 460.7 98.8L460.7 98.8Q461.4 98.2 462.5 98.2L462.5 98.2Q463.4 98.2 464.1 98.6Q464.7 98.9 465.1 99.7Q465.5 100.4 465.5 101.4L465.5 101.4L465.5 107L463.1 107L463.1 101.9Q463.1 101.0 462.7 100.6Q462.3 100.1 461.6 100.1L461.6 100.1Q461.1 100.1 460.7 100.3Q460.3 100.5 460.1 101.0Q459.9 101.4 459.9 101.9ZM469.8 107L467.5 107L467.5 98.3L469.8 98.3L469.8 107ZM468.6 97.1L468.6 97.1Q468.1 97.1 467.7 96.8Q467.4 96.4 467.4 95.9L467.4 95.9Q467.4 95.4 467.7 95.1Q468.1 94.7 468.6 94.7L468.6 94.7Q469.2 94.7 469.6 95.1Q469.9 95.4 469.9 95.9L469.9 95.9Q469.9 96.4 469.6 96.8Q469.2 97.1 468.6 97.1ZM474.5 98.3L476.1 98.3L476.1 100.1L474.5 100.1L474.5 104.4Q474.5 104.9 474.7 105.1Q474.9 105.3 475.3 105.3L475.3 105.3Q475.4 105.3 475.7 105.2Q475.9 105.2 476.1 105.2L476.1 105.2L476.4 106.9Q476 107.0 475.6 107.1Q475.2 107.1 474.9 107.1L474.9 107.1Q473.6 107.1 472.9 106.5Q472.2 105.8 472.2 104.6L472.2 104.6L472.2 100.1L471.0 100.1L471.0 98.3L472.2 98.3L472.2 96.2L474.5 96.2L474.5 98.3ZM481.6 107.2L481.6 107.2Q480.3 107.2 479.3 106.6Q478.3 106.1 477.8 105.1Q477.3 104.1 477.3 102.7L477.3 102.7Q477.3 101.3 477.8 100.3Q478.3 99.3 479.3 98.7Q480.2 98.2 481.5 98.2L481.5 98.2Q482.4 98.2 483.1 98.4Q483.8 98.7 484.4 99.3Q485.0 99.8 485.3 100.6Q485.6 101.5 485.6 102.6L485.6 102.6L485.6 103.2L479.6 103.2Q479.6 103.9 479.9 104.4L479.9 104.4Q480.1 104.9 480.6 105.1Q481.0 105.4 481.7 105.4L481.7 105.4Q482.1 105.4 482.4 105.3Q482.7 105.2 483.0 104.9Q483.2 104.7 483.3 104.4L483.3 104.4L485.5 104.8Q485.3 105.5 484.7 106.0Q484.2 106.6 483.4 106.9Q482.6 107.2 481.6 107.2ZM479.6 101.8L479.6 101.8L483.3 101.8Q483.3 101.3 483.2 101.0L483.2 101.0Q482.9 100.5 482.5 100.2Q482.1 99.9 481.5 99.9L481.5 99.9Q480.9 99.9 480.5 100.2Q480.1 100.5 479.8 101.0L479.8 101.0Q479.7 101.3 479.6 101.8ZM491.1 107.2L491.1 107.2Q489.8 107.2 488.8 106.6Q487.9 106.0 487.4 105.0Q486.8 104.0 486.8 102.7L486.8 102.7Q486.8 101.3 487.4 100.3Q487.9 99.3 488.8 98.7Q489.8 98.2 491.1 98.2L491.1 98.2Q491.9 98.2 492.5 98.4Q493.2 98.6 493.7 98.9Q494.2 99.3 494.5 99.9Q494.9 100.4 495.0 101.1L495.0 101.1L492.8 101.5Q492.7 101.1 492.6 100.9Q492.4 100.6 492.2 100.4Q492.0 100.2 491.7 100.1Q491.5 100 491.1 100L491.1 100Q490.5 100 490.1 100.3Q489.7 100.7 489.4 101.3Q489.2 101.9 489.2 102.7L489.2 102.7Q489.2 103.4 489.4 104.0Q489.7 104.6 490.1 105.0Q490.5 105.3 491.1 105.3L491.1 105.3Q491.5 105.3 491.8 105.2Q492.0 105.1 492.3 104.9Q492.5 104.7 492.6 104.4Q492.8 104.2 492.8 103.8L492.8 103.8L495.0 104.2Q494.9 104.9 494.6 105.4Q494.2 106.0 493.7 106.4Q493.2 106.8 492.6 107.0Q491.9 107.2 491.1 107.2ZM499.3 98.3L501.0 98.3L501.0 100.1L499.3 100.1L499.3 104.4Q499.3 104.9 499.5 105.1Q499.7 105.3 500.1 105.3L500.1 105.3Q500.3 105.3 500.5 105.2Q500.7 105.2 500.9 105.2L500.9 105.2L501.2 106.9Q500.8 107.0 500.4 107.1Q500.0 107.1 499.7 107.1L499.7 107.1Q498.4 107.1 497.7 106.5Q497.0 105.8 497.0 104.6L497.0 104.6L497.0 100.1L495.8 100.1L495.8 98.3L497.0 98.3L497.0 96.2L499.3 96.2L499.3 98.3ZM505.5 107.1L505.5 107.1Q504.6 107.1 503.9 106.7Q503.2 106.3 502.8 105.6Q502.5 104.8 502.5 103.8L502.5 103.8L502.5 98.3L504.8 98.3L504.8 103.4Q504.8 104.2 505.2 104.7Q505.7 105.1 506.4 105.1L506.4 105.1Q506.9 105.1 507.3 104.9Q507.7 104.7 507.9 104.3Q508.1 103.9 508.1 103.3L508.1 103.3L508.1 98.3L510.4 98.3L510.4 107L508.2 107L508.2 105.2Q507.9 106.0 507.3 106.5L507.3 106.5Q506.6 107.1 505.5 107.1ZM514.8 107L512.4 107L512.4 98.3L514.7 98.3L514.7 99.8L514.8 99.8Q515.0 99.0 515.6 98.6Q516.2 98.1 516.9 98.1L516.9 98.1Q517.1 98.1 517.3 98.2Q517.5 98.2 517.7 98.2L517.7 98.2L517.7 100.3Q517.5 100.3 517.2 100.2Q516.9 100.2 516.6 100.2L516.6 100.2Q516.1 100.2 515.7 100.4Q515.3 100.7 515.0 101.1Q514.8 101.5 514.8 102.0L514.8 102.0L514.8 107ZM522.9 107.2L522.9 107.2Q521.6 107.2 520.6 106.6Q519.6 106.1 519.1 105.1Q518.6 104.1 518.6 102.7L518.6 102.7Q518.6 101.3 519.1 100.3Q519.6 99.3 520.6 98.7Q521.5 98.2 522.8 98.2L522.8 98.2Q523.6 98.2 524.4 98.4Q525.1 98.7 525.7 99.3Q526.3 99.8 526.6 100.6Q526.9 101.5 526.9 102.6L526.9 102.6L526.9 103.2L520.9 103.2Q520.9 103.9 521.2 104.4L521.2 104.4Q521.4 104.9 521.9 105.1Q522.3 105.4 522.9 105.4L522.9 105.4Q523.4 105.4 523.7 105.3Q524.0 105.2 524.3 104.9Q524.5 104.7 524.6 104.4L524.6 104.4L526.8 104.8Q526.5 105.5 526.0 106.0Q525.5 106.6 524.7 106.9Q523.9 107.2 522.9 107.2ZM520.9 101.8L520.9 101.8L524.6 101.8Q524.6 101.3 524.4 101.0L524.4 101.0Q524.2 100.5 523.8 100.2Q523.4 99.9 522.8 99.9L522.8 99.9Q522.2 99.9 521.8 100.2Q521.3 100.5 521.1 101.0L521.1 101.0Q521.0 101.3 520.9 101.8Z "/></g><mask id="satori_om-id-0-1-1"><rect x="562" y="17" width="0" height="160" fill="#fff"/></mask></svg>