<!-- Generated by readme-aura https://github.com/collectioneur/readme-aura -->
<svg width="860" height="200" viewBox="0 0 860 200" xmlns="http://www.w3.org/2000/svg"><clipPath id="satori_cp-id"><path x="0" y="0" width="860" height="200" d="M20,0 h820 a20,20 0 0 1 20,20 v160 a20,20 0 0 1 -20,20 h-820 a20,20 0 0 1 -20,-20 v-160 a20,20 0 0 1 20,-20"/></clipPath><mask id="satori_om-id"><rect x="0" y="0" width="860" height="200" fill="#fff"/></mask><path x="0" y="0" width="860" height="200" fill="#000000" d="M20,0 h820 a20,20 0 0 1 20,20 v160 a20,20 0 0 1 -20,20 h-820 a20,20 0 0 1 -20,-20 v-160 a20,20 0 0 1 20,-20"/><clipPath id="satori_cp-id-0" clip-path="url(#satori_cp-id)"><rect x="0" y="0" width="860" height="200"/></clipPath><mask id="satori_om-id-0"><rect x="0" y="0" width="860" height="200" fill="#fff" mask="url(#satori_om-id)"/></mask><svg x="0" y="0" width="860" height="200" preserveAspectRatio="none" clip-path="url(#satori_cp-id-0)" mask="url(#satori_om-id-0)"><defs><filter id="blurGlow" x="-50%" y="-50%" width="200%" height="200%"><feGaussianBlur stdDeviation="25"></feGaussianBlur></filter><radialGradient id="circGrad" cx="50%" cy="50%" r="50%"><stop offset="0%" stop-color="#FA6813" stop-opacity="1"></stop><stop offset="60%" stop-color="#FA6813" stop-opacity="0.5"></stop><stop offset="100%" stop-color="#FA6813" stop-opacity="0"></stop></radialGradient><linearGradient key="halo-0" id="haloGrad0" x1="281" y1="48" x2="281" y2="148" gradientUnits="userSpaceOnUse"><stop offset="0%" stop-color="#FA6813" stop-opacity="0"></stop><stop offset="50%" stop-color="#FA6813" stop-opacity="0.8"></stop><stop offset="100%" stop-color="#FA6813" stop-opacity="0"></stop></linearGradient><linearGradient key="core-0" id="coreGrad0" x1="281" y1="48" x2="281" y2="148" gradientUnits="userSpaceOnUse"><stop offset="0%" stop-color="#FFD9B3" stop-opacity="0"></stop><stop offset="50%" stop-color="#FFD9B3" stop-opacity="1"></stop><stop offset="100%" stop-color="#FFD9B3" stop-opacity="0"></stop></linearGradient><filter key="filter-0" id="haloBlur0" filterUnits="userSpaceOnUse" x="209" y="-12" width="144" height="220"><feGaussianBlur stdDeviation="20"></feGaussianBlur></filter><linearGradient key="halo-1" id="haloGrad1" x1="579" y1="48" x2="579" y2="148" gradientUnits="userSpaceOnUse"><stop offset="0%" stop-color="#FA6813" stop-opacity="0"></stop><stop offset="50%" stop-color="#FA6813" stop-opacity="0.8"></stop><stop offset="100%" stop-color="#FA6813" stop-opacity="0"></stop></linearGradient><linearGradient key="core-1" id="coreGrad1" x1="579" y1="48" x2="579" y2="148" gradientUnits="userSpaceOnUse"><stop offset="0%" stop-color="#FFD9B3" stop-opacity="0"></stop><stop offset="50%" stop-color="#FFD9B3" stop-opacity="1"></stop><stop offset="100%" stop-color="#FFD9B3" stop-opacity="0"></stop></linearGradient><filter key="filter-1" id="haloBlur1" filterUnits="userSpaceOnUse" x="507" y="-12" width="144" height="220"><feGaussianBlur stdDeviation="20"></feGaussianBlur></filter></defs><ellipse cx="149" cy="240" rx="120" ry="120" fill="url(#circGrad)" filter="url(#blurGlow)"></ellipse><ellipse cx="430" cy="240" rx="120" ry="120" fill="url(#circGrad)" filter="url(#blurGlow)"></ellipse><ellipse cx="711" cy="240" rx="120" ry="120" fill="url(#circGrad)" filter="url(#blurGlow)"></ellipse><line key="haloLine-0" x1="281" y1="48" x2="281" y2="148" stroke="url(#haloGrad0)" stroke-width="24" stroke-linecap="round" filter="url(#haloBlur0)"></line><line key="coreLine-0" x1="281" y1="48" x2="281" y2="148" stroke="url(#coreGrad0)" stroke-width="1.5" stroke-linecap="round"></line><line key="haloLine-1" x1="579" y1="48" x2="579" y2="148" stroke="url(#haloGrad1)" stroke-width="24" stroke-linecap="round" filter="url(#haloBlur1)"></line><line key="coreLine-1" x1="579" y1="48" x2="579" y2="148" stroke="url(#coreGrad1)" stroke-width="1.5" stroke-linecap="round"></line></svg><mask id="satori_om-id-0-0"><rect x="0" y="0" width="0" height="200" fill="#fff" mask="url(#satori_om-id)"/></mask><mask id="satori_om-id-0-0-0"><rect x="0" y="0" width="0" height="200" fill="#fff" mask="url(#satori_om-id)"/></mask><mask id="satori_om-id-0-0-0-0"><rect x="0" y="0" width="0" height="200" fill="#fff" mask="url(#satori_om-id)"/></mask><mask id="satori_om-id-0-0-1"><rect x="0" y="0" width="0" height="200" fill="#fff" mask="url(#satori_om-id)"/></mask><mask id="satori_om-id-0-0-1-0"><rect x="0" y="0" width="0" height="200" fill="#fff" mask="url(#satori_om-id)"/></mask><mask id="satori_om-id-0-0-1-1"><rect x="0" y="0" width="0" height="200" fill="#fff" mask="url(#satori_om-id)"/></mask><mask id="satori_om-id-0-0-1-2"><rect x="0" y="0" width="0" height="200" fill="#fff" mask="url(#satori_om-id)"/></mask><mask id="satori_om-id-0-0-2"><rect x="0" y="0" width="0" height="200" fill="#fff" mask="url(#satori_om-id)"/></mask><mask id="satori_om-id-0-0-2-0"><rect x="0" y="0" width="0" height="200" fill="#fff" mask="url(#satori_om-id)"/></mask><mask id="satori_om-id-0-0-2-1"><rect x="0" y="0" width="0" height="200" fill="#fff" mask="url(#satori_om-id)"/></mask><mask id="satori_om-id-0-0-2-2"><rect x="0" y="0" width="0" height="200" fill="#fff" mask="url(#satori_om-id)"/></mask><mask id="satori_om-id-0-0-3"><rect x="0" y="0" width="0" height="200" fill="#fff" mask="url(#satori_om-id)"/></mask><mask id="satori_om-id-0-0-3-0"><rect x="0" y="0" width="0" height="200" fill="#fff" mask="url(#satori_om-id)"/></mask><mask id="satori_om-id-0-0-3-1"><rect x="0" y="0" width="0" height="200" fill="#fff" mask="url(#satori_om-id)"/></mask><mask id="satori_om-id-0-0-3-2"><rect x="0" y="0" width="0" height="200" fill="#fff" mask="url(#satori_om-id)"/></mask><mask id="satori_om-id-0-0-4"><rect x="0" y="0" width="0" height="200" fill="#fff" mask="url(#satori_om-id)"/></mask><mask id="satori_om-id-0-0-4-0"><rect x="0" y="0" width="0" height="200" fill="#fff" mask="url(#satori_om-id)"/></mask><mask id="satori_om-id-0-0-5"><rect x="0" y="0" width="0" height="200" fill="#fff" mask="url(#satori_om-id)"/></mask><mask id="satori_om-id-0-0-5-0"><rect x="0" y="0" width="0" height="200" fill="#fff" mask="url(#satori_om-id)"/></mask><mask id="satori_om-id-0-0-5-1"><rect x="0" y="0" width="0" height="200" fill="#fff" mask="url(#satori_om-id)"/></mask><mask id="satori_om-id-0-0-5-2"><rect x="0" y="0" width="0" height="200" fill="#fff" mask="url(#satori_om-id)"/></mask><mask id="satori_om-id-0-0-6"><rect x="0" y="0" width="0" height="200" fill="#fff" mask="url(#satori_om-id)"/></mask><mask id="satori_om-id-0-0-6-0"><rect x="0" y="0" width="0" height="200" fill="#fff" mask="url(#satori_om-id)"/></mask><mask id="satori_om-id-0-0-6-1"><rect x="0" y="0" width="0" height="200" fill="#fff" mask="url(#satori_om-id)"/></mask><mask id="satori_om-id-0-0-6-2"><rect x="0" y="0" width="0" height="200" fill="#fff" mask="url(#satori_om-id)"/></mask><mask id="satori_om-id-0-0-7"><rect x="0" y="0" width="0" height="200" fill="#fff" mask="url(#satori_om-id)"/></mask><mask id="satori_om-id-0-0-7-0"><rect x="0" y="0" width="0" height="200" fill="#fff" mask="url(#satori_om-id)"/></mask><mask id="satori_om-id-0-1"><rect x="0" y="0" width="0" height="200" fill="#fff" mask="url(#satori_om-id)"/></mask><mask id="satori_om-id-0-2"><rect x="0" y="0" width="0" height="200" fill="#fff" mask="url(#satori_om-id)"/></mask><mask id="satori_om-id-0-3"><rect x="0" y="0" width="0" height="200" fill="#fff" mask="url(#satori_om-id)"/></mask><mask id="satori_om-id-0-4"><rect x="0" y="0" width="0" height="200" fill="#fff" mask="url(#satori_om-id)"/></mask><mask id="satori_om-id-0-5"><rect x="0" y="0" width="0" height="200" fill="#fff" mask="url(#satori_om-id)"/></mask><mask id="satori_om-id-0-6"><rect x="0" y="0" width="0" height="200" fill="#fff" mask="url(#satori_om-id)"/></mask><mask id="satori_om-id-0-7"><rect x="0" y="0" width="0" height="200" fill="#fff" mask="url(#satori_om-id)"/></mask><mask id="satori_om-id-1"><rect x="0" y="0" width="860" height="200" fill="#fff" mask="url(#satori_om-id)"/></mask><mask id="satori_om-id-1-0"><rect x="120" y="0" width="52" height="200" fill="#fff" mask="url(#satori_om-id)"/></mask><mask id="satori_om-id-1-0-0"><rect x="120" y="52" width="52" height="57" fill="#fff" mask="url(#satori_om-id)"/></mask><g mask="url(#satori_om-id)" clip-path="url(#satori_cp-id)"><path fill="#FD6801" d="M129.9 64.1L137.6 64.1L137.6 99L130.4 99L130.4 70.4L130.2 70.4L122.2 76.1L122.2 69.5L129.9 64.1ZM156.1 99.5L156.1 99.5Q152.3 99.5 149.4 98.2Q146.5 96.9 144.8 94.5Q143.1 92.2 143.0 89.2L143.0 89.2L150.2 89.2Q150.3 90.5 151.1 91.5Q151.9 92.5 153.2 93Q154.5 93.5 156.2 93.5L156.2 93.5Q157.9 93.5 159.2 92.9Q160.5 92.3 161.3 91.3Q162.0 90.2 162.0 88.8L162.0 88.8Q162.0 87.3 161.2 86.2Q160.5 85.1 159 84.5Q157.5 83.9 155.5 83.9L155.5 83.9L152.3 83.9L152.3 78.5L155.5 78.5Q157.2 78.5 158.5 77.9Q159.8 77.3 160.5 76.3Q161.3 75.3 161.3 73.9L161.3 73.9Q161.3 72.5 160.6 71.5Q160.0 70.5 158.9 69.9Q157.7 69.3 156.2 69.3L156.2 69.3Q154.7 69.3 153.4 69.9Q152.2 70.4 151.4 71.4Q150.6 72.4 150.6 73.8L150.6 73.8L143.7 73.8Q143.7 70.8 145.4 68.5Q147.0 66.2 149.9 64.9Q152.7 63.6 156.3 63.6L156.3 63.6Q159.8 63.6 162.5 64.9Q165.2 66.2 166.7 68.5Q168.2 70.7 168.2 73.4L168.2 73.4Q168.2 76.3 166.4 78.3Q164.6 80.3 161.7 80.8L161.7 80.8L161.7 81.1Q164.2 81.4 165.9 82.5Q167.7 83.6 168.6 85.3Q169.5 87.0 169.5 89.2L169.5 89.2Q169.5 92.2 167.8 94.5Q166.1 96.8 163.0 98.1Q160.0 99.5 156.1 99.5Z "/></g><mask id="satori_om-id-1-0-1"><rect x="123" y="131" width="47" height="17" fill="#fff" mask="url(#satori_om-id)"/></mask><g mask="url(#satori_om-id)" clip-path="url(#satori_cp-id)"><path fill="#B4B4B4" d="M126.0 145L123.9 145L123.9 134.8L127.9 134.8Q129.1 134.8 129.9 135.2Q130.7 135.6 131.1 136.4Q131.5 137.1 131.5 138.1Q131.5 139.1 131.1 139.9Q130.7 140.6 129.8 141.0L129.8 141.0Q129.8 141.0 129.7 141.0L129.7 141.0L131.9 145L129.6 145L127.6 141.4L126.0 141.4L126.0 145ZM126.0 136.5L126.0 139.7L127.5 139.7Q128.2 139.7 128.6 139.5Q129.0 139.3 129.2 139.0Q129.4 138.6 129.4 138.1L129.4 138.1Q129.4 137.6 129.2 137.3Q129.0 136.9 128.6 136.7Q128.1 136.5 127.5 136.5L127.5 136.5L126.0 136.5ZM139.9 145L133.1 145L133.1 134.8L139.9 134.8L139.9 136.5L135.2 136.5L135.2 139.0L139.6 139.0L139.6 140.7L135.2 140.7L135.2 143.3L139.9 143.3L139.9 145ZM143.7 145L141.6 145L141.6 134.8L145.6 134.8Q146.8 134.8 147.6 135.3Q148.4 135.7 148.8 136.5Q149.2 137.2 149.2 138.3L149.2 138.3Q149.2 139.3 148.8 140.0Q148.4 140.8 147.5 141.2Q146.7 141.7 145.5 141.7L145.5 141.7L143.7 141.7L143.7 145ZM143.7 136.5L143.7 140.0L145.2 140.0Q145.9 140.0 146.3 139.8Q146.7 139.5 146.9 139.2Q147.1 138.8 147.1 138.3Q147.1 137.7 146.9 137.4Q146.7 137.0 146.3 136.8Q145.8 136.5 145.2 136.5L145.2 136.5L143.7 136.5ZM155.2 145.1L155.2 145.1Q153.8 145.1 152.7 144.5Q151.7 143.9 151.0 142.7Q150.4 141.6 150.4 139.9L150.4 139.9Q150.4 138.3 151.0 137.1Q151.7 135.9 152.7 135.3Q153.8 134.7 155.2 134.7L155.2 134.7Q156.5 134.7 157.6 135.3Q158.7 135.9 159.3 137.1Q159.9 138.3 159.9 139.9L159.9 139.9Q159.9 141.6 159.3 142.7Q158.7 143.9 157.6 144.5Q156.5 145.1 155.2 145.1ZM155.2 143.3L155.2 143.3Q156.0 143.3 156.5 142.9Q157.1 142.5 157.5 141.8Q157.8 141.0 157.8 139.9L157.8 139.9Q157.8 138.8 157.5 138.1Q157.1 137.3 156.5 136.9Q156.0 136.5 155.2 136.5L155.2 136.5Q154.4 136.5 153.8 136.9Q153.2 137.3 152.9 138.1Q152.5 138.8 152.5 139.9L152.5 139.9Q152.5 141.0 152.9 141.8Q153.2 142.5 153.8 142.9Q154.4 143.3 155.2 143.3ZM165.2 145.2L165.2 145.2Q164.0 145.2 163.1 144.8Q162.2 144.4 161.7 143.7Q161.2 142.9 161.1 141.8L161.1 141.8L163.2 141.8Q163.2 142.4 163.5 142.7Q163.7 143.0 164.2 143.2Q164.6 143.4 165.2 143.4L165.2 143.4Q165.8 143.4 166.2 143.2Q166.6 143.1 166.8 142.8Q167.0 142.5 167.0 142.1L167.0 142.1Q167.0 141.7 166.8 141.5Q166.6 141.3 166.2 141.1Q165.8 140.9 165.3 140.8L165.3 140.8L164.2 140.5Q162.9 140.2 162.1 139.5Q161.4 138.9 161.4 137.7L161.4 137.7Q161.4 136.8 161.9 136.1Q162.4 135.4 163.3 135.1Q164.1 134.7 165.2 134.7L165.2 134.7Q166.4 134.7 167.2 135.1Q168.0 135.5 168.5 136.1Q169.0 136.8 169.0 137.7L169.0 137.7L167.0 137.7Q166.9 137.1 166.5 136.8Q166.0 136.4 165.2 136.4L165.2 136.4Q164.7 136.4 164.3 136.6Q163.9 136.7 163.7 137.0Q163.6 137.3 163.6 137.6L163.6 137.6Q163.6 138.0 163.8 138.2Q164.0 138.5 164.4 138.6Q164.8 138.8 165.2 138.9L165.2 138.9L166.1 139.1Q166.7 139.3 167.3 139.5Q167.9 139.8 168.3 140.1Q168.7 140.5 168.9 141.0Q169.1 141.5 169.1 142.1L169.1 142.1Q169.1 143.0 168.7 143.7Q168.2 144.4 167.3 144.8Q166.4 145.2 165.2 145.2Z "/></g><mask id="satori_om-id-1-1"><rect x="362" y="0" width="48" height="200" fill="#fff" mask="url(#satori_om-id)"/></mask><mask id="satori_om-id-1-1-0"><rect x="370" y="52" width="33" height="57" fill="#fff" mask="url(#satori_om-id)"/></mask><g mask="url(#satori_om-id)" clip-path="url(#satori_cp-id)"><path fill="#FD6801" d="M386.2 99.5L386.2 99.5Q381.8 99.5 378.6 97.3Q375.5 95.2 373.9 91.2Q372.2 87.2 372.2 81.6L372.2 81.6Q372.2 75.9 373.9 71.9Q375.5 67.9 378.6 65.7Q381.8 63.6 386.2 63.6L386.2 63.6Q390.6 63.6 393.7 65.8Q396.8 67.9 398.5 71.9Q400.2 75.9 400.2 81.6L400.2 81.6Q400.2 87.2 398.5 91.2Q396.9 95.2 393.7 97.3Q390.6 99.5 386.2 99.5ZM386.2 93.5L386.2 93.5Q388.3 93.5 389.8 92.1Q391.3 90.7 392.1 88.1Q392.9 85.4 392.9 81.6L392.9 81.6Q392.9 77.7 392.1 75.0Q391.3 72.3 389.8 70.9Q388.3 69.5 386.2 69.5L386.2 69.5Q384.0 69.5 382.5 70.9Q381.0 72.4 380.3 75.0Q379.5 77.7 379.5 81.6L379.5 81.6Q379.5 85.4 380.3 88.1Q381.0 90.7 382.5 92.1Q384.0 93.5 386.2 93.5Z "/></g><mask id="satori_om-id-1-1-1"><rect x="362" y="131" width="48" height="17" fill="#fff" mask="url(#satori_om-id)"/></mask><g mask="url(#satori_om-id)" clip-path="url(#satori_cp-id)"><path fill="#B4B4B4" d="M366.7 145.2L366.7 145.2Q365.4 145.2 364.5 144.8Q363.6 144.4 363.1 143.7Q362.6 142.9 362.6 141.8L362.6 141.8L364.6 141.8Q364.7 142.4 364.9 142.7Q365.2 143.0 365.6 143.2Q366.1 143.4 366.6 143.4L366.6 143.4Q367.2 143.4 367.6 143.2Q368.0 143.1 368.3 142.8Q368.5 142.5 368.5 142.1L368.5 142.1Q368.5 141.7 368.3 141.5Q368.1 141.3 367.7 141.1Q367.3 140.9 366.7 140.8L366.7 140.8L365.6 140.5Q364.3 140.2 363.6 139.5Q362.9 138.9 362.9 137.7L362.9 137.7Q362.9 136.8 363.4 136.1Q363.8 135.4 364.7 135.1Q365.6 134.7 366.7 134.7L366.7 134.7Q367.8 134.7 368.7 135.1Q369.5 135.5 370.0 136.1Q370.4 136.8 370.4 137.7L370.4 137.7L368.4 137.7Q368.4 137.1 367.9 136.8Q367.4 136.4 366.7 136.4L366.7 136.4Q366.1 136.4 365.8 136.6Q365.4 136.7 365.2 137.0Q365.0 137.3 365.0 137.6L365.0 137.6Q365.0 138.0 365.2 138.2Q365.4 138.5 365.8 138.6Q366.2 138.8 366.6 138.9L366.6 138.9L367.5 139.1Q368.2 139.3 368.7 139.5Q369.3 139.8 369.7 140.1Q370.1 140.5 370.4 141.0Q370.6 141.5 370.6 142.1L370.6 142.1Q370.6 143.0 370.1 143.7Q369.7 144.4 368.8 144.8Q367.9 145.2 366.7 145.2ZM374.8 136.5L371.7 136.5L371.7 134.8L380.0 134.8L380.0 136.5L376.9 136.5L376.9 145L374.8 145L374.8 136.5ZM383.2 145L380.8 145L384.3 134.8L387.1 134.8L390.6 145L388.3 145L387.5 142.6L383.9 142.6L383.2 145ZM384.4 141.0L387.0 141.0L386.7 140.1Q386.4 139.1 386.1 138L386.1 138Q385.9 137.3 385.7 136.5L385.7 136.5Q385.5 137.3 385.3 138.0L385.3 138.0Q385.0 139.2 384.7 140.1L384.7 140.1L384.4 141.0ZM394.0 145L391.9 145L391.9 134.8L395.9 134.8Q397.0 134.8 397.8 135.2Q398.6 135.6 399.1 136.4Q399.5 137.1 399.5 138.1Q399.5 139.1 399.1 139.9Q398.6 140.6 397.8 141.0L397.8 141.0Q397.8 141.0 397.7 141.0L397.7 141.0L399.9 145L397.6 145L395.6 141.4L394.0 141.4L394.0 145ZM394.0 136.5L394.0 139.7L395.5 139.7Q396.1 139.7 396.5 139.5Q396.9 139.3 397.1 139.0Q397.3 138.6 397.3 138.1L397.3 138.1Q397.3 137.6 397.1 137.3Q396.9 136.9 396.5 136.7Q396.1 136.5 395.5 136.5L395.5 136.5L394.0 136.5ZM404.8 145.2L404.8 145.2Q403.6 145.2 402.7 144.8Q401.8 144.4 401.3 143.7Q400.8 142.9 400.7 141.8L400.7 141.8L402.8 141.8Q402.8 142.4 403.1 142.7Q403.3 143.0 403.8 143.2Q404.2 143.4 404.8 143.4L404.8 143.4Q405.4 143.4 405.8 143.2Q406.2 143.1 406.4 142.8Q406.6 142.5 406.6 142.1L406.6 142.1Q406.6 141.7 406.4 141.5Q406.2 141.3 405.8 141.1Q405.4 140.9 404.9 140.8L404.9 140.8L403.8 140.5Q402.5 140.2 401.7 139.5Q401.0 138.9 401.0 137.7L401.0 137.7Q401.0 136.8 401.5 136.1Q402.0 135.4 402.9 135.1Q403.7 134.7 404.8 134.7L404.8 134.7Q406.0 134.7 406.8 135.1Q407.7 135.5 408.1 136.1Q408.6 136.8 408.6 137.7L408.6 137.7L406.6 137.7Q406.5 137.1 406.1 136.8Q405.6 136.4 404.8 136.4L404.8 136.4Q404.3 136.4 403.9 136.6Q403.5 136.7 403.3 137.0Q403.2 137.3 403.2 137.6L403.2 137.6Q403.2 138.0 403.4 138.2Q403.6 138.5 404.0 138.6Q404.4 138.8 404.8 138.9L404.8 138.9L405.7 139.1Q406.3 139.3 406.9 139.5Q407.5 139.8 407.9 140.1Q408.3 140.5 408.5 141.0Q408.7 141.5 408.7 142.1L408.7 142.1Q408.7 143.0 408.3 143.7Q407.8 144.4 406.9 144.8Q406.1 145.2 404.8 145.2Z "/></g><mask id="satori_om-id-1-2"><rect x="600" y="0" width="93" height="200" fill="#fff" mask="url(#satori_om-id)"/></mask><mask id="satori_om-id-1-2-0"><rect x="600" y="52" width="93" height="57" fill="#fff" mask="url(#satori_om-id)"/></mask><g mask="url(#satori_om-id)" clip-path="url(#satori_cp-id)"><path fill="#FD6801" d="M627.6 99L602.9 99L602.9 93.8L615.3 82.2Q616.9 80.7 618.0 79.4Q619.1 78.2 619.6 77.0Q620.2 75.8 620.2 74.4L620.2 74.4Q620.2 72.8 619.5 71.7Q618.8 70.5 617.6 69.9Q616.4 69.3 614.8 69.3L614.8 69.3Q613.2 69.3 612.0 70.0Q610.7 70.6 610.1 71.9Q609.4 73.1 609.4 74.8L609.4 74.8L602.6 74.8Q602.6 71.4 604.1 68.9Q605.7 66.4 608.5 65.0Q611.2 63.6 614.8 63.6L614.8 63.6Q618.5 63.6 621.3 64.9Q624.1 66.3 625.6 68.6Q627.1 70.9 627.1 73.9L627.1 73.9Q627.1 75.9 626.4 77.8Q625.6 79.7 623.7 82.0Q621.7 84.4 618.1 87.7L618.1 87.7L612.8 92.9L612.8 93.1L627.6 93.1L627.6 99ZM648.6 92.8L631.9 92.8L631.9 87.1L646.5 64.1L655.4 64.1L655.4 87.0L659.8 87.0L659.8 92.8L655.4 92.8L655.4 99L648.6 99L648.6 92.8ZM639.1 87.0L648.7 87.0L648.7 72.0L648.4 72.0L639.1 86.7L639.1 87.0ZM689.6 99L664.9 99L664.9 93.8L677.2 82.2Q678.8 80.7 679.9 79.4Q681 78.2 681.6 77.0Q682.1 75.8 682.1 74.4L682.1 74.4Q682.1 72.8 681.4 71.7Q680.7 70.5 679.5 69.9Q678.3 69.3 676.7 69.3L676.7 69.3Q675.1 69.3 673.9 70.0Q672.7 70.6 672.0 71.9Q671.4 73.1 671.4 74.8L671.4 74.8L664.5 74.8Q664.5 71.4 666.1 68.9Q667.6 66.4 670.4 65.0Q673.2 63.6 676.8 63.6L676.8 63.6Q680.5 63.6 683.3 64.9Q686.0 66.3 687.6 68.6Q689.1 70.9 689.1 73.9L689.1 73.9Q689.1 75.9 688.3 77.8Q687.6 79.7 685.6 82.0Q683.6 84.4 680.1 87.7L680.1 87.7L674.8 92.9L674.8 93.1L689.6 93.1L689.6 99Z "/></g><mask id="satori_om-id-1-2-1"><rect x="612" y="131" width="70" height="17" fill="#fff" mask="url(#satori_om-id)"/></mask><g mask="url(#satori_om-id)" clip-path="url(#satori_cp-id)"><path fill="#B4B4B4" d="M617.4 145.1L617.4 145.1Q616.0 145.1 614.9 144.5Q613.9 143.9 613.3 142.7Q612.6 141.6 612.6 139.9L612.6 139.9Q612.6 138.3 613.3 137.1Q613.9 135.9 615.0 135.3Q616.0 134.7 617.4 134.7L617.4 134.7Q618.2 134.7 619.0 134.9Q619.7 135.2 620.3 135.6Q620.9 136.1 621.3 136.8Q621.6 137.4 621.8 138.3L621.8 138.3L619.6 138.3Q619.6 137.9 619.4 137.6Q619.2 137.2 618.9 137.0Q618.6 136.8 618.2 136.6Q617.9 136.5 617.4 136.5L617.4 136.5Q616.6 136.5 616.0 136.9Q615.4 137.3 615.1 138.1Q614.8 138.8 614.8 139.9L614.8 139.9Q614.8 141.0 615.1 141.8Q615.4 142.5 616.0 142.9Q616.6 143.3 617.4 143.3L617.4 143.3Q617.8 143.3 618.2 143.2Q618.6 143.0 618.9 142.8Q619.2 142.6 619.4 142.3Q619.6 141.9 619.6 141.5L619.6 141.5L621.8 141.5Q621.7 142.2 621.3 142.9Q621.0 143.5 620.4 144.0Q619.9 144.5 619.1 144.8Q618.3 145.1 617.4 145.1ZM627.8 145.1L627.8 145.1Q626.4 145.1 625.3 144.5Q624.3 143.9 623.6 142.7Q623.0 141.6 623.0 139.9L623.0 139.9Q623.0 138.3 623.6 137.1Q624.3 135.9 625.3 135.3Q626.4 134.7 627.8 134.7L627.8 134.7Q629.1 134.7 630.2 135.3Q631.3 135.9 631.9 137.1Q632.5 138.3 632.5 139.9L632.5 139.9Q632.5 141.6 631.9 142.7Q631.3 143.9 630.2 144.5Q629.1 145.1 627.8 145.1ZM627.8 143.3L627.8 143.3Q628.5 143.3 629.1 142.9Q629.7 142.5 630.1 141.8Q630.4 141.0 630.4 139.9L630.4 139.9Q630.4 138.8 630.1 138.1Q629.7 137.3 629.1 136.9Q628.5 136.5 627.8 136.5L627.8 136.5Q627.0 136.5 626.4 136.9Q625.8 137.3 625.4 138.1Q625.1 138.8 625.1 139.9L625.1 139.9Q625.1 141.0 625.4 141.8Q625.8 142.5 626.4 142.9Q627.0 143.3 627.8 143.3ZM636.1 145L634.1 145L634.1 134.8L637.3 134.8L638.9 139.5Q639.0 139.8 639.2 140.3Q639.3 140.9 639.4 141.5L639.4 141.5Q639.6 142.0 639.7 142.6L639.7 142.6Q639.8 142.1 639.9 141.5L639.9 141.5Q640.1 140.9 640.2 140.3Q640.3 139.8 640.4 139.5L640.4 139.5L642.1 134.8L645.3 134.8L645.3 145L643.2 145L643.2 140.2Q643.2 139.9 643.2 139.4Q643.2 138.9 643.2 138.3Q643.2 137.7 643.2 137.1L643.2 137.1Q643.2 136.9 643.3 136.6L643.3 136.6Q643.2 136.9 643.1 137.2L643.1 137.2Q642.9 137.8 642.8 138.4Q642.6 138.9 642.5 139.4Q642.3 139.9 642.2 140.2L642.2 140.2L640.5 145L638.8 145L637.1 140.2Q637.0 139.9 636.8 139.4Q636.7 139.0 636.5 138.4Q636.4 137.8 636.2 137.2L636.2 137.2Q636.1 136.9 636.1 136.7L636.1 136.7Q636.1 136.9 636.1 137.1L636.1 137.1Q636.1 137.7 636.1 138.3Q636.1 138.8 636.1 139.4Q636.1 139.9 636.1 140.2L636.1 140.2L636.1 145ZM649.2 145L647.1 145L647.1 134.8L650.3 134.8L652.0 139.5Q652.1 139.8 652.2 140.3Q652.3 140.9 652.5 141.5L652.5 141.5Q652.6 142.0 652.7 142.6L652.7 142.6Q652.8 142.1 653.0 141.5L653.0 141.5Q653.1 140.9 653.2 140.3Q653.4 139.8 653.5 139.5L653.5 139.5L655.1 134.8L658.3 134.8L658.3 145L656.2 145L656.2 140.2Q656.2 139.9 656.2 139.4Q656.2 138.9 656.3 138.3Q656.3 137.7 656.3 137.1L656.3 137.1Q656.3 136.9 656.3 136.6L656.3 136.6Q656.2 136.9 656.1 137.2L656.1 137.2Q656.0 137.8 655.8 138.4Q655.7 138.9 655.5 139.4Q655.4 139.9 655.3 140.2L655.3 140.2L653.6 145L651.8 145L650.1 140.2Q650.0 139.9 649.9 139.4Q649.7 139.0 649.6 138.4Q649.4 137.8 649.2 137.2L649.2 137.2Q649.2 136.9 649.1 136.7L649.1 136.7Q649.1 136.9 649.1 137.1L649.1 137.1Q649.1 137.7 649.1 138.3Q649.2 138.8 649.2 139.4Q649.2 139.9 649.2 140.2L649.2 140.2L649.2 145ZM660.2 134.8L662.2 134.8L662.2 145L660.2 145L660.2 134.8ZM666.8 136.5L663.7 136.5L663.7 134.8L672.0 134.8L672.0 136.5L668.9 136.5L668.9 145L666.8 145L666.8 136.5ZM677.2 145.2L677.2 145.2Q675.9 145.2 675.0 144.8Q674.1 144.4 673.6 143.7Q673.1 142.9 673.1 141.8L673.1 141.8L675.1 141.8Q675.2 142.4 675.4 142.7Q675.7 143.0 676.1 143.2Q676.6 143.4 677.1 143.4L677.1 143.4Q677.7 143.4 678.1 143.2Q678.5 143.1 678.8 142.8Q679.0 142.5 679.0 142.1L679.0 142.1Q679.0 141.7 678.8 141.5Q678.6 141.3 678.2 141.1Q677.8 140.9 677.2 140.8L677.2 140.8L676.1 140.5Q674.8 140.2 674.1 139.5Q673.4 138.9 673.4 137.7L673.4 137.7Q673.4 136.8 673.9 136.1Q674.4 135.4 675.2 135.1Q676.1 134.7 677.2 134.7L677.2 134.7Q678.3 134.7 679.2 135.1Q680.0 135.5 680.5 136.1Q680.9 136.8 681.0 137.7L681.0 137.7L678.9 137.7Q678.9 137.1 678.4 136.8Q677.9 136.4 677.2 136.4L677.2 136.4Q676.6 136.4 676.3 136.6Q675.9 136.7 675.7 137.0Q675.5 137.3 675.5 137.6L675.5 137.6Q675.5 138.0 675.7 138.2Q676.0 138.5 676.3 138.6Q676.7 138.8 677.1 138.9L677.1 138.9L678.0 139.1Q678.7 139.3 679.2 139.5Q679.8 139.8 680.2 140.1Q680.6 140.5 680.9 141.0Q681.1 141.5 681.1 142.1L681.1 142.1Q681.1 143.0 680.6 143.7Q680.2 144.4 679.3 144.8Q678.4 145.2 677.2 145.2Z "/></g></svg>