<svg xmlns="http://www.w3.org/2000/svg" viewBox="0 -0.5 128 42" shape-rendering="crispEdges">
<metadata>Made with Pixels to Svg https://codepen.io/shshaw/pen/XbxvNj</metadata>
<path stroke="#5c2e78" d="M6 0h116M6 1h116M2 2h4M122 2h4M2 3h4M122 3h4M0 4h2M126 4h2M0 5h2M126 5h2M0 6h2M126 6h2M0 7h2M126 7h2M0 8h2M126 8h2M0 9h2M126 9h2M0 10h2M126 10h2M0 11h2M126 11h2M0 12h2M126 12h2M0 13h2M126 13h2M0 14h2M126 14h2M0 15h2M126 15h2M0 16h2M126 16h2M0 17h2M126 17h2M0 18h2M126 18h2M0 19h2M126 19h2M0 20h2M126 20h2M0 21h2M126 21h2M0 22h2M126 22h2M0 23h2M126 23h2M0 24h2M126 24h2M0 25h2M126 25h2M0 26h2M126 26h2M0 27h2M126 27h2M0 28h2M126 28h2M0 29h2M126 29h2M0 30h2M126 30h2M0 31h2M126 31h2M0 32h2M126 32h2M0 33h2M126 33h2M0 34h2M126 34h2M0 35h2M126 35h2M0 36h2M126 36h2M0 37h2M126 37h2M2 38h4M122 38h4M2 39h4M122 39h4M6 40h116M6 41h116" />
<path stroke="#ffffff" d="M6 2h6M116 2h6M6 3h6M116 3h6M2 4h4M122 4h4M2 5h4M122 5h4M2 6h2M124 6h2M2 7h2M124 7h2M33 13h7M86 13h2M92 13h2M31 14h11M86 14h2M92 14h2M30 15h3M39 15h4M92 15h2M29 16h2M42 16h1M92 16h2M28 17h2M92 17h2M28 18h2M47 18h2M51 18h5M60 18h5M72 18h7M86 18h2M92 18h2M27 19h2M47 19h10M58 19h8M71 19h10M86 19h2M92 19h2M27 20h2M47 20h4M55 20h5M64 20h3M71 20h2M79 20h3M86 20h2M92 20h2M27 21h2M47 21h2M56 21h2M65 21h2M80 21h2M86 21h2M92 21h2M27 22h2M36 22h6M47 22h2M56 22h2M65 22h2M80 22h2M86 22h2M92 22h2M27 23h2M36 23h7M47 23h2M56 23h2M65 23h2M75 23h7M86 23h2M92 23h2M27 24h2M41 24h2M47 24h2M56 24h2M65 24h2M72 24h10M86 24h2M92 24h2M27 25h2M41 25h2M47 25h2M56 25h2M65 25h2M71 25h4M80 25h2M86 25h2M92 25h2M28 26h2M41 26h2M47 26h2M56 26h2M65 26h2M70 26h3M80 26h2M86 26h2M92 26h2M28 27h3M41 27h2M47 27h2M56 27h2M65 27h2M70 27h2M80 27h2M86 27h2M92 27h2M29 28h3M41 28h2M47 28h2M56 28h2M65 28h2M70 28h2M80 28h2M86 28h2M92 28h2M30 29h3M40 29h3M47 29h2M56 29h2M65 29h2M70 29h3M78 29h4M86 29h2M92 29h2M31 30h11M47 30h2M56 30h2M65 30h2M71 30h11M86 30h2M92 30h2M33 31h7M47 31h2M56 31h2M65 31h2M72 31h6M80 31h2M86 31h2M92 31h2" />
<path stroke="#e26cff" d="M12 2h21M96 2h20M12 3h21M96 3h20M6 4h13M108 4h14M6 5h13M108 5h14M4 6h8M116 6h8M4 7h8M116 7h8M2 8h6M120 8h6M2 9h6M120 9h6M2 10h2M124 10h2M2 11h2M124 11h2" />
<path stroke="#da42ff" d="M33 2h63M33 3h63M19 4h16M96 4h12M19 5h16M96 5h12M12 6h7M108 6h8M12 7h7M108 7h8M8 8h4M116 8h4M8 9h4M116 9h4M4 10h4M120 10h4M4 11h4M120 11h4M124 12h2M124 13h2" />
<path stroke="#d72eff" d="M35 4h61M35 5h61M19 6h89M19 7h89M12 8h104M12 9h104M8 10h112M8 11h112M4 12h29M40 12h46M88 12h4M94 12h30M4 13h27M42 13h43M89 13h2M95 13h29M2 14h28M43 14h42M89 14h2M95 14h31M2 15h27M44 15h42M88 15h3M95 15h31M2 16h26M33 16h6M44 16h47M95 16h31M2 17h25M31 17h11M43 17h4M49 17h2M56 17h4M65 17h7M79 17h7M88 17h3M95 17h31M2 18h25M31 18h15M57 18h1M66 18h5M81 18h4M89 18h2M95 18h31M2 19h24M30 19h16M67 19h3M82 19h3M89 19h2M95 19h31M2 20h24M30 20h16M68 20h2M83 20h2M89 20h2M95 20h31M2 21h24M30 21h6M42 21h4M51 21h4M60 21h4M68 21h3M73 21h6M83 21h2M89 21h2M95 21h31M2 22h24M30 22h5M43 22h3M50 22h5M59 22h5M68 22h7M83 22h2M89 22h2M95 22h31M2 23h24M30 23h5M44 23h2M50 23h5M59 23h5M68 23h4M83 23h2M89 23h2M95 23h31M2 24h24M30 24h6M44 24h2M50 24h5M59 24h5M68 24h3M83 24h2M89 24h2M95 24h31M2 25h24M30 25h10M44 25h2M50 25h5M59 25h5M68 25h2M83 25h2M89 25h2M95 25h31M2 26h25M31 26h9M44 26h2M50 26h5M59 26h5M68 26h1M75 26h4M83 26h2M89 26h2M95 26h31M2 27h25M32 27h8M44 27h2M50 27h5M59 27h5M68 27h1M73 27h6M83 27h2M89 27h2M95 27h31M2 28h26M33 28h7M44 28h2M50 28h5M59 28h5M68 28h1M73 28h5M83 28h2M89 28h2M95 28h31M2 29h27M44 29h2M50 29h5M59 29h5M68 29h1M83 29h2M89 29h2M95 29h31M2 30h28M43 30h3M50 30h5M59 30h5M68 30h2M83 30h2M89 30h2M95 30h31M2 31h29M42 31h4M50 31h5M59 31h5M68 31h3M83 31h2M89 31h2M95 31h31M2 32h31M40 32h7M49 32h7M58 32h7M67 32h5M78 32h2M82 32h4M88 32h4M94 32h32M2 33h124M2 34h124M2 35h124M6 36h116M6 37h116M10 38h108M10 39h108" />
<path stroke="#dc4aff" d="M2 12h2M2 13h2" />
<path stroke="#c8c8c8" d="M33 12h1M37 12h3M92 12h2M31 13h2M40 13h2M91 13h1M94 13h1M30 14h1M42 14h1M85 14h1M88 14h1M94 14h1M29 15h1M43 15h1M86 15h2M94 15h1M28 16h1M43 16h1M27 17h1M47 17h2M54 17h2M63 17h2M72 17h2M77 17h2M86 17h2M27 18h1M46 18h1M56 18h1M65 18h1M71 18h1M79 18h2M85 18h1M88 18h1M26 19h1M46 19h1M57 19h1M66 19h1M70 19h1M81 19h1M88 19h1M26 20h1M46 20h1M67 20h1M70 20h1M82 20h1M88 20h1M40 21h2M46 21h1M67 21h1M82 21h1M42 22h1M82 22h1M43 23h1M82 23h1M43 24h1M43 29h1M82 29h1M42 30h1M82 30h1M88 30h1M94 30h1M40 31h2M78 31h2M82 31h1M88 31h1M94 31h1M38 32h2M77 32h1M80 32h2" />
<path stroke="#dddddd" d="M34 12h3M86 12h2M85 13h1M88 13h1M91 14h1M36 15h3M91 15h1M39 16h3M91 16h1M94 16h1M42 17h1M51 17h3M60 17h3M74 17h3M91 17h1M94 17h1M49 18h2M58 18h2M91 18h1M94 18h1M85 19h1M91 19h1M94 19h1M85 20h1M91 20h1M94 20h1M26 21h1M36 21h4M71 21h2M85 21h1M88 21h1M91 21h1M94 21h1M26 22h1M29 22h1M35 22h1M46 22h1M55 22h1M64 22h1M67 22h1M75 22h4M85 22h1M88 22h1M91 22h1M94 22h1M26 23h1M29 23h1M46 23h1M55 23h1M64 23h1M67 23h1M72 23h3M85 23h1M88 23h1M91 23h1M94 23h1M29 24h1M46 24h1M55 24h1M64 24h1M67 24h1M71 24h1M82 24h1M85 24h1M88 24h1M91 24h1M94 24h1M29 25h1M43 25h1M46 25h1M49 25h1M55 25h1M58 25h1M64 25h1M67 25h1M70 25h1M82 25h1M85 25h1M88 25h1M91 25h1M94 25h1M30 26h1M43 26h1M46 26h1M49 26h1M55 26h1M58 26h1M64 26h1M67 26h1M69 26h1M82 26h1M85 26h1M88 26h1M91 26h1M94 26h1M31 27h1M40 27h1M43 27h1M46 27h1M49 27h1M55 27h1M58 27h1M64 27h1M67 27h1M69 27h1M72 27h1M82 27h1M85 27h1M88 27h1M91 27h1M94 27h1M32 28h1M40 28h1M43 28h1M49 28h1M58 28h1M67 28h1M72 28h1M82 28h1M88 28h1M94 28h1M33 29h7M49 29h1M58 29h1M67 29h1M73 29h5M88 29h1M94 29h1M49 30h1M58 30h1M67 30h1M49 31h1M58 31h1M67 31h1M35 32h3M74 32h3" />
<path stroke="#a8a8a8" d="M33 15h3M31 16h2M30 17h1M30 18h1M29 19h1M29 20h1M51 20h4M60 20h4M73 20h6M29 21h1M49 21h2M55 21h1M58 21h2M64 21h1M79 21h1M49 22h1M58 22h1M79 22h1M35 23h1M49 23h1M58 23h1M26 24h1M36 24h5M49 24h1M58 24h1M26 25h1M40 25h1M75 25h5M27 26h1M40 26h1M73 26h2M79 26h1M27 27h1M79 27h1M28 28h1M46 28h1M55 28h1M64 28h1M69 28h1M78 28h2M85 28h1M91 28h1M29 29h1M46 29h1M55 29h1M64 29h1M69 29h1M85 29h1M91 29h1M30 30h1M46 30h1M55 30h1M64 30h1M70 30h1M85 30h1M91 30h1M31 31h2M46 31h1M55 31h1M64 31h1M71 31h1M85 31h1M91 31h1M33 32h2M47 32h2M56 32h2M65 32h2M72 32h2M86 32h2M92 32h2" />
<path stroke="#cb35ee" d="M2 36h4M122 36h4M2 37h4M122 37h4M6 38h4M118 38h4M6 39h4M118 39h4" />
</svg>