<svg xmlns="http://www.w3.org/2000/svg" viewBox="0 -0.5 128 42" shape-rendering="crispEdges">
<metadata>Made with Pixels to Svg https://codepen.io/shshaw/pen/XbxvNj</metadata>
<path stroke="#5c2e78" d="M6 0h116M6 1h116M2 2h4M122 2h4M2 3h4M122 3h4M0 4h2M126 4h2M0 5h2M126 5h2M0 6h2M126 6h2M0 7h2M126 7h2M0 8h2M126 8h2M0 9h2M126 9h2M0 10h2M126 10h2M0 11h2M126 11h2M0 12h2M126 12h2M0 13h2M126 13h2M0 14h2M126 14h2M0 15h2M126 15h2M0 16h2M126 16h2M0 17h2M126 17h2M0 18h2M126 18h2M0 19h2M126 19h2M0 20h2M126 20h2M0 21h2M126 21h2M0 22h2M126 22h2M0 23h2M126 23h2M0 24h2M126 24h2M0 25h2M126 25h2M0 26h2M126 26h2M0 27h2M126 27h2M0 28h2M126 28h2M0 29h2M126 29h2M0 30h2M126 30h2M0 31h2M126 31h2M0 32h2M126 32h2M0 33h2M126 33h2M0 34h2M126 34h2M0 35h2M126 35h2M0 36h2M126 36h2M0 37h2M126 37h2M2 38h4M122 38h4M2 39h4M122 39h4M6 40h116M6 41h116" />
<path stroke="#ffffff" d="M6 2h6M116 2h6M6 3h6M116 3h6M2 4h4M122 4h4M2 5h4M122 5h4M2 6h2M124 6h2M2 7h2M124 7h2M8 12h6M8 13h6M10 14h2M44 14h2M10 15h2M44 15h2M10 16h2M44 16h2M10 17h2M17 17h2M20 17h5M32 17h7M43 17h7M55 17h7M70 17h7M80 17h2M84 17h3M91 17h7M104 17h2M107 17h4M114 17h4M10 18h2M17 18h9M31 18h9M43 18h7M54 18h10M69 18h8M80 18h7M90 18h10M104 18h8M113 18h6M10 19h2M17 19h4M24 19h3M30 19h3M38 19h2M44 19h2M54 19h2M62 19h3M69 19h2M75 19h2M80 19h3M90 19h2M98 19h3M104 19h3M110 19h4M117 19h3M10 20h2M17 20h2M25 20h2M30 20h2M39 20h1M44 20h2M63 20h2M68 20h2M75 20h2M80 20h2M99 20h2M104 20h2M111 20h2M118 20h2M10 21h2M17 21h2M25 21h2M30 21h3M44 21h2M63 21h2M68 21h2M75 21h2M80 21h2M99 21h2M104 21h2M111 21h2M118 21h2M10 22h2M17 22h2M25 22h2M31 22h4M44 22h2M58 22h7M68 22h2M75 22h2M80 22h2M94 22h7M104 22h2M111 22h2M118 22h2M10 23h2M17 23h2M25 23h2M32 23h4M44 23h2M55 23h10M68 23h2M75 23h2M80 23h2M91 23h10M104 23h2M111 23h2M118 23h2M10 24h2M17 24h2M25 24h2M34 24h3M44 24h2M54 24h4M63 24h2M68 24h2M75 24h2M80 24h2M90 24h4M99 24h2M104 24h2M111 24h2M118 24h2M10 25h2M17 25h2M25 25h2M35 25h4M44 25h2M53 25h3M63 25h2M68 25h2M75 25h2M80 25h2M89 25h3M99 25h2M104 25h2M111 25h2M118 25h2M10 26h2M17 26h2M25 26h2M36 26h4M44 26h2M53 26h2M63 26h2M68 26h3M74 26h3M80 26h2M89 26h2M99 26h2M104 26h2M111 26h2M118 26h2M10 27h2M17 27h2M25 27h2M30 27h1M38 27h2M44 27h2M53 27h2M63 27h2M69 27h8M80 27h2M89 27h2M99 27h2M104 27h2M111 27h2M118 27h2M10 28h2M17 28h2M25 28h2M30 28h2M37 28h3M44 28h2M53 28h3M61 28h4M71 28h3M75 28h2M80 28h2M89 28h3M97 28h4M104 28h2M111 28h2M118 28h2M8 29h6M17 29h2M25 29h2M30 29h9M44 29h6M54 29h11M75 29h2M80 29h2M90 29h11M104 29h2M111 29h2M118 29h2M8 30h6M17 30h2M25 30h2M31 30h7M45 30h5M55 30h6M63 30h2M74 30h3M80 30h2M91 30h6M99 30h2M104 30h2M111 30h2M118 30h2M69 31h7M69 32h6" />
<path stroke="#e26cff" d="M12 2h21M96 2h20M12 3h21M96 3h20M6 4h13M108 4h14M6 5h13M108 5h14M4 6h8M116 6h8M4 7h8M116 7h8M2 8h6M120 8h6M2 9h6M120 9h6M2 10h2M124 10h2M2 11h2M124 11h2" />
<path stroke="#da42ff" d="M33 2h63M33 3h63M19 4h14M96 4h12M19 5h14M96 5h12M12 6h7M108 6h8M12 7h7M108 7h8M8 8h4M116 8h4M8 9h4M116 9h4M4 10h4M120 10h4M4 11h4M120 11h4M124 12h2M124 13h2" />
<path stroke="#d72eff" d="M33 4h63M33 5h63M19 6h89M19 7h89M12 8h104M12 9h104M8 10h112M14 11h106M4 12h3M15 12h109M4 13h3M15 13h29M46 13h78M2 14h6M14 14h29M47 14h79M2 15h7M13 15h30M47 15h79M2 16h7M13 16h4M19 16h1M25 16h7M39 16h4M50 16h5M62 16h8M77 16h3M82 16h2M87 16h4M98 16h6M106 16h1M111 16h3M118 16h8M2 17h7M13 17h3M26 17h5M40 17h2M51 17h3M64 17h5M78 17h1M88 17h2M100 17h3M112 17h1M119 17h7M2 18h7M13 18h3M27 18h3M41 18h1M51 18h2M65 18h3M78 18h1M88 18h1M101 18h2M120 18h6M2 19h7M13 19h3M28 19h1M41 19h2M50 19h3M66 19h2M78 19h1M87 19h2M102 19h1M121 19h5M2 20h7M13 20h3M21 20h3M28 20h1M33 20h5M41 20h2M47 20h7M56 20h6M66 20h1M71 20h3M78 20h1M83 20h7M92 20h6M102 20h1M107 20h3M114 20h3M121 20h5M2 21h7M13 21h3M20 21h4M28 21h1M35 21h4M40 21h3M47 21h11M66 21h1M71 21h3M78 21h1M83 21h11M102 21h1M107 21h3M114 21h3M121 21h5M2 22h7M13 22h3M20 22h4M28 22h2M36 22h7M47 22h8M66 22h1M71 22h3M78 22h1M83 22h8M102 22h1M107 22h3M114 22h3M121 22h5M2 23h7M13 23h3M20 23h4M28 23h3M37 23h6M47 23h7M66 23h1M71 23h3M78 23h1M83 23h7M102 23h1M107 23h3M114 23h3M121 23h5M2 24h7M13 24h3M20 24h4M28 24h4M39 24h4M47 24h6M66 24h1M71 24h3M78 24h1M83 24h6M102 24h1M107 24h4M114 24h3M121 24h5M2 25h7M13 25h3M20 25h4M28 25h6M40 25h3M47 25h5M58 25h4M66 25h1M71 25h3M78 25h1M83 25h5M94 25h4M102 25h1M107 25h4M114 25h3M121 25h5M2 26h7M13 26h3M20 26h4M28 26h2M31 26h4M41 26h2M47 26h5M56 26h6M66 26h1M78 26h1M83 26h5M92 26h6M102 26h1M107 26h4M114 26h3M121 26h5M2 27h7M13 27h3M20 27h4M28 27h1M32 27h4M41 27h2M47 27h5M56 27h5M66 27h2M78 27h1M83 27h5M92 27h5M102 27h1M107 27h3M114 27h3M121 27h5M2 28h6M14 28h2M20 28h4M28 28h1M41 28h2M50 28h2M66 28h4M78 28h1M83 28h5M102 28h1M107 28h3M114 28h3M121 28h5M2 29h5M15 29h1M20 29h4M28 29h1M40 29h3M51 29h2M66 29h8M78 29h1M83 29h6M102 29h1M107 29h3M114 29h3M121 29h5M2 30h5M15 30h1M20 30h4M28 30h2M39 30h5M51 30h3M66 30h3M78 30h1M83 30h7M102 30h1M107 30h3M114 30h3M121 30h5M2 31h6M14 31h3M19 31h6M27 31h4M38 31h7M50 31h5M61 31h2M65 31h3M77 31h3M82 31h9M97 31h2M101 31h3M106 31h5M113 31h5M120 31h6M2 32h66M76 32h50M2 33h67M75 33h51M2 34h124M2 35h124M6 36h116M6 37h116M10 38h108M10 39h108" />
<path stroke="#dddddd" d="M8 11h6M7 12h1M14 12h1M9 16h1M12 16h1M17 16h2M20 16h4M33 16h5M57 16h3M71 16h3M93 16h3M107 16h2M114 16h2M9 17h1M12 17h1M16 17h1M19 17h1M106 17h1M113 17h1M9 18h1M12 18h1M16 18h1M42 18h1M50 18h1M79 18h1M9 19h1M12 19h1M16 19h1M40 19h1M43 19h1M49 19h1M68 19h1M79 19h1M85 19h2M103 19h1M9 20h1M12 20h1M16 20h1M27 20h1M40 20h1M43 20h1M54 20h2M67 20h1M77 20h1M79 20h1M90 20h2M103 20h1M120 20h1M9 21h1M12 21h1M16 21h1M24 21h1M27 21h1M33 21h2M39 21h1M43 21h1M46 21h1M58 21h4M67 21h1M77 21h1M79 21h1M94 21h4M103 21h1M110 21h1M117 21h1M120 21h1M9 22h1M12 22h1M16 22h1M24 22h1M27 22h1M35 22h1M43 22h1M46 22h1M55 22h3M67 22h1M70 22h1M77 22h1M79 22h1M91 22h3M103 22h1M110 22h1M117 22h1M120 22h1M9 23h1M12 23h1M16 23h1M19 23h1M24 23h1M27 23h1M43 23h1M46 23h1M54 23h1M65 23h1M67 23h1M70 23h1M74 23h1M77 23h1M79 23h1M82 23h1M90 23h1M101 23h1M103 23h1M106 23h1M110 23h1M113 23h1M117 23h1M120 23h1M9 24h1M12 24h1M16 24h1M19 24h1M24 24h1M27 24h1M43 24h1M46 24h1M53 24h1M65 24h1M67 24h1M70 24h1M74 24h1M77 24h1M79 24h1M82 24h1M89 24h1M101 24h1M103 24h1M106 24h1M113 24h1M117 24h1M120 24h1M9 25h1M12 25h1M16 25h1M19 25h1M24 25h1M27 25h1M34 25h1M43 25h1M46 25h1M52 25h1M65 25h1M67 25h1M70 25h1M74 25h1M77 25h1M79 25h1M82 25h1M88 25h1M101 25h1M103 25h1M106 25h1M113 25h1M117 25h1M120 25h1M9 26h1M12 26h1M16 26h1M19 26h1M24 26h1M27 26h1M35 26h1M43 26h1M46 26h1M52 26h1M55 26h1M65 26h1M71 26h3M77 26h1M79 26h1M82 26h1M88 26h1M91 26h1M101 26h1M103 26h1M106 26h1M113 26h1M117 26h1M120 26h1M19 27h1M24 27h1M27 27h1M55 27h1M65 27h1M82 27h1M91 27h1M101 27h1M106 27h1M113 27h1M120 27h1M19 28h1M24 28h1M27 28h1M29 28h1M40 28h1M48 28h2M56 28h5M74 28h1M82 28h1M92 28h5M106 28h1M113 28h1M120 28h1M14 29h1M19 29h1M24 29h1M27 29h1M39 29h1M50 29h1M74 29h1M82 29h1M106 29h1M113 29h1M120 29h1M14 30h1M19 30h1M24 30h1M27 30h1M38 30h1M50 30h1M69 30h5M82 30h1M106 30h1M113 30h1M120 30h1M12 31h2M25 31h2M36 31h2M48 31h2M57 31h3M93 31h3M75 32h1" />
<path stroke="#dc4aff" d="M2 12h2M2 13h2" />
<path stroke="#c8c8c8" d="M7 13h1M14 13h1M44 13h2M8 14h1M13 14h1M43 14h1M46 14h1M9 15h1M12 15h1M43 15h1M46 15h1M24 16h1M32 16h1M38 16h1M43 16h1M46 16h4M55 16h2M60 16h2M70 16h1M74 16h3M80 16h2M84 16h3M91 16h2M96 16h2M104 16h2M109 16h2M116 16h2M25 17h1M31 17h1M39 17h1M42 17h1M50 17h1M54 17h1M62 17h2M69 17h1M77 17h1M79 17h1M82 17h2M87 17h1M90 17h1M98 17h2M103 17h1M111 17h1M118 17h1M26 18h1M30 18h1M40 18h1M53 18h1M64 18h1M68 18h1M77 18h1M87 18h1M89 18h1M100 18h1M103 18h1M112 18h1M119 18h1M27 19h1M29 19h1M53 19h1M65 19h1M77 19h1M89 19h1M101 19h1M120 19h1M65 20h1M101 20h1M65 21h1M101 21h1M65 22h1M101 22h1M36 23h1M37 24h2M39 25h1M30 26h1M40 26h1M9 27h1M12 27h1M29 27h1M31 27h1M36 27h1M40 27h1M46 27h1M77 27h1M9 28h1M12 28h2M32 28h4M46 28h2M65 28h1M77 28h1M101 28h1M65 29h1M77 29h1M101 29h1M61 30h2M65 30h1M77 30h1M97 30h2M101 30h1M60 31h1M63 31h2M76 31h1M96 31h1M99 31h2" />
<path stroke="#a8a8a8" d="M9 14h1M12 14h1M21 19h3M33 19h5M46 19h3M56 19h6M71 19h4M83 19h2M92 19h6M107 19h3M114 19h3M19 20h2M24 20h1M29 20h1M32 20h1M38 20h1M46 20h1M62 20h1M70 20h1M74 20h1M82 20h1M98 20h1M106 20h1M110 20h1M113 20h1M117 20h1M19 21h1M29 21h1M62 21h1M70 21h1M74 21h1M82 21h1M98 21h1M106 21h1M113 21h1M19 22h1M30 22h1M74 22h1M82 22h1M106 22h1M113 22h1M31 23h1M32 24h2M58 24h5M94 24h5M56 25h2M62 25h1M92 25h2M98 25h1M62 26h1M67 26h1M98 26h1M16 27h1M37 27h1M43 27h1M52 27h1M61 27h2M68 27h1M79 27h1M88 27h1M97 27h2M103 27h1M110 27h1M117 27h1M8 28h1M16 28h1M36 28h1M43 28h1M52 28h1M70 28h1M79 28h1M88 28h1M103 28h1M110 28h1M117 28h1M7 29h1M16 29h1M29 29h1M43 29h1M53 29h1M79 29h1M89 29h1M103 29h1M110 29h1M117 29h1M7 30h1M16 30h1M30 30h1M44 30h1M54 30h1M79 30h1M90 30h1M103 30h1M110 30h1M117 30h1M8 31h4M17 31h2M31 31h5M45 31h3M55 31h2M68 31h1M80 31h2M91 31h2M104 31h2M111 31h2M118 31h2M68 32h1M69 33h6" />
<path stroke="#cb35ee" d="M2 36h4M122 36h4M2 37h4M122 37h4M6 38h4M118 38h4M6 39h4M118 39h4" />
</svg>