<svg xmlns="http://www.w3.org/2000/svg" viewBox="0 -0.5 128 50" shape-rendering="crispEdges">
<metadata>Made with Pixels to Svg https://codepen.io/shshaw/pen/XbxvNj</metadata>
<path stroke="#5c2e78" d="M6 0h116M6 1h116M2 2h4M122 2h4M2 3h4M122 3h4M0 4h2M126 4h2M0 5h2M126 5h2M0 6h2M126 6h2M0 7h2M126 7h2M0 8h2M126 8h2M0 9h2M126 9h2M0 10h2M126 10h2M0 11h2M126 11h2M0 12h2M126 12h2M0 13h2M126 13h2M0 14h2M126 14h2M0 15h2M126 15h2M0 16h2M126 16h2M0 17h2M126 17h2M0 18h2M126 18h2M0 19h2M126 19h2M0 20h2M126 20h2M0 21h2M126 21h2M0 22h2M126 22h2M0 23h2M126 23h2M0 24h2M126 24h2M0 25h2M126 25h2M0 26h2M126 26h2M0 27h2M126 27h2M0 28h2M126 28h2M0 29h2M126 29h2M0 30h2M126 30h2M0 31h2M126 31h2M0 32h2M126 32h2M0 33h2M126 33h2M0 34h2M126 34h2M0 35h2M126 35h2M0 36h2M126 36h2M0 37h2M126 37h2M0 38h2M126 38h2M0 39h2M126 39h2M0 40h2M126 40h2M0 41h2M126 41h2M0 42h6M122 42h6M0 43h6M122 43h6M2 44h126M2 45h126M6 46h120M6 47h120" />
<path stroke="#ffffff" d="M6 2h6M116 2h6M6 3h6M116 3h6M2 4h4M122 4h4M2 5h4M122 5h4M2 6h2M124 6h2M2 7h2M124 7h2M8 13h6M8 14h6M10 15h2M44 15h2M10 16h2M44 16h2M10 17h2M44 17h2M10 18h2M17 18h2M20 18h5M32 18h7M43 18h7M55 18h7M70 18h7M80 18h2M84 18h3M91 18h7M104 18h2M107 18h4M114 18h4M10 19h2M17 19h9M31 19h9M43 19h7M54 19h10M69 19h8M80 19h7M90 19h10M104 19h8M113 19h6M10 20h2M17 20h4M24 20h3M30 20h3M38 20h2M44 20h2M54 20h2M62 20h3M69 20h2M75 20h2M80 20h3M90 20h2M98 20h3M104 20h3M110 20h4M117 20h3M10 21h2M17 21h2M25 21h2M30 21h2M39 21h1M44 21h2M63 21h2M68 21h2M75 21h2M80 21h2M99 21h2M104 21h2M111 21h2M118 21h2M10 22h2M17 22h2M25 22h2M30 22h3M44 22h2M63 22h2M68 22h2M75 22h2M80 22h2M99 22h2M104 22h2M111 22h2M118 22h2M10 23h2M17 23h2M25 23h2M31 23h4M44 23h2M58 23h7M68 23h2M75 23h2M80 23h2M94 23h7M104 23h2M111 23h2M118 23h2M10 24h2M17 24h2M25 24h2M32 24h4M44 24h2M55 24h10M68 24h2M75 24h2M80 24h2M91 24h10M104 24h2M111 24h2M118 24h2M10 25h2M17 25h2M25 25h2M34 25h3M44 25h2M54 25h4M63 25h2M68 25h2M75 25h2M80 25h2M90 25h4M99 25h2M104 25h2M111 25h2M118 25h2M10 26h2M17 26h2M25 26h2M35 26h4M44 26h2M53 26h3M63 26h2M68 26h2M75 26h2M80 26h2M89 26h3M99 26h2M104 26h2M111 26h2M118 26h2M10 27h2M17 27h2M25 27h2M36 27h4M44 27h2M53 27h2M63 27h2M68 27h3M74 27h3M80 27h2M89 27h2M99 27h2M104 27h2M111 27h2M118 27h2M10 28h2M17 28h2M25 28h2M30 28h1M38 28h2M44 28h2M53 28h2M63 28h2M69 28h8M80 28h2M89 28h2M99 28h2M104 28h2M111 28h2M118 28h2M10 29h2M17 29h2M25 29h2M30 29h2M37 29h3M44 29h2M53 29h3M61 29h4M71 29h3M75 29h2M80 29h2M89 29h3M97 29h4M104 29h2M111 29h2M118 29h2M8 30h6M17 30h2M25 30h2M30 30h9M44 30h6M54 30h11M75 30h2M80 30h2M90 30h11M104 30h2M111 30h2M118 30h2M8 31h6M17 31h2M25 31h2M31 31h7M45 31h5M55 31h6M63 31h2M74 31h3M80 31h2M91 31h6M99 31h2M104 31h2M111 31h2M118 31h2M69 32h7M69 33h6" />
<path stroke="#e26cff" d="M12 2h21M96 2h20M12 3h21M96 3h20M6 4h13M108 4h14M6 5h13M108 5h14M4 6h8M116 6h8M4 7h8M116 7h8M2 8h6M120 8h6M2 9h6M120 9h6M2 10h2M124 10h2M2 11h2M124 11h2" />
<path stroke="#da42ff" d="M33 2h63M33 3h63M19 4h14M96 4h12M19 5h14M96 5h12M12 6h7M108 6h8M12 7h7M108 7h8M8 8h4M116 8h4M8 9h4M116 9h4M4 10h4M120 10h4M4 11h4M120 11h4M124 12h2M124 13h2" />
<path stroke="#d72eff" d="M33 4h63M33 5h63M19 6h89M19 7h89M12 8h104M12 9h104M8 10h112M8 11h112M4 12h4M14 12h110M4 13h3M15 13h109M2 14h5M15 14h29M46 14h80M2 15h6M14 15h29M47 15h79M2 16h7M13 16h30M47 16h79M2 17h7M13 17h4M19 17h1M25 17h7M39 17h4M50 17h5M62 17h8M77 17h3M82 17h2M87 17h4M98 17h6M106 17h1M111 17h3M118 17h8M2 18h7M13 18h3M26 18h5M40 18h2M51 18h3M64 18h5M78 18h1M88 18h2M100 18h3M112 18h1M119 18h7M2 19h7M13 19h3M27 19h3M41 19h1M51 19h2M65 19h3M78 19h1M88 19h1M101 19h2M120 19h6M2 20h7M13 20h3M28 20h1M41 20h2M50 20h3M66 20h2M78 20h1M87 20h2M102 20h1M121 20h5M2 21h7M13 21h3M21 21h3M28 21h1M33 21h5M41 21h2M47 21h7M56 21h6M66 21h1M71 21h3M78 21h1M83 21h7M92 21h6M102 21h1M107 21h3M114 21h3M121 21h5M2 22h7M13 22h3M20 22h4M28 22h1M35 22h4M40 22h3M47 22h11M66 22h1M71 22h3M78 22h1M83 22h11M102 22h1M107 22h3M114 22h3M121 22h5M2 23h7M13 23h3M20 23h4M28 23h2M36 23h7M47 23h8M66 23h1M71 23h3M78 23h1M83 23h8M102 23h1M107 23h3M114 23h3M121 23h5M2 24h7M13 24h3M20 24h4M28 24h3M37 24h6M47 24h7M66 24h1M71 24h3M78 24h1M83 24h7M102 24h1M107 24h3M114 24h3M121 24h5M2 25h7M13 25h3M20 25h4M28 25h4M39 25h4M47 25h6M66 25h1M71 25h3M78 25h1M83 25h6M102 25h1M107 25h4M114 25h3M121 25h5M2 26h7M13 26h3M20 26h4M28 26h6M40 26h3M47 26h5M58 26h4M66 26h1M71 26h3M78 26h1M83 26h5M94 26h4M102 26h1M107 26h4M114 26h3M121 26h5M2 27h7M13 27h3M20 27h4M28 27h2M31 27h4M41 27h2M47 27h5M56 27h6M66 27h1M78 27h1M83 27h5M92 27h6M102 27h1M107 27h4M114 27h3M121 27h5M2 28h7M13 28h3M20 28h4M28 28h1M32 28h4M41 28h2M47 28h5M56 28h5M66 28h2M78 28h1M83 28h5M92 28h5M102 28h1M107 28h3M114 28h3M121 28h5M2 29h6M14 29h2M20 29h4M28 29h1M41 29h2M50 29h2M66 29h4M78 29h1M83 29h5M102 29h1M107 29h3M114 29h3M121 29h5M2 30h5M15 30h1M20 30h4M28 30h1M40 30h3M51 30h2M66 30h8M78 30h1M83 30h6M102 30h1M107 30h3M114 30h3M121 30h5M2 31h5M15 31h1M20 31h4M28 31h2M39 31h5M51 31h3M66 31h3M78 31h1M83 31h7M102 31h1M107 31h3M114 31h3M121 31h5M2 32h6M14 32h3M19 32h6M27 32h4M38 32h7M50 32h5M61 32h2M65 32h3M77 32h3M82 32h9M97 32h2M101 32h3M106 32h5M113 32h5M120 32h6M2 33h66M76 33h50M2 34h67M75 34h51M2 35h124M2 36h124M2 37h124M2 38h124M2 39h124M6 40h116M6 41h116M10 42h108M10 43h108" />
<path stroke="#dc4aff" d="M2 12h2M2 13h2" />
<path stroke="#dddddd" d="M8 12h6M7 13h1M14 13h1M9 17h1M12 17h1M17 17h2M20 17h4M33 17h5M57 17h3M71 17h3M93 17h3M107 17h2M114 17h2M9 18h1M12 18h1M16 18h1M19 18h1M106 18h1M113 18h1M9 19h1M12 19h1M16 19h1M42 19h1M50 19h1M79 19h1M9 20h1M12 20h1M16 20h1M40 20h1M43 20h1M49 20h1M68 20h1M79 20h1M85 20h2M103 20h1M9 21h1M12 21h1M16 21h1M27 21h1M40 21h1M43 21h1M54 21h2M67 21h1M77 21h1M79 21h1M90 21h2M103 21h1M120 21h1M9 22h1M12 22h1M16 22h1M24 22h1M27 22h1M33 22h2M39 22h1M43 22h1M46 22h1M58 22h4M67 22h1M77 22h1M79 22h1M94 22h4M103 22h1M110 22h1M117 22h1M120 22h1M9 23h1M12 23h1M16 23h1M24 23h1M27 23h1M35 23h1M43 23h1M46 23h1M55 23h3M67 23h1M70 23h1M77 23h1M79 23h1M91 23h3M103 23h1M110 23h1M117 23h1M120 23h1M9 24h1M12 24h1M16 24h1M19 24h1M24 24h1M27 24h1M43 24h1M46 24h1M54 24h1M65 24h1M67 24h1M70 24h1M74 24h1M77 24h1M79 24h1M82 24h1M90 24h1M101 24h1M103 24h1M106 24h1M110 24h1M113 24h1M117 24h1M120 24h1M9 25h1M12 25h1M16 25h1M19 25h1M24 25h1M27 25h1M43 25h1M46 25h1M53 25h1M65 25h1M67 25h1M70 25h1M74 25h1M77 25h1M79 25h1M82 25h1M89 25h1M101 25h1M103 25h1M106 25h1M113 25h1M117 25h1M120 25h1M9 26h1M12 26h1M16 26h1M19 26h1M24 26h1M27 26h1M34 26h1M43 26h1M46 26h1M52 26h1M65 26h1M67 26h1M70 26h1M74 26h1M77 26h1M79 26h1M82 26h1M88 26h1M101 26h1M103 26h1M106 26h1M113 26h1M117 26h1M120 26h1M9 27h1M12 27h1M16 27h1M19 27h1M24 27h1M27 27h1M35 27h1M43 27h1M46 27h1M52 27h1M55 27h1M65 27h1M71 27h3M77 27h1M79 27h1M82 27h1M88 27h1M91 27h1M101 27h1M103 27h1M106 27h1M113 27h1M117 27h1M120 27h1M19 28h1M24 28h1M27 28h1M55 28h1M65 28h1M82 28h1M91 28h1M101 28h1M106 28h1M113 28h1M120 28h1M19 29h1M24 29h1M27 29h1M29 29h1M40 29h1M48 29h2M56 29h5M74 29h1M82 29h1M92 29h5M106 29h1M113 29h1M120 29h1M14 30h1M19 30h1M24 30h1M27 30h1M39 30h1M50 30h1M74 30h1M82 30h1M106 30h1M113 30h1M120 30h1M14 31h1M19 31h1M24 31h1M27 31h1M38 31h1M50 31h1M69 31h5M82 31h1M106 31h1M113 31h1M120 31h1M12 32h2M25 32h2M36 32h2M48 32h2M57 32h3M93 32h3M75 33h1" />
<path stroke="#c8c8c8" d="M7 14h1M14 14h1M44 14h2M8 15h1M13 15h1M43 15h1M46 15h1M9 16h1M12 16h1M43 16h1M46 16h1M24 17h1M32 17h1M38 17h1M43 17h1M46 17h4M55 17h2M60 17h2M70 17h1M74 17h3M80 17h2M84 17h3M91 17h2M96 17h2M104 17h2M109 17h2M116 17h2M25 18h1M31 18h1M39 18h1M42 18h1M50 18h1M54 18h1M62 18h2M69 18h1M77 18h1M79 18h1M82 18h2M87 18h1M90 18h1M98 18h2M103 18h1M111 18h1M118 18h1M26 19h1M30 19h1M40 19h1M53 19h1M64 19h1M68 19h1M77 19h1M87 19h1M89 19h1M100 19h1M103 19h1M112 19h1M119 19h1M27 20h1M29 20h1M53 20h1M65 20h1M77 20h1M89 20h1M101 20h1M120 20h1M65 21h1M101 21h1M65 22h1M101 22h1M65 23h1M101 23h1M36 24h1M37 25h2M39 26h1M30 27h1M40 27h1M9 28h1M12 28h1M29 28h1M31 28h1M36 28h1M40 28h1M46 28h1M77 28h1M9 29h1M12 29h2M32 29h4M46 29h2M65 29h1M77 29h1M101 29h1M65 30h1M77 30h1M101 30h1M61 31h2M65 31h1M77 31h1M97 31h2M101 31h1M60 32h1M63 32h2M76 32h1M96 32h1M99 32h2" />
<path stroke="#a8a8a8" d="M9 15h1M12 15h1M21 20h3M33 20h5M46 20h3M56 20h6M71 20h4M83 20h2M92 20h6M107 20h3M114 20h3M19 21h2M24 21h1M29 21h1M32 21h1M38 21h1M46 21h1M62 21h1M70 21h1M74 21h1M82 21h1M98 21h1M106 21h1M110 21h1M113 21h1M117 21h1M19 22h1M29 22h1M62 22h1M70 22h1M74 22h1M82 22h1M98 22h1M106 22h1M113 22h1M19 23h1M30 23h1M74 23h1M82 23h1M106 23h1M113 23h1M31 24h1M32 25h2M58 25h5M94 25h5M56 26h2M62 26h1M92 26h2M98 26h1M62 27h1M67 27h1M98 27h1M16 28h1M37 28h1M43 28h1M52 28h1M61 28h2M68 28h1M79 28h1M88 28h1M97 28h2M103 28h1M110 28h1M117 28h1M8 29h1M16 29h1M36 29h1M43 29h1M52 29h1M70 29h1M79 29h1M88 29h1M103 29h1M110 29h1M117 29h1M7 30h1M16 30h1M29 30h1M43 30h1M53 30h1M79 30h1M89 30h1M103 30h1M110 30h1M117 30h1M7 31h1M16 31h1M30 31h1M44 31h1M54 31h1M79 31h1M90 31h1M103 31h1M110 31h1M117 31h1M8 32h4M17 32h2M31 32h5M45 32h3M55 32h2M68 32h1M80 32h2M91 32h2M104 32h2M111 32h2M118 32h2M68 33h1M69 34h6" />
<path stroke="#cb35ee" d="M2 40h4M122 40h4M2 41h4M122 41h4M6 42h4M118 42h4M6 43h4M118 43h4" />
<path stroke="#5e606e" d="M0 44h2M0 45h2M4 46h2M4 47h2M6 48h26M6 49h26" />
<path stroke="#443f41" d="M126 46h2M126 47h2M32 48h94M32 49h94" />
</svg>