<svg xmlns="http://www.w3.org/2000/svg" viewBox="0 -0.5 128 42" shape-rendering="crispEdges">
<metadata>Made with Pixels to Svg https://codepen.io/shshaw/pen/XbxvNj</metadata>
<path stroke="#5c2e78" d="M6 0h116M6 1h116M2 2h4M122 2h4M2 3h4M122 3h4M0 4h2M126 4h2M0 5h2M126 5h2M0 6h2M126 6h2M0 7h2M126 7h2M0 8h2M126 8h2M0 9h2M126 9h2M0 10h2M126 10h2M0 11h2M126 11h2M0 12h2M126 12h2M0 13h2M126 13h2M0 14h2M126 14h2M0 15h2M126 15h2M0 16h2M126 16h2M0 17h2M126 17h2M0 18h2M126 18h2M0 19h2M126 19h2M0 20h2M126 20h2M0 21h2M126 21h2M0 22h2M126 22h2M0 23h2M126 23h2M0 24h2M126 24h2M0 25h2M126 25h2M0 26h2M126 26h2M0 27h2M126 27h2M0 28h2M126 28h2M0 29h2M126 29h2M0 30h2M126 30h2M0 31h2M126 31h2M0 32h2M126 32h2M0 33h2M126 33h2M0 34h2M126 34h2M0 35h2M126 35h2M0 36h2M126 36h2M0 37h2M126 37h2M2 38h4M122 38h4M2 39h4M122 39h4M6 40h116M6 41h116" />
<path stroke="#ffffff" d="M6 2h6M116 2h6M6 3h6M116 3h6M2 4h4M122 4h4M2 5h4M122 5h4M2 6h2M124 6h2M2 7h2M124 7h2M51 12h2M92 12h2M16 13h2M30 13h2M51 13h2M92 13h2M97 13h2M16 14h2M30 14h2M51 14h2M92 14h2M97 14h2M16 15h2M51 15h2M92 15h2M16 16h2M51 16h2M92 16h2M16 17h2M51 17h2M92 17h2M16 18h2M30 18h2M36 18h2M39 18h6M51 18h2M60 18h2M70 18h5M85 18h6M92 18h2M97 18h2M103 18h2M106 18h6M16 19h2M30 19h2M36 19h10M51 19h2M59 19h2M68 19h8M83 19h11M97 19h2M103 19h10M16 20h2M30 20h2M36 20h4M44 20h3M51 20h2M58 20h2M67 20h3M75 20h2M82 20h4M91 20h3M97 20h2M103 20h4M111 20h2M16 21h2M30 21h2M36 21h2M45 21h2M51 21h2M57 21h2M67 21h2M76 21h1M82 21h2M92 21h2M97 21h2M103 21h2M112 21h2M16 22h2M30 22h2M36 22h2M45 22h2M51 22h2M56 22h2M66 22h2M76 22h2M81 22h2M92 22h2M97 22h2M103 22h2M112 22h2M16 23h2M30 23h2M36 23h2M45 23h2M51 23h2M54 23h3M66 23h12M81 23h2M92 23h2M97 23h2M103 23h2M112 23h2M16 24h2M30 24h2M36 24h2M45 24h2M51 24h5M66 24h11M81 24h2M92 24h2M97 24h2M103 24h2M112 24h2M16 25h2M30 25h2M36 25h2M45 25h2M51 25h6M66 25h2M81 25h2M92 25h2M97 25h2M103 25h2M112 25h2M16 26h2M30 26h2M36 26h2M45 26h2M51 26h3M56 26h2M66 26h2M81 26h2M92 26h2M97 26h2M103 26h2M112 26h2M16 27h2M30 27h2M36 27h2M45 27h2M51 27h2M57 27h2M66 27h2M81 27h2M92 27h2M97 27h2M103 27h2M112 27h2M16 28h2M30 28h2M36 28h2M45 28h2M51 28h2M58 28h2M67 28h2M77 28h1M82 28h2M92 28h2M97 28h2M103 28h2M112 28h2M16 29h3M30 29h2M36 29h2M45 29h2M51 29h2M59 29h2M67 29h4M76 29h2M82 29h3M90 29h4M97 29h2M103 29h2M112 29h2M16 30h11M30 30h2M36 30h2M45 30h2M51 30h2M60 30h2M68 30h10M83 30h11M97 30h2M103 30h2M112 30h2M17 31h10M30 31h2M36 31h2M45 31h2M51 31h2M61 31h2M70 31h6M84 31h6M92 31h2M97 31h2M103 31h2M112 31h2" />
<path stroke="#e26cff" d="M12 2h21M96 2h20M12 3h21M96 3h20M6 4h13M108 4h14M6 5h13M108 5h14M4 6h8M116 6h8M4 7h8M116 7h8M2 8h6M120 8h6M2 9h6M120 9h6M2 10h2M124 10h2M2 11h2M124 11h2" />
<path stroke="#da42ff" d="M33 2h63M33 3h63M19 4h16M96 4h12M19 5h16M96 5h12M12 6h7M108 6h8M12 7h7M108 7h8M8 8h4M116 8h4M8 9h4M116 9h4M4 10h4M120 10h4M4 11h4M120 11h4M124 12h2M124 13h2" />
<path stroke="#d72eff" d="M35 4h61M35 5h61M19 6h89M19 7h89M12 8h104M12 9h104M8 10h112M8 11h43M53 11h39M94 11h26M4 12h12M18 12h12M32 12h18M54 12h37M95 12h2M99 12h25M4 13h11M19 13h10M33 13h17M54 13h37M95 13h1M100 13h24M2 14h13M19 14h10M33 14h17M54 14h37M95 14h1M100 14h26M2 15h13M19 15h11M32 15h18M54 15h37M95 15h2M99 15h27M2 16h13M19 16h31M54 16h37M95 16h31M2 17h13M19 17h11M32 17h4M38 17h1M45 17h5M54 17h6M62 17h8M75 17h10M95 17h2M99 17h4M105 17h1M112 17h14M2 18h13M19 18h10M33 18h2M46 18h4M54 18h5M63 18h5M76 18h7M95 18h1M100 18h2M113 18h13M2 19h13M19 19h10M33 19h2M47 19h3M54 19h4M62 19h5M77 19h5M95 19h1M100 19h2M114 19h12M2 20h13M19 20h10M33 20h2M48 20h2M54 20h3M61 20h5M78 20h3M95 20h1M100 20h2M114 20h12M2 21h13M19 21h10M33 21h2M40 21h4M48 21h2M54 21h2M60 21h6M70 21h5M78 21h3M86 21h5M95 21h1M100 21h2M107 21h4M115 21h11M2 22h13M19 22h10M33 22h2M39 22h5M48 22h2M59 22h6M69 22h6M79 22h1M84 22h7M95 22h1M100 22h2M106 22h5M115 22h11M2 23h13M19 23h10M33 23h2M39 23h5M48 23h2M58 23h7M79 23h1M84 23h7M95 23h1M100 23h2M106 23h5M115 23h11M2 24h13M19 24h10M33 24h2M39 24h5M48 24h2M57 24h8M78 24h2M84 24h7M95 24h1M100 24h2M106 24h5M115 24h11M2 25h13M19 25h10M33 25h2M39 25h5M48 25h2M58 25h7M77 25h3M84 25h7M95 25h1M100 25h2M106 25h5M115 25h11M2 26h13M19 26h10M33 26h2M39 26h5M48 26h2M59 26h6M69 26h11M84 26h7M95 26h1M100 26h2M106 26h5M115 26h11M2 27h13M19 27h10M33 27h2M39 27h5M48 27h2M54 27h1M60 27h5M69 27h8M78 27h2M84 27h7M95 27h1M100 27h2M106 27h5M115 27h11M2 28h13M19 28h10M33 28h2M39 28h5M48 28h2M54 28h2M61 28h5M71 28h5M79 28h2M85 28h5M95 28h1M100 28h2M106 28h5M115 28h11M2 29h13M27 29h2M33 29h2M39 29h5M48 29h2M54 29h3M62 29h4M79 29h2M95 29h1M100 29h2M106 29h5M115 29h11M2 30h13M28 30h1M33 30h2M39 30h5M48 30h2M54 30h4M63 30h4M79 30h3M95 30h1M100 30h2M106 30h5M115 30h11M2 31h14M28 31h1M33 31h2M39 31h5M48 31h2M54 31h5M64 31h4M78 31h5M95 31h1M100 31h2M106 31h5M115 31h11M2 32h15M27 32h3M32 32h4M38 32h7M47 32h4M53 32h7M63 32h7M76 32h8M90 32h2M94 32h3M99 32h4M105 32h7M114 32h12M2 33h124M2 34h124M2 35h124M6 36h116M6 37h116M10 38h108M10 39h108" />
<path stroke="#c8c8c8" d="M51 11h2M92 11h2M16 12h2M53 12h1M94 12h1M18 13h1M53 13h1M94 13h1M18 14h1M29 14h1M32 14h1M53 14h1M94 14h1M96 14h1M99 14h1M18 15h1M30 15h2M97 15h2M44 17h1M60 17h2M70 17h5M111 17h1M45 18h1M59 18h1M62 18h1M68 18h2M75 18h1M112 18h1M46 19h1M67 19h1M76 19h1M113 19h1M47 20h1M53 20h1M77 20h1M113 20h1M47 21h1M53 21h1M114 21h1M53 22h3M53 23h1M18 27h1M55 27h1M18 28h1M56 28h1M19 29h2M57 29h1M58 30h1M59 31h1M60 32h1" />
<path stroke="#dc4aff" d="M2 12h2M2 13h2" />
<path stroke="#dddddd" d="M30 12h2M50 12h1M91 12h1M97 12h2M15 13h1M29 13h1M32 13h1M50 13h1M91 13h1M96 13h1M99 13h1M15 14h1M50 14h1M91 14h1M15 15h1M50 15h1M53 15h1M91 15h1M94 15h1M15 16h1M18 16h1M50 16h1M53 16h1M91 16h1M94 16h1M15 17h1M18 17h1M30 17h2M36 17h2M39 17h5M50 17h1M53 17h1M85 17h7M94 17h1M97 17h2M103 17h2M106 17h5M15 18h1M18 18h1M29 18h1M32 18h1M35 18h1M38 18h1M50 18h1M53 18h1M83 18h2M91 18h1M94 18h1M96 18h1M99 18h1M102 18h1M105 18h1M15 19h1M18 19h1M29 19h1M32 19h1M35 19h1M50 19h1M53 19h1M58 19h1M61 19h1M82 19h1M94 19h1M96 19h1M99 19h1M102 19h1M15 20h1M18 20h1M29 20h1M32 20h1M35 20h1M50 20h1M57 20h1M60 20h1M66 20h1M70 20h5M81 20h1M94 20h1M96 20h1M99 20h1M102 20h1M15 21h1M18 21h1M29 21h1M32 21h1M35 21h1M50 21h1M56 21h1M59 21h1M66 21h1M69 21h1M75 21h1M77 21h1M81 21h1M94 21h1M96 21h1M99 21h1M102 21h1M15 22h1M18 22h1M29 22h1M32 22h1M35 22h1M47 22h1M50 22h1M58 22h1M65 22h1M68 22h1M75 22h1M78 22h1M80 22h1M94 22h1M96 22h1M99 22h1M102 22h1M114 22h1M15 23h1M29 23h1M32 23h1M35 23h1M47 23h1M50 23h1M57 23h1M65 23h1M78 23h1M80 23h1M94 23h1M96 23h1M99 23h1M102 23h1M114 23h1M15 24h1M18 24h1M29 24h1M32 24h1M35 24h1M44 24h1M47 24h1M50 24h1M56 24h1M65 24h1M80 24h1M83 24h1M91 24h1M94 24h1M96 24h1M99 24h1M102 24h1M111 24h1M114 24h1M15 25h1M29 25h1M32 25h1M35 25h1M38 25h1M44 25h1M47 25h1M50 25h1M57 25h1M65 25h1M80 25h1M94 25h1M96 25h1M99 25h1M102 25h1M105 25h1M114 25h1M15 26h1M29 26h1M32 26h1M35 26h1M44 26h1M47 26h1M50 26h1M58 26h1M65 26h1M80 26h1M94 26h1M96 26h1M99 26h1M102 26h1M111 26h1M114 26h1M29 27h1M32 27h1M35 27h1M38 27h1M44 27h1M47 27h1M50 27h1M53 27h1M59 27h1M65 27h1M77 27h1M80 27h1M94 27h1M96 27h1M99 27h1M102 27h1M105 27h1M111 27h1M114 27h1M32 28h1M38 28h1M44 28h1M47 28h1M53 28h1M60 28h1M69 28h2M76 28h1M78 28h1M84 28h1M90 28h2M94 28h1M99 28h1M105 28h1M111 28h1M114 28h1M23 29h4M32 29h1M38 29h1M44 29h1M47 29h1M53 29h1M61 29h1M71 29h5M78 29h1M85 29h5M94 29h1M99 29h1M105 29h1M111 29h1M114 29h1M27 30h1M32 30h1M38 30h1M44 30h1M47 30h1M53 30h1M62 30h1M78 30h1M94 30h1M99 30h1M105 30h1M111 30h1M114 30h1M27 31h1M32 31h1M38 31h1M44 31h1M47 31h1M53 31h1M63 31h1M76 31h2M94 31h1M99 31h1M105 31h1M111 31h1M114 31h1M21 32h6M45 32h2M61 32h2M112 32h2" />
<path stroke="#a8a8a8" d="M40 20h4M86 20h5M107 20h4M38 21h2M44 21h1M84 21h2M105 21h2M111 21h1M38 22h1M83 22h1M105 22h1M38 23h1M83 23h1M105 23h1M38 24h1M105 24h1M68 25h9M54 26h2M68 26h1M56 27h1M68 27h1M15 28h1M29 28h1M35 28h1M50 28h1M57 28h1M66 28h1M81 28h1M96 28h1M102 28h1M15 29h1M29 29h1M35 29h1M50 29h1M58 29h1M66 29h1M81 29h1M96 29h1M102 29h1M15 30h1M29 30h1M35 30h1M50 30h1M59 30h1M67 30h1M82 30h1M96 30h1M102 30h1M16 31h1M29 31h1M35 31h1M50 31h1M60 31h1M68 31h2M83 31h1M90 31h2M96 31h1M102 31h1M17 32h3M30 32h2M36 32h2M51 32h2M70 32h6M84 32h6M92 32h2M97 32h2M103 32h2" />
<path stroke="#d7d7d7" d="M91 21h1M44 22h1M91 22h1M111 22h1M18 23h1M44 23h1M91 23h1M111 23h1M77 24h1M18 25h1M83 25h1M91 25h1M111 25h1M18 26h1M38 26h1M83 26h1M91 26h1M105 26h1M15 27h1M83 27h1M91 27h1M21 29h2M20 32h1" />
<path stroke="#cb35ee" d="M2 36h4M122 36h4M2 37h4M122 37h4M6 38h4M118 38h4M6 39h4M118 39h4" />
</svg>