<svg width="30" height="30" viewBox="0 0 30 30" fill="none" xmlns="http://www.w3.org/2000/svg">
<path fill-rule="evenodd" clip-rule="evenodd" d="M14.3144 2.05393C14.7387 1.8158 15.2612 1.8158 15.685 2.05393C17.7819 3.2308 24.0919 6.7733 26.1894 7.95018C26.6137 8.18768 26.875 8.62768 26.875 9.10393C26.875 11.4577 26.875 18.542 26.875 20.8958C26.875 21.372 26.6137 21.812 26.1894 22.0502C24.0925 23.227 17.7825 26.7695 15.685 27.9464C15.2606 28.1845 14.7381 28.1845 14.3144 27.9464C12.2175 26.7695 5.9075 23.227 3.81 22.0502C3.38625 21.812 3.125 21.3727 3.125 20.8964C3.125 18.5427 3.125 11.4583 3.125 9.10455C3.125 8.6283 3.38625 8.1883 3.81062 7.95018C5.90687 6.7733 12.2181 3.2308 14.3144 2.05393Z" fill="black"/>
<path fill-rule="evenodd" clip-rule="evenodd" d="M3.315 21.5025C3.14875 21.28 3.125 21.0687 3.125 20.7844C3.125 18.4444 3.125 11.4006 3.125 9.05999C3.125 8.58624 3.38562 8.14874 3.80875 7.91249C5.89812 6.74249 12.1869 3.22062 14.2762 2.04999C14.6994 1.81312 15.2725 1.81812 15.6956 2.05499C17.785 3.22499 24.0525 6.71687 26.1419 7.88686C26.3106 7.98186 26.4394 8.09624 26.5544 8.24686L3.315 21.5025Z" fill="#404040"/>
<path fill-rule="evenodd" clip-rule="evenodd" d="M15 6.25C19.8294 6.25 23.75 10.1706 23.75 15C23.75 19.8294 19.8294 23.75 15 23.75C10.1706 23.75 6.25 19.8294 6.25 15C6.25 10.1706 10.1706 6.25 15 6.25ZM15 10.625C17.4144 10.625 19.375 12.585 19.375 15C19.375 17.4144 17.4144 19.375 15 19.375C12.5856 19.375 10.625 17.4144 10.625 15C10.625 12.585 12.585 10.625 15 10.625Z" fill="white"/>
<path fill-rule="evenodd" clip-rule="evenodd" d="M26.5531 8.25311C26.8756 8.55499 26.8693 9.00999 26.8693 9.36811C26.8693 11.74 26.8493 18.4862 26.875 20.8581C26.8775 21.1056 26.7956 21.3662 26.6731 21.5625L14.7456 15L26.5531 8.25311Z" fill="#2B2B2B"/>
<path fill-rule="evenodd" clip-rule="evenodd" d="M19.375 13.125H20.625V16.875H19.375V13.125ZM23.75 13.125H25V16.875H23.75V13.125Z" fill="white"/>
<path fill-rule="evenodd" clip-rule="evenodd" d="M18.125 14.375H21.875V15.625H18.125V14.375ZM22.5 14.375H26.25V15.625H22.5V14.375Z" fill="white"/>
</svg>
