<svg width="30" height="30" viewBox="0 0 30 30" fill="none" xmlns="http://www.w3.org/2000/svg">
<path d="M10.5 10.5345H12.75C12.875 10.5345 13 10.4027 13 10.2709V8.29432C13 8.16255 12.875 8.03078 12.75 8.03078H10.5C10.375 8.03078 10.25 8.16255 10.25 8.29432V10.4027C10.25 10.4027 10.375 10.5345 10.5 10.5345ZM13.5 13.5652H15.75C15.875 13.5652 16 13.4335 16 13.3017V11.1933C16 11.0616 15.875 10.9298 15.75 10.9298H13.5C13.375 10.9298 13.25 11.0616 13.25 11.1933V13.3017C13.25 13.4335 13.375 13.5652 13.5 13.5652ZM13.5 10.5345H15.75C15.875 10.5345 16 10.4027 16 10.2709V8.29432L15.75 8.03078H13.5C13.375 8.03078 13.25 8.16255 13.25 8.29432V10.4027C13.25 10.4027 13.375 10.5345 13.5 10.5345ZM16.625 13.5652H18.875C19 13.5652 19.125 13.4335 19.125 13.3017V11.1933C19.125 11.0616 19 10.9298 18.875 10.9298H16.625C16.5 10.9298 16.375 11.0616 16.375 11.1933V13.3017C16.375 13.4335 16.5 13.5652 16.625 13.5652ZM13.5 7.50368H15.75C15.875 7.50368 16 7.37191 16 7.24014V5.26355C16 5.13177 15.875 5 15.75 5H13.5C13.375 5 13.25 5.13177 13.25 5.26355V7.37191C13.25 7.50368 13.375 7.50368 13.5 7.50368ZM4.25 13.5652H6.5C6.625 13.5652 6.75 13.4335 6.75 13.3017V11.1933C6.75 11.0616 6.625 10.9298 6.5 10.9298H4.25C4.125 10.9298 4 11.0616 4 11.1933V13.3017L4.25 13.5652ZM26.75 12.2475C26.125 11.8522 25.375 11.5886 24.75 11.7204C24.375 11.7204 24 11.7204 23.75 11.8522C23.5 10.6662 22.875 9.61205 22 9.08496L21.625 8.82141L21.375 9.21673C21 9.48028 20.75 10.0074 20.625 10.6662C20.375 11.7204 20.5 12.7746 21 13.5652C20.375 13.8288 19.75 13.9606 19.125 14.0923H2.75C2.375 14.0923 2 14.4876 2 14.883C2 16.4642 2.25 17.9137 2.75 19.3632C3.25 20.8127 4.125 21.9987 5.25 22.7893C7 23.7117 8.875 24.1071 10.75 23.9753C11.75 23.9753 12.75 23.8435 13.75 23.7117C15.125 23.4482 16.5 22.9211 17.75 22.1305C18.75 21.4716 19.625 20.681 20.5 19.7586C21.625 18.3091 22.5 16.7278 23.125 14.883H23.375C24.375 14.883 25.375 14.4876 26.125 13.8288C26.5 13.5652 26.75 13.1699 26.875 12.6428L27 12.3793L26.75 12.2475ZM7.375 13.5652H9.5C9.625 13.5652 9.75 13.4335 9.75 13.3017V11.1933C9.75 11.0616 9.625 10.9298 9.5 10.9298H7.375C7.25 10.9298 7.125 11.0616 7.125 11.1933V13.3017C7.125 13.4335 7.25 13.5652 7.375 13.5652ZM7.375 10.5345H9.5C9.625 10.5345 9.75 10.4027 9.75 10.2709V8.29432C9.75 8.16255 9.625 8.03078 9.5 8.03078H7.375C7.25 8.03078 7.125 8.16255 7.125 8.29432V10.4027C7.125 10.4027 7.25 10.5345 7.375 10.5345ZM10.5 13.5652H12.75C12.875 13.5652 13 13.4335 13 13.3017V11.1933C13 11.0616 12.875 10.9298 12.75 10.9298H10.5C10.375 10.9298 10.25 11.0616 10.25 11.1933V13.3017C10.25 13.4335 10.375 13.5652 10.5 13.5652Z" fill="black"/>
</svg>
