<svg width="34" height="30" viewBox="0 0 34 30" fill="none" xmlns="http://www.w3.org/2000/svg">
<path d="M5.37055 13.48C5.31711 13.48 5.30375 13.4533 5.33047 13.4133L5.61102 13.0533C5.63774 13.0133 5.70453 12.9867 5.75797 12.9867H10.5273C10.5808 12.9867 10.5941 13.0267 10.5674 13.0667L10.3403 13.4133C10.3136 13.4533 10.2468 13.4933 10.2067 13.4933L5.37055 13.48Z" fill="black"/>
<path d="M3.35324 14.7067C3.2998 14.7067 3.28645 14.68 3.31316 14.64L3.59371 14.28C3.62043 14.24 3.68723 14.2133 3.74067 14.2133H9.83261C9.88605 14.2133 9.91277 14.2533 9.89941 14.2933L9.79254 14.6133C9.77918 14.6667 9.72574 14.6933 9.6723 14.6933L3.35324 14.7067Z" fill="black"/>
<path d="M6.58624 15.9333C6.53281 15.9333 6.51945 15.8933 6.54617 15.8533L6.7332 15.52C6.75992 15.48 6.81336 15.44 6.86679 15.44H9.5387C9.59214 15.44 9.61886 15.48 9.61886 15.5333L9.59214 15.8533C9.59214 15.9067 9.5387 15.9467 9.49862 15.9467L6.58624 15.9333Z" fill="black"/>
<path d="M20.4534 13.24C19.6118 13.4533 19.0373 13.6133 18.209 13.8267C18.0086 13.88 17.9953 13.8933 17.8216 13.6933C17.6212 13.4667 17.4743 13.32 17.1937 13.1867C16.3521 12.7733 15.5371 12.8933 14.7756 13.3867C13.8672 13.9733 13.3996 14.84 13.413 15.92C13.4263 16.9867 14.1611 17.8667 15.2165 18.0133C16.1249 18.1333 16.8864 17.8133 17.4876 17.1333C17.6079 16.9867 17.7147 16.8267 17.8483 16.64C17.3674 16.64 16.7662 16.64 15.2699 16.64C14.9894 16.64 14.9226 16.4667 15.0161 16.24C15.1898 15.8267 15.5104 15.1333 15.6974 14.7867C15.7375 14.7067 15.831 14.5733 16.0314 14.5733C16.7128 14.5733 19.2244 14.5733 20.8943 14.5733C20.8676 14.9333 20.8676 15.2933 20.8141 15.6533C20.6672 16.6133 20.3065 17.4933 19.7187 18.2667C18.7568 19.5333 17.501 20.32 15.9112 20.5333C14.602 20.7067 13.3862 20.4533 12.3175 19.6533C11.3289 18.9067 10.7678 17.92 10.6208 16.6933C10.4471 15.24 10.8746 13.9333 11.7564 12.7867C12.7049 11.5467 13.9607 10.76 15.497 10.48C16.7528 10.2533 17.9552 10.4 19.0373 11.1333C19.7454 11.6 20.253 12.24 20.587 13.0133C20.6672 13.1333 20.6137 13.2 20.4534 13.24Z" fill="black"/>
<path d="M24.8754 20.6133C23.6597 20.5867 22.5509 20.24 21.6157 19.44C20.8275 18.76 20.3332 17.8933 20.1729 16.8667C19.9324 15.36 20.3465 14.0267 21.255 12.84C22.2302 11.56 23.4059 10.8933 24.9957 10.6133C26.3583 10.3733 27.6408 10.5067 28.8031 11.2933C29.8585 12.0133 30.5131 12.9867 30.6868 14.2667C30.9139 16.0667 30.3929 17.5333 29.1505 18.7867C28.2687 19.68 27.1866 20.24 25.9442 20.4933C25.5835 20.56 25.2228 20.5733 24.8754 20.6133ZM28.055 15.2267C28.0416 15.0533 28.0416 14.92 28.0149 14.7867C27.7744 13.4667 26.5587 12.72 25.2896 13.0133C24.0471 13.2933 23.2456 14.08 22.9517 15.3333C22.7112 16.3733 23.2188 17.4267 24.1807 17.8533C24.9155 18.1733 25.6503 18.1333 26.3583 17.7733C27.4137 17.2267 27.9882 16.3733 28.055 15.2267Z" fill="black"/>
</svg>
