<svg width="30" height="30" viewBox="0 0 30 30" fill="none" xmlns="http://www.w3.org/2000/svg">
<path d="M26.875 21.945V8.33501L15 1.52939L3.125 8.33501V21.945L15 28.75L26.875 21.945Z" fill="black"/>
<path d="M20.3125 8.12499C19.4494 8.12499 18.75 8.82437 18.75 9.68749V16.735L11.865 9.03312L11.7831 8.93812C11.0056 8.08624 10.1169 8.12499 9.6875 8.12499C8.82437 8.12499 8.125 8.82437 8.125 9.68749V20.3125C8.125 21.1756 8.82437 21.875 9.6875 21.875C10.5506 21.875 11.25 21.1756 11.25 20.3125V13.2131L18.2987 21.105L18.3675 21.1937C19.1375 21.9581 20.1844 21.875 20.3125 21.875C21.1756 21.875 21.875 21.1756 21.875 20.3125V9.68749C21.875 8.82437 21.1756 8.12499 20.3125 8.12499Z" fill="white"/>
</svg>
