<svg width="30" height="30" viewBox="0 0 30 30" fill="none" xmlns="http://www.w3.org/2000/svg">
<path d="M14.7 1.20001C9.48048 1.20001 8.40001 3.89533 8.40001 5.45626V8.40001H14.4V9.00001H5.45626C3.47579 9.00001 1.20001 10.561 1.20001 15C1.20001 19.4391 3.47579 21 5.45626 21H9.00001V17.4C9.00001 16.0805 10.0805 15 11.4 15H18.6C19.6195 15 20.4 14.2195 20.4 13.2V5.45626C20.4 3.35626 18.4195 1.20001 14.7 1.20001ZM12 4.20001C12.661 4.20001 13.2 4.73908 13.2 5.40001C13.2 6.06095 12.661 6.60001 12 6.60001C11.3391 6.60001 10.8 6.06095 10.8 5.40001C10.8 4.73908 11.3391 4.20001 12 4.20001ZM21 9.00001V13.2C21 14.5195 19.9195 15.6 18.6 15.6H11.4C10.3805 15.6 9.60001 16.3805 9.60001 17.4V24.5438C9.60001 26.6438 11.5805 28.8 15.3 28.8C20.5195 28.8 21.6 26.1047 21.6 24.5438V21.6H15.6V21H24.5438C26.5242 21 28.8 19.4391 28.8 15C28.8 10.561 26.5242 9.00001 24.5438 9.00001H21ZM18 23.4C18.661 23.4 19.2 23.9391 19.2 24.6C19.2 25.261 18.661 25.8 18 25.8C17.3391 25.8 16.8 25.261 16.8 24.6C16.8 23.9391 17.3391 23.4 18 23.4Z" fill="black"/>
</svg>
