<svg width="30" height="30" viewBox="0 0 30 30" fill="none" xmlns="http://www.w3.org/2000/svg">
<path fill-rule="evenodd" clip-rule="evenodd" d="M20.7328 2.39062C20.265 2.37489 19.7753 2.45645 19.2844 2.61562C18.3025 2.93396 17.2735 3.55433 16.2176 4.41328C15.8038 4.7499 15.3862 5.13469 14.9672 5.54296C14.5575 5.14506 14.1485 4.77059 13.7438 4.4414C12.6887 3.58314 11.6625 2.96254 10.6828 2.64492C9.70314 2.3273 8.72835 2.31746 7.92775 2.77968C7.12715 3.24191 6.64838 4.09041 6.43361 5.09765C6.21883 6.10489 6.24249 7.30439 6.45822 8.64726C6.53315 9.1137 6.64002 9.60304 6.76173 10.1016C6.30427 10.2402 5.86002 10.386 5.44806 10.5469C4.2048 11.0325 3.17608 11.6134 2.42697 12.3047C1.67785 12.996 1.19415 13.835 1.19415 14.7562C1.19415 15.6775 1.67785 16.5153 2.42697 17.2066C3.17608 17.8979 4.2048 18.48 5.44806 18.9656C5.88856 19.1377 6.36548 19.2926 6.85783 19.4391C6.68073 20.1008 6.53725 20.7429 6.43947 21.3516C6.22356 22.6955 6.20077 23.8952 6.41603 24.9047C6.63129 25.9142 7.1103 26.7675 7.91486 27.232C8.71941 27.6965 9.69857 27.6851 10.6805 27.3668C11.6624 27.0485 12.6902 26.4293 13.7461 25.5703C14.1561 25.2368 14.5709 24.8563 14.986 24.4523C15.4032 24.8588 15.8196 25.241 16.2317 25.5762C17.2867 26.4344 18.3141 27.0539 19.2938 27.3715C20.2734 27.6891 21.2482 27.6989 22.0488 27.2367C22.8494 26.7745 23.327 25.926 23.5418 24.9187C23.7566 23.9115 23.7329 22.7132 23.5172 21.3703C23.4192 20.76 23.2756 20.1157 23.0977 19.4519C23.6063 19.3019 24.0983 19.1428 24.552 18.9656C25.7952 18.48 26.8239 17.8979 27.5731 17.2066C28.3222 16.5153 28.8059 15.6775 28.8059 14.7562C28.8059 13.835 28.3222 12.996 27.5731 12.3047C26.8239 11.6134 25.7952 11.0325 24.552 10.5469C24.1341 10.3837 23.683 10.236 23.2184 10.0957C23.3411 9.59413 23.45 9.10128 23.5254 8.63203C23.7413 7.28808 23.7641 6.08726 23.5488 5.07773C23.3336 4.0682 22.8534 3.21607 22.0488 2.75156C21.6466 2.5193 21.2006 2.40635 20.7328 2.39062ZM20.6777 3.61171C20.9713 3.61974 21.2217 3.6896 21.436 3.81328C21.8644 4.06063 22.1811 4.54205 22.35 5.33437C22.519 6.12669 22.5131 7.19719 22.3137 8.43867C22.2454 8.86372 22.1463 9.31421 22.0336 9.77578C20.8063 9.48041 19.4615 9.26124 18.0281 9.13242C17.3086 8.13559 16.5693 7.22746 15.8238 6.42187C16.2181 6.03699 16.6099 5.67703 16.9922 5.36601C17.9676 4.57256 18.8911 4.03265 19.6617 3.78281C20.0471 3.65788 20.3842 3.60369 20.6777 3.61171ZM9.29181 3.61523C9.58706 3.60699 9.92491 3.66104 10.3113 3.78632C11.0842 4.03689 12.0093 4.57655 12.9856 5.3707C13.3602 5.67548 13.7432 6.02859 14.1293 6.40429C13.3784 7.21648 12.6329 8.13248 11.9086 9.13828C10.4813 9.26944 9.14198 9.4898 7.92072 9.78632C7.80891 9.32732 7.70975 8.87915 7.64181 8.45625C7.4422 7.21369 7.43722 6.14304 7.60665 5.34843C7.77609 4.55383 8.09536 4.06878 8.52775 3.81914C8.74394 3.69432 8.99655 3.62347 9.29181 3.61523ZM14.986 7.28554C15.4747 7.81744 15.9636 8.39949 16.4485 9.02578C15.972 9.00591 15.4898 8.99414 15 8.99414C14.5005 8.99414 14.0091 9.00629 13.5235 9.02695C14.0084 8.40018 14.4971 7.81784 14.986 7.28554ZM15 10.2059C15.8159 10.2059 16.6112 10.2394 17.3848 10.2961C17.9171 11.0606 18.4372 11.8716 18.9328 12.7301C19.3683 13.4844 19.7624 14.2375 20.1211 14.9812C19.7586 15.7349 19.3579 16.4982 18.9164 17.2629C18.5278 17.936 18.1219 18.5754 17.7094 19.1918C16.8356 19.2648 15.9302 19.3055 15 19.3055C14.0474 19.3055 13.1217 19.2624 12.2285 19.1859C11.8229 18.5784 11.4239 17.9487 11.0414 17.2863C10.6009 16.5234 10.2022 15.7614 9.84025 15.0094C10.2037 14.253 10.6042 13.4869 11.0473 12.7195C11.5403 11.8656 12.0589 11.0592 12.5883 10.2984C13.3702 10.2404 14.1747 10.2059 15 10.2059ZM18.9293 10.4461C19.9184 10.5695 20.8471 10.7408 21.7113 10.9465C21.4549 11.7872 21.139 12.6653 20.7563 13.5715C20.5078 13.0924 20.2504 12.6117 19.9723 12.1301C19.6353 11.5464 19.2843 10.9898 18.9293 10.4461ZM11.0063 10.4555C10.6588 10.9891 10.3169 11.5347 9.98673 12.1066C9.70507 12.5945 9.44235 13.0816 9.19103 13.5668C8.81159 12.666 8.49761 11.7929 8.24298 10.957C9.10081 10.751 10.0241 10.5803 11.0063 10.4555ZM22.8985 11.2652C23.3238 11.3939 23.7346 11.5282 24.1113 11.6754C25.2574 12.123 26.164 12.6531 26.7516 13.1953C27.3391 13.7375 27.5942 14.2546 27.5942 14.7562C27.5942 15.2579 27.3391 15.775 26.7516 16.3172C26.164 16.8594 25.2574 17.3895 24.1113 17.8371C23.6926 18.0006 23.2326 18.1489 22.7543 18.2894C22.4131 17.2342 21.9777 16.1333 21.4594 15.0094C22.0553 13.719 22.5367 12.461 22.8985 11.2652ZM7.08165 11.2711C7.43929 12.4549 7.9145 13.7005 8.50197 14.9777C7.98029 16.1082 7.54266 17.2153 7.20001 18.2766C6.73859 18.1397 6.29414 17.9955 5.88868 17.8371C4.74259 17.3895 3.83602 16.8594 3.24845 16.3172C2.66088 15.775 2.40587 15.2579 2.40587 14.7562C2.40587 14.2546 2.66088 13.7375 3.24845 13.1953C3.83602 12.6531 4.74259 12.123 5.88868 11.6754C6.25968 11.5305 6.66356 11.3981 7.08165 11.2711ZM15 12C13.3503 12 12 13.3502 12 15C12 16.6497 13.3503 18 15 18C16.6498 18 18 16.6497 18 15C18 13.3502 16.6498 12 15 12ZM9.20509 16.4191C9.45751 16.9067 9.72003 17.396 10.0031 17.8863C10.2246 18.27 10.4509 18.6434 10.6805 19.0102C9.8747 18.8984 9.10875 18.757 8.38947 18.5894C8.6182 17.8889 8.89186 17.1617 9.20509 16.4191ZM20.7715 16.4191C21.086 17.1634 21.3598 17.8918 21.5895 18.5941C20.8679 18.7614 20.0996 18.9024 19.2914 19.0137C19.5241 18.6425 19.7538 18.2643 19.9781 17.8758C20.2592 17.389 20.5207 16.9031 20.7715 16.4191ZM8.04376 19.7543C9.12966 20.0115 10.3066 20.2091 11.5547 20.3379C12.3878 21.5429 13.2558 22.6257 14.1293 23.5723C13.7387 23.9531 13.3516 24.3105 12.9727 24.6187C11.9972 25.4122 11.0726 25.9509 10.302 26.2008C9.53132 26.4506 8.95618 26.4177 8.52775 26.1703C8.09931 25.9229 7.7838 25.4415 7.61486 24.6492C7.44591 23.8569 7.45058 22.7876 7.65001 21.5461C7.74049 20.9829 7.8757 20.3798 8.04376 19.7543ZM21.9363 19.759C22.1058 20.3883 22.2414 20.9936 22.3324 21.5602C22.532 22.8027 22.537 23.8734 22.3676 24.668C22.1982 25.4626 21.8812 25.9488 21.4488 26.1984C21.0164 26.4481 20.4358 26.4806 19.6629 26.2301C18.89 25.9795 17.965 25.4398 16.9887 24.6457C16.6071 24.3353 16.2172 23.9749 15.8238 23.591C16.7032 22.6407 17.5773 21.5524 18.416 20.3402C19.6672 20.2123 20.8475 20.0159 21.9363 19.759ZM13.1203 20.4609C13.7364 20.4945 14.3606 20.5172 15 20.5172C15.6183 20.5172 16.2223 20.4959 16.8188 20.4644C16.209 21.2872 15.5874 22.0351 14.9684 22.7086C14.3497 22.0336 13.7293 21.2844 13.1203 20.4609Z" fill="black"/>
</svg>
