<svg width="30" height="30" viewBox="0 0 30 30" fill="none" xmlns="http://www.w3.org/2000/svg">
<path d="M27 2.39999H2.99999C2.66819 2.39999 2.39999 2.66879 2.39999 2.99999V27C2.39999 27.3312 2.66819 27.6 2.99999 27.6H27C27.3318 27.6 27.6 27.3312 27.6 27V2.99999C27.6 2.66879 27.3318 2.39999 27 2.39999ZM17.4 15.867H14.4V25.2H12V15.867H8.99999V13.8H17.4V15.867ZM18.0726 24.6672V22.1724C18.0726 22.1724 19.4352 23.1996 21.0702 23.1996C22.7052 23.1996 22.6422 22.1304 22.6422 21.984C22.6422 20.4324 18.0096 20.4324 18.0096 16.995C18.0096 12.3204 24.7596 14.1648 24.7596 14.1648L24.6756 16.3872C24.6756 16.3872 23.5434 15.6324 22.2648 15.6324C20.9862 15.6324 20.5248 16.2402 20.5248 16.89C20.5248 18.567 25.1994 18.3996 25.1994 21.7746C25.2 26.973 18.0726 24.6672 18.0726 24.6672Z" fill="black"/>
</svg>
