<svg width="30" height="30" viewBox="0 0 30 30" fill="none" xmlns="http://www.w3.org/2000/svg">
<path d="M26.4492 15.1242L28.1414 12.2578C28.2093 12.1149 28.2187 11.9508 28.1672 11.8031L24.8156 2.20314C24.7125 1.91017 24.4054 1.74376 24.1078 1.81642L14.257 4.21642C14.0695 4.26329 13.9148 4.39689 13.8422 4.57735L12.7945 7.20001H9.59997C9.43356 7.20001 9.27184 7.27032 9.15934 7.3922L1.95934 15.1922C1.73669 15.4336 1.74841 15.8086 1.98513 16.0336L9.53669 23.2336C9.64684 23.3414 9.79684 23.4 9.94919 23.4H13.3922L14.4422 26.0227C14.5195 26.2172 14.6929 26.3555 14.8968 26.3906L25.3734 28.1906C25.4062 28.1977 25.4414 28.2 25.4742 28.2C25.7531 28.2 25.9992 28.0078 26.0601 27.7289L28.1859 17.9906C28.2187 17.8406 28.1929 17.6836 28.1109 17.55L26.4492 15.1242ZM12.7945 7.20001L21.2508 5.65079L16.8 14.4H6.70075L12.7945 7.20001ZM13.3945 23.4L6.70075 16.8H16.8L22.05 24.7008L13.3945 23.4ZM24.232 23.3391L19.2 15.6L23.5992 6.85079L26.4492 15.1266L24.232 23.3391Z" fill="black"/>
</svg>
